<?xml version="1.0" encoding="utf-8"?>
<!-- Generator: Adobe Illustrator 26.5.0, SVG Export Plug-In . SVG Version: 6.00 Build 0)  -->
<svg version="1.1" id="katman_1" xmlns="http://www.w3.org/2000/svg" xmlns:xlink="http://www.w3.org/1999/xlink" x="0px" y="0px"
	 viewBox="0 0 226 42" style="enable-background:new 0 0 226 42;" xml:space="preserve">
<style type="text/css">
	.st0{fill:#FFFFFF;}
	.st1{fill:#4BC0EC;}
	.st2{fill:#3C3C3B;}
	.st3{fill:#EFA100;}
</style>
<g>
	<path class="st0" d="M59.2,6.6h18.3v6.2H62.7v5.7h14.9v6H62.7v4.1c0,0.5,0.1,0.8,0.3,1.1c0.2,0.3,0.7,0.4,1.3,0.4h13.2v6.2h-15
		c-4.4,0-6.6-2.3-6.6-6.8V9.9C55.9,8.1,57.4,6.6,59.2,6.6z"/>
	<path class="st0" d="M105.6,6.6l-10,14.5l10.7,15.1h-7.8l-8.6-12.3v12.3h-6.8V6.6h6.8v11.8l8.2-11.8H105.6z"/>
	<path class="st0" d="M115.8,6.6v22c0,0.5,0.1,0.8,0.3,1.1c0.2,0.3,0.7,0.4,1.3,0.4h5.1c0.6,0,1.1-0.1,1.3-0.4
		c0.2-0.3,0.3-0.6,0.3-1.1v-22h6.7v22.8c0,4.5-2.2,6.8-6.6,6.8h-8.4c-4.4,0-6.6-2.3-6.6-6.8V6.6H115.8z"/>
	<path class="st0" d="M143.1,36.2h-6.8V13.4c0-4.5,2.2-6.8,6.6-6.8h8.3c4.4,0,6.6,2.3,6.6,6.8v7.2c0,4.1-1.9,6.4-5.6,6.7l7.5,8.9
		h-8.4l-7.1-8.9h-1.1V36.2z M144.8,12.8c-0.6,0-1.1,0.1-1.3,0.4c-0.2,0.3-0.3,0.6-0.3,1.1v7h6.4c0.6,0,1.1-0.1,1.3-0.4
		c0.2-0.3,0.3-0.6,0.3-1.1v-5.5c0-0.5-0.1-0.8-0.3-1.1c-0.2-0.3-0.7-0.4-1.3-0.4H144.8z"/>
	<path class="st0" d="M170.2,6.6v22c0,0.5,0.1,0.8,0.3,1.1c0.2,0.3,0.7,0.4,1.3,0.4h5.1c0.6,0,1.1-0.1,1.3-0.4
		c0.2-0.3,0.3-0.6,0.3-1.1v-22h6.7v22.8c0,4.5-2.2,6.8-6.6,6.8h-8.4c-4.4,0-6.6-2.3-6.6-6.8V6.6H170.2z"/>
	<path class="st0" d="M197.5,28.3v7.9h-6.8v-7.9 M190.7,28.3V10.2c0-1.2,0.2-2,0.7-2.7c0.5-0.6,1.4-0.9,2.8-0.9h1.4
		c0.9,0,1.5,0.2,2,0.5c0.5,0.3,0.9,0.7,1.3,1.2l5.3,6.4l5.3-6.4c0.4-0.5,0.8-0.9,1.3-1.2c0.5-0.3,1.1-0.5,2-0.5h1.4
		c1.4,0,2.3,0.3,2.8,0.9c0.5,0.6,0.7,1.5,0.7,2.7v26h-6.8V15.8l-6.8,7.9l-6.7-7.9v12.4"/>
</g>
<g>
	<path class="st1" d="M40.2,41.1c-0.5,0-0.8,0.2-1.3,0.2c-0.8,0-1.6,0-2.3,0c-5.4,0-7.2,0-12.5,0c-1.6,0-2.6,0-4.3,0
		c-1.5,0-3-0.2-4.3-0.5c-3.6-1-5.8-3.3-6.7-7c-0.3-1.7-0.5-3.3-0.5-5c0-4.3,0-8.6,0-13c0-1,0-1.9,0-2.9c0.3-4.5,2.3-7.7,6.1-9.9
		c1.6-1,3.6-1.4,5.4-1.4c2.3,0,4.1,0,6.4,0c3.6,0,3.8,0,7.4,0c1.3,0,2.8,0,4.1,0.2c1.2,0,2.3,0.3,3.5,0.7c2.3,0.7,3.6,2.4,4.3,4.6
		c0.3,1.2,0.5,2.4,0.7,3.6c0,1.2,0,3.4,0,3.4c0,0.7-0.7,1.4-0.8,1.5c-4.9,3.9-8.2,6.7-13.2,10.8C31.5,27,30.8,27,30.3,27
		c-0.7-0.2-1.2-0.5-1.6-0.9c-1.3-1.4-2.8-2.6-4.3-3.9c-1.3-1.2-2.6-2.4-3.9-3.8c-0.2-0.2-0.5-0.5-0.7-0.7c0-0.2,0.2-0.3,0.3-0.5
		c0.5,0,0.8,0,1.2,0c3.6,0,7.2,0,10.9,0c0.7,0,1.5,0,2.1,0c1.8,0,3.3-1.2,3.8-3.1c0.3-1.7-0.5-3.4-2-4.1c-0.7-0.3-1.3-0.5-2-0.5
		c-1,0-2,0-2.8,0c-3,0-2.5,0-5.4,0c-1.6,0-2.8,0-4.4,0c-0.7,0-1.5,0.2-2.1,0.3c-1.6,0.3-2.8,1.5-3.1,3.3c-0.2,0.9-0.3,1.7-0.3,2.6
		c0,3.9,0,8.1,0,12c0,0.7,0,1.4,0.2,2.1c0.3,1.7,1.5,2.9,3.1,3.3c0.7,0.2,1.3,0.2,2,0.2c3.9,0,3.9,0,8.1,0c1,0,2,0,3,0
		c0.5,0,1.2,0.2,1.5,0.7C36.1,36.5,38.1,38.5,40.2,41.1C40,40.9,40.2,40.9,40.2,41.1z"/>
	<path class="st2" d="M38.4,28.2L38.4,28.2c-1.2-1.4-1-3.6,0.5-4.6l3.9-3.3c1.3-1.2,3.5-1,4.4,0.5l0,0c1.2,1.4,1,3.6-0.5,4.6
		l-3.9,3.3C41.5,29.8,39.6,29.6,38.4,28.2z"/>
	<path class="st3" d="M42,20.9c-0.2,0.5-0.7,1.4-0.8,2.1c-0.7,2.6-0.2,4.8,1.3,6.7c1.6,2.1,2.3,2.9,3.9,5.1c1.3,1.7,1.2,3.9-0.3,5.1
		c-1.5,1.2-3.6,1.2-4.9-0.5c-2.5-3.1-3.8-4.8-6.3-7.9c-1.2-1.5-1.3-3.6,0-4.8C37.3,24.8,39.7,22.8,42,20.9z"/>
</g>
</svg>
