<?xml version="1.0" encoding="utf-8"?>
<!-- Generator: Adobe Illustrator 26.5.0, SVG Export Plug-In . SVG Version: 6.00 Build 0)  -->
<svg version="1.1" id="katman_1" xmlns="http://www.w3.org/2000/svg" xmlns:xlink="http://www.w3.org/1999/xlink" x="0px" y="0px"
	 viewBox="0 0 269 56" style="enable-background:new 0 0 269 56;" xml:space="preserve">
<style type="text/css">
	.st0{fill:#FFFFFF;}
	.st1{fill:#4BC0EC;}
	.st2{fill:#3C3C3B;}
	.st3{fill:#EFA100;}
</style>
<g>
	<path class="st0" d="M66.7,9.9h22.9v7.7H71v7.1h18.6v7.5H71v5.1c0,0.6,0.1,1,0.4,1.4c0.3,0.3,0.8,0.5,1.6,0.5h16.6v7.7H70.8
		c-5.5,0-8.3-2.8-8.3-8.5V14C62.6,11.7,64.4,9.9,66.7,9.9z"/>
	<path class="st0" d="M124.8,9.9L112.2,28l13.3,18.8h-9.8L105,31.5v15.4h-8.5v-37h8.5v14.8l10.3-14.8H124.8z"/>
	<path class="st0" d="M137.6,9.9v27.6c0,0.6,0.1,1,0.4,1.4c0.3,0.3,0.8,0.5,1.6,0.5h6.4c0.8,0,1.3-0.2,1.6-0.5
		c0.3-0.3,0.4-0.8,0.4-1.4V9.9h8.3v28.5c0,5.6-2.8,8.5-8.3,8.5h-10.6c-5.5,0-8.3-2.8-8.3-8.5V9.9H137.6z"/>
	<path class="st0" d="M171.7,46.9h-8.5V18.4c0-5.6,2.8-8.5,8.3-8.5H182c5.5,0,8.3,2.8,8.3,8.5v9c0,5.1-2.3,7.9-7,8.4l9.3,11.2H182
		l-8.9-11.1h-1.4V46.9z M173.8,17.6c-0.8,0-1.3,0.2-1.6,0.5c-0.3,0.3-0.4,0.8-0.4,1.4v8.8h8c0.8,0,1.3-0.2,1.6-0.5
		c0.3-0.3,0.4-0.8,0.4-1.4v-6.9c0-0.6-0.1-1-0.4-1.4c-0.3-0.3-0.8-0.5-1.6-0.5H173.8z"/>
	<path class="st0" d="M205.5,9.9v27.6c0,0.6,0.1,1,0.4,1.4c0.3,0.3,0.8,0.5,1.6,0.5h6.4c0.8,0,1.3-0.2,1.6-0.5
		c0.3-0.3,0.4-0.8,0.4-1.4V9.9h8.3v28.5c0,5.6-2.8,8.5-8.3,8.5h-10.6c-5.5,0-8.3-2.8-8.3-8.5V9.9H205.5z"/>
	<path class="st0" d="M239.7,37v9.9h-8.5V37 M231.2,37V14.4c0-1.4,0.3-2.6,0.9-3.3c0.6-0.8,1.8-1.2,3.5-1.2h1.7
		c1.1,0,1.9,0.2,2.5,0.6c0.6,0.4,1.1,0.9,1.6,1.5l6.6,8l6.7-8c0.5-0.6,1-1.1,1.6-1.5c0.6-0.4,1.4-0.6,2.5-0.6h1.7
		c1.7,0,2.9,0.4,3.5,1.2c0.6,0.8,0.9,1.9,0.9,3.3v32.5h-8.5V21.4l-8.5,9.8l-8.4-9.8V37"/>
</g>
<g>
	<path class="st1" d="M42.9,53c-0.6,0-1,0.2-1.6,0.2c-1,0-2.1,0-2.9,0c-6.8,0-9.1,0-15.6,0c-2.1,0-3.3,0-5.4,0
		c-1.9,0-3.7-0.2-5.4-0.6c-4.5-1.3-7.2-4.1-8.4-8.8C3.2,41.7,3,39.8,3,37.6c0-5.4,0-10.7,0-16.3C3,20,3,19,3,17.7
		C3.4,12.1,5.9,8,10.6,5.2c2.1-1.3,4.5-1.7,6.8-1.7c2.9,0,5.1,0,8,0c4.5,0,4.7,0,9.3,0c1.6,0,3.5,0,5.1,0.2c1.4,0,2.9,0.4,4.3,0.9
		c2.9,0.9,4.5,3,5.4,5.8c0.4,1.5,0.6,3,0.8,4.5c0,1.5,0,4.3,0,4.3c0,0.9-0.8,1.7-1,1.9C43.1,26,39,29.5,32.9,34.6
		c-0.8,0.9-1.6,0.9-2.3,0.9c-0.8-0.2-1.4-0.6-2.1-1.1c-1.6-1.7-3.5-3.2-5.4-4.9c-1.6-1.5-3.3-3-4.9-4.7c-0.2-0.2-0.6-0.6-0.8-0.9
		c0-0.2,0.2-0.4,0.4-0.6c0.6,0,1,0,1.4,0c4.5,0,9.1,0,13.6,0c0.8,0,1.9,0,2.7,0c2.3,0,4.1-1.5,4.7-3.9c0.4-2.1-0.6-4.3-2.5-5.1
		c-0.8-0.4-1.6-0.6-2.5-0.6c-1.2,0-2.5,0-3.5,0c-3.7,0-3.1,0-6.8,0c-2.1,0-3.5,0-5.6,0c-0.8,0-1.9,0.2-2.7,0.4
		c-2.1,0.4-3.5,1.9-3.9,4.1c-0.2,1.1-0.4,2.1-0.4,3.2c0,4.9,0,10.1,0,15c0,0.9,0,1.7,0.2,2.6c0.4,2.1,1.9,3.6,3.9,4.1
		c0.8,0.2,1.6,0.2,2.5,0.2c4.9,0,4.9,0,10.1,0c1.2,0,2.5,0,3.7,0c0.6,0,1.4,0.2,1.9,0.9C37.8,47.3,40.3,49.8,42.9,53
		C42.7,52.8,42.9,52.8,42.9,53z"/>
	<path class="st2" d="M40.7,37L40.7,37c-1.4-1.7-1.2-4.5,0.6-5.8l4.9-4.1c1.6-1.5,4.3-1.3,5.6,0.6l0,0c1.4,1.7,1.2,4.5-0.6,5.8
		l-4.9,4.1C44.6,38.9,42.1,38.7,40.7,37z"/>
	<path class="st3" d="M45.2,27.7c-0.2,0.6-0.8,1.7-1,2.6c-0.8,3.2-0.2,6,1.6,8.4c2.1,2.6,2.9,3.6,4.9,6.4c1.6,2.1,1.4,4.9-0.4,6.4
		s-4.5,1.5-6.2-0.6c-3.1-3.9-4.7-6-7.8-9.9c-1.4-1.9-1.6-4.5,0-6C39.2,32.7,42.3,30.1,45.2,27.7z"/>
</g>
</svg>
