<?xml version="1.0" encoding="utf-8"?>
<!-- Generator: Adobe Illustrator 26.5.0, SVG Export Plug-In . SVG Version: 6.00 Build 0)  -->
<svg version="1.1" id="katman_1" xmlns="http://www.w3.org/2000/svg" xmlns:xlink="http://www.w3.org/1999/xlink" x="0px" y="0px"
	 viewBox="0 0 78 56" style="enable-background:new 0 0 78 56;" xml:space="preserve">
<style type="text/css">
	.st0{fill:#4BC0EC;}
	.st1{fill:#3C3C3B;}
	.st2{fill:#EFA100;}
</style>
<g>
	<path class="st0" d="M55.5,55.8c-0.7,0-1.1,0.2-1.8,0.2c-1.1,0-2.3,0-3.2,0c-7.5,0-10.1,0-17.4,0c-2.3,0-3.7,0-5.9,0
		c-2.1,0-4.1-0.2-5.9-0.7c-5-1.4-8-4.5-9.4-9.8c-0.5-2.4-0.7-4.5-0.7-6.9c0-6,0-11.9,0-18.1c0-1.4,0-2.6,0-4
		c0.5-6.2,3.2-10.7,8.5-13.8c2.3-1.4,5-1.9,7.5-1.9c3.2,0,5.7,0,8.9,0c5,0,5.3,0,10.3,0c1.8,0,3.9,0,5.7,0.2c1.6,0,3.2,0.5,4.8,1
		c3.2,1,5,3.3,5.9,6.4c0.5,1.7,0.7,3.3,0.9,5c0,1.7,0,4.8,0,4.8c0,1-0.9,1.9-1.1,2.1c-6.9,5.5-11.4,9.3-18.3,15c-0.9,1-1.8,1-2.5,1
		c-0.9-0.2-1.6-0.7-2.3-1.2c-1.8-1.9-3.9-3.6-5.9-5.5c-1.8-1.7-3.7-3.3-5.5-5.2c-0.2-0.2-0.7-0.7-0.9-1c0-0.2,0.2-0.5,0.5-0.7
		c0.7,0,1.1,0,1.6,0c5,0,10.1,0,15.1,0c0.9,0,2.1,0,3,0c2.5,0,4.6-1.7,5.3-4.3c0.5-2.4-0.7-4.8-2.7-5.7C48.9,12.2,48,12,47.1,12
		c-1.4,0-2.7,0-3.9,0c-4.1,0-3.4,0-7.5,0c-2.3,0-3.9,0-6.2,0c-0.9,0-2.1,0.2-3,0.5c-2.3,0.5-3.9,2.1-4.3,4.5
		c-0.2,1.2-0.5,2.4-0.5,3.6c0,5.5,0,11.2,0,16.7c0,1,0,1.9,0.2,2.9c0.5,2.4,2.1,4,4.3,4.5c0.9,0.2,1.8,0.2,2.7,0.2
		c5.5,0,5.5,0,11.2,0c1.4,0,2.7,0,4.1,0c0.7,0,1.6,0.2,2.1,1C49.8,49.3,52.5,52.2,55.5,55.8C55.3,55.5,55.5,55.5,55.5,55.8z"/>
	<path class="st1" d="M53,37.9L53,37.9c-1.6-1.9-1.4-5,0.7-6.4l5.5-4.5c1.8-1.7,4.8-1.4,6.2,0.7l0,0c1.6,1.9,1.4,5-0.7,6.4l-5.5,4.5
		C57.3,40.1,54.6,39.8,53,37.9z"/>
	<path class="st2" d="M58,27.7c-0.2,0.7-0.9,1.9-1.1,2.9c-0.9,3.6-0.2,6.7,1.8,9.3c2.3,2.9,3.2,4,5.5,7.1c1.8,2.4,1.6,5.5-0.5,7.1
		s-5,1.7-6.9-0.7c-3.4-4.3-5.3-6.7-8.7-10.9c-1.6-2.1-1.8-5,0-6.7C51.4,33.2,54.8,30.3,58,27.7z"/>
</g>
</svg>
