<?xml version="1.0" encoding="utf-8"?>
<!-- Generator: Adobe Illustrator 26.5.0, SVG Export Plug-In . SVG Version: 6.00 Build 0)  -->
<svg version="1.1" id="katman_1" xmlns="http://www.w3.org/2000/svg" xmlns:xlink="http://www.w3.org/1999/xlink" x="0px" y="0px"
	 viewBox="0 0 78 56" style="enable-background:new 0 0 78 56;" xml:space="preserve">
<style type="text/css">
	.st0{fill:#4BC0EC;}
	.st1{fill:#FFFFFF;}
	.st2{fill:#EFA100;}
</style>
<g>
	<path class="st0" d="M54.2,53.7c-0.6,0-1.1,0.2-1.7,0.2c-1.1,0-2.1,0-3,0c-7,0-9.3,0-16,0c-2.1,0-3.4,0-5.5,0
		c-1.9,0-3.8-0.2-5.5-0.7c-4.6-1.3-7.4-4.2-8.7-9c-0.4-2.2-0.6-4.2-0.6-6.4c0-5.5,0-11,0-16.7c0-1.3,0-2.4,0-3.7
		c0.4-5.7,3-9.9,7.8-12.8c2.1-1.3,4.6-1.8,7-1.8c3,0,5.3,0,8.2,0c4.6,0,4.9,0,9.5,0c1.7,0,3.6,0,5.3,0.2c1.5,0,3,0.4,4.4,0.9
		c3,0.9,4.6,3.1,5.5,5.9c0.4,1.5,0.6,3.1,0.8,4.6c0,1.5,0,4.4,0,4.4c0,0.9-0.8,1.8-1.1,2c-6.3,5.1-10.6,8.6-16.9,13.9
		c-0.8,0.9-1.7,0.9-2.3,0.9c-0.8-0.2-1.5-0.7-2.1-1.1c-1.7-1.8-3.6-3.3-5.5-5.1c-1.7-1.5-3.4-3.1-5.1-4.8c-0.2-0.2-0.6-0.7-0.8-0.9
		c0-0.2,0.2-0.4,0.4-0.7c0.6,0,1.1,0,1.5,0c4.6,0,9.3,0,13.9,0c0.8,0,1.9,0,2.7,0c2.3,0,4.2-1.5,4.9-4c0.4-2.2-0.6-4.4-2.5-5.3
		c-0.8-0.4-1.7-0.7-2.5-0.7c-1.3,0-2.5,0-3.6,0c-3.8,0-3.2,0-7,0c-2.1,0-3.6,0-5.7,0c-0.8,0-1.9,0.2-2.7,0.4c-2.1,0.4-3.6,2-4,4.2
		C23.2,18.9,23,20,23,21.1c0,5.1,0,10.3,0,15.4c0,0.9,0,1.8,0.2,2.6c0.4,2.2,1.9,3.7,4,4.2c0.8,0.2,1.7,0.2,2.5,0.2
		c5.1,0,5.1,0,10.3,0c1.3,0,2.5,0,3.8,0c0.6,0,1.5,0.2,1.9,0.9C49,47.7,51.5,50.4,54.2,53.7C54,53.5,54.2,53.5,54.2,53.7z"/>
	<path class="st1" d="M51.9,37.2L51.9,37.2c-1.5-1.8-1.3-4.6,0.6-5.9l5.1-4.2c1.7-1.5,4.4-1.3,5.7,0.7l0,0c1.5,1.8,1.3,4.6-0.6,5.9
		l-5.1,4.2C55.9,39.2,53.4,38.9,51.9,37.2z"/>
	<path class="st2" d="M56.6,27.7c-0.2,0.7-0.8,1.8-1.1,2.6c-0.8,3.3-0.2,6.2,1.7,8.6c2.1,2.6,3,3.7,5.1,6.6c1.7,2.2,1.5,5.1-0.4,6.6
		c-1.9,1.5-4.6,1.5-6.3-0.7c-3.2-4-4.9-6.2-8-10.1c-1.5-2-1.7-4.6,0-6.2C50.4,32.8,53.6,30.1,56.6,27.7z"/>
</g>
</svg>
