<?xml version="1.0" encoding="utf-8"?>
<!-- Generator: Adobe Illustrator 25.2.3, SVG Export Plug-In . SVG Version: 6.00 Build 0)  -->
<svg version="1.1" id="katman_1" xmlns="http://www.w3.org/2000/svg" xmlns:xlink="http://www.w3.org/1999/xlink" x="0px" y="0px"
	 viewBox="0 0 97 31" style="enable-background:new 0 0 97 31;" xml:space="preserve">
<style type="text/css">
	.st0{fill:#555454;}
</style>
<g>
	<path class="st0" d="M7.7,6.1v3.1h3.6V6.1h1v7.4h-1V10H7.7v3.5h-1V6.1H7.7z"/>
	<path class="st0" d="M14.8,6.1v4.4c0,1.7,0.7,2.4,1.7,2.4c1.1,0,1.8-0.7,1.8-2.4V6.1h1v4.3c0,2.3-1.2,3.2-2.8,3.2
		c-1.5,0-2.7-0.9-2.7-3.2V6.1H14.8z"/>
	<path class="st0" d="M21,6.1h1v3.6h0c0.2-0.3,0.4-0.6,0.6-0.8l2.3-2.8H26l-2.7,3.1l2.9,4.3h-1.1l-2.4-3.6L22,10.7v2.8h-1V6.1z"/>
	<path class="st0" d="M27.9,6.1v4.4c0,1.7,0.7,2.4,1.7,2.4c1.1,0,1.8-0.7,1.8-2.4V6.1h1v4.3c0,2.3-1.2,3.2-2.8,3.2
		c-1.5,0-2.7-0.9-2.7-3.2V6.1H27.9z"/>
	<path class="st0" d="M34.1,6.1h1v3.6h0c0.2-0.3,0.4-0.6,0.6-0.8l2.3-2.8h1.2l-2.7,3.1l2.9,4.3h-1.1l-2.4-3.6L35,10.7v2.8h-1V6.1z"
		/>
	<path class="st0" d="M42.4,6.2C43,6.1,43.7,6,44.4,6c1.4,0,2.4,0.3,3,0.9c0.7,0.6,1,1.5,1,2.7c0,1.2-0.4,2.2-1.1,2.9
		c-0.7,0.7-1.8,1.1-3.3,1.1c-0.7,0-1.3,0-1.7-0.1V6.2z M43.3,12.7c0.2,0,0.6,0.1,1,0.1c2,0,3.2-1.1,3.2-3.1c0-1.7-1-2.9-3-2.9
		c-0.5,0-0.9,0-1.1,0.1V12.7z"/>
	<path class="st0" d="M56,9.7c0,2.6-1.6,3.9-3.4,3.9c-2,0-3.3-1.5-3.3-3.8c0-2.4,1.5-3.9,3.4-3.9C54.7,6,56,7.5,56,9.7z M50.3,9.8
		c0,1.6,0.9,3,2.4,3c1.5,0,2.4-1.4,2.4-3.1c0-1.5-0.8-3-2.4-3C51.1,6.7,50.3,8.2,50.3,9.8z M51.1,5c0-0.3,0.2-0.6,0.5-0.6
		c0.3,0,0.5,0.2,0.5,0.6S52,5.6,51.6,5.6C51.3,5.6,51.1,5.3,51.1,5z M53.1,5c0-0.3,0.2-0.6,0.5-0.6c0.3,0,0.5,0.2,0.5,0.6
		S54,5.6,53.7,5.6C53.4,5.6,53.1,5.3,53.1,5z"/>
	<path class="st0" d="M57.3,6.1h1v3.6h0c0.2-0.3,0.4-0.6,0.6-0.8l2.3-2.8h1.2l-2.7,3.1l2.9,4.3h-1.1l-2.4-3.6l-0.7,0.8v2.8h-1V6.1z"
		/>
	<path class="st0" d="M64.2,6.1v4.4c0,1.7,0.7,2.4,1.7,2.4c1.1,0,1.8-0.7,1.8-2.4V6.1h1v4.3c0,2.3-1.2,3.2-2.8,3.2
		c-1.5,0-2.7-0.9-2.7-3.2V6.1H64.2z M64.4,5c0-0.3,0.2-0.6,0.5-0.6c0.3,0,0.5,0.2,0.5,0.6S65.3,5.6,65,5.6S64.4,5.3,64.4,5z M66.5,5
		c0-0.3,0.2-0.6,0.5-0.6c0.3,0,0.5,0.2,0.5,0.6S67.3,5.6,67,5.6C66.7,5.6,66.5,5.3,66.5,5z"/>
	<path class="st0" d="M76.6,10.2c-0.1-1-0.1-2.3-0.1-3.2h0c-0.3,0.9-0.6,1.8-0.9,2.8l-1.3,3.6h-0.7l-1.2-3.5c-0.4-1-0.6-2-0.9-2.9h0
		c0,0.9-0.1,2.2-0.1,3.3l-0.2,3.2h-0.9l0.5-7.4h1.2l1.3,3.6c0.3,0.9,0.6,1.7,0.7,2.5h0c0.2-0.7,0.5-1.6,0.8-2.5l1.3-3.6h1.2l0.5,7.4
		h-0.9L76.6,10.2z"/>
	<path class="st0" d="M80.3,11.2l-0.8,2.3h-1l2.5-7.4h1.2l2.5,7.4h-1l-0.8-2.3H80.3z M82.7,10.4L82,8.3c-0.2-0.5-0.3-0.9-0.4-1.4h0
		c-0.1,0.4-0.2,0.9-0.4,1.3l-0.7,2.1H82.7z"/>
	<path class="st0" d="M85.8,13.5V6.1h1l2.4,3.8c0.5,0.9,1,1.7,1.3,2.4l0,0c-0.1-1-0.1-1.9-0.1-3V6.1h0.9v7.4h-1l-2.4-3.8
		c-0.5-0.8-1-1.7-1.4-2.5l0,0c0.1,0.9,0.1,1.8,0.1,3.1v3.2H85.8z"/>
	<path class="st0" d="M8.4,26.7v-3.1L6,19.3h1.1l1,2c0.3,0.6,0.5,1,0.7,1.5h0c0.2-0.5,0.5-1,0.7-1.5l1.1-2h1.1l-2.5,4.3v3.2H8.4z"/>
	<path class="st0" d="M18.6,22.9c0,2.6-1.6,3.9-3.4,3.9c-2,0-3.3-1.5-3.3-3.8c0-2.4,1.5-3.9,3.4-3.9C17.3,19.2,18.6,20.7,18.6,22.9z
		 M12.9,23c0,1.6,0.9,3,2.4,3c1.5,0,2.4-1.4,2.4-3.1c0-1.5-0.8-3-2.4-3C13.6,19.9,12.9,21.4,12.9,23z M13.7,18.2
		c0-0.3,0.2-0.5,0.5-0.5s0.5,0.2,0.5,0.5c0,0.3-0.2,0.6-0.5,0.6C13.9,18.8,13.7,18.5,13.7,18.2z M15.7,18.2c0-0.3,0.2-0.5,0.6-0.5
		c0.3,0,0.5,0.2,0.5,0.5c0,0.3-0.2,0.6-0.5,0.6C15.9,18.8,15.7,18.5,15.7,18.2z"/>
	<path class="st0" d="M19.9,26.7v-7.4h1l2.4,3.8c0.5,0.9,1,1.6,1.3,2.4l0,0c-0.1-1-0.1-1.9-0.1-3v-3.1h0.9v7.4h-1l-2.4-3.8
		c-0.5-0.8-1-1.7-1.4-2.5l0,0c0.1,0.9,0.1,1.8,0.1,3.1v3.2H19.9z"/>
	<path class="st0" d="M30.9,23.2H28v2.7h3.2v0.8h-4.2v-7.4h4v0.8h-3v2.3h2.9V23.2z"/>
	<path class="st0" d="M34.1,20.1h-2.3v-0.8h5.5v0.8h-2.3v6.6h-1V20.1z"/>
	<path class="st0" d="M38.1,18.2c0-0.3,0.2-0.5,0.5-0.5c0.3,0,0.5,0.3,0.5,0.5s-0.2,0.6-0.5,0.6C38.3,18.8,38.1,18.5,38.1,18.2z
		 M39.1,19.3v7.4h-1v-7.4H39.1z"/>
	<path class="st0" d="M47,23.4c-0.1-1-0.1-2.3-0.1-3.2h0c-0.3,0.9-0.6,1.8-0.9,2.8l-1.3,3.6h-0.7l-1.2-3.5c-0.4-1-0.6-2-0.9-2.9h0
		c0,0.9-0.1,2.2-0.1,3.3l-0.2,3.2h-0.9l0.5-7.4h1.2l1.3,3.6c0.3,0.9,0.6,1.7,0.7,2.5h0c0.2-0.7,0.5-1.6,0.8-2.5l1.3-3.6h1.2l0.5,7.4
		h-0.9L47,23.4z"/>
	<path class="st0" d="M53.1,26.7v-3.1l-2.3-4.3h1.1l1,2c0.3,0.6,0.5,1,0.7,1.5h0c0.2-0.5,0.5-1,0.7-1.5l1.1-2h1.1l-2.5,4.3v3.2H53.1
		z"/>
	<path class="st0" d="M57.7,24.4l-0.8,2.3h-1l2.5-7.4h1.2l2.5,7.4h-1l-0.8-2.3H57.7z M60.1,23.6l-0.7-2.1c-0.2-0.5-0.3-0.9-0.4-1.4
		h0c-0.1,0.4-0.2,0.9-0.4,1.3l-0.7,2.1H60.1z"/>
	<path class="st0" d="M62.7,26.1l4.1-6v0h-3.8v-0.8h5v0.6l-4.1,6v0h4.1v0.8h-5.4V26.1z"/>
	<path class="st0" d="M70.3,19.3v7.4h-1v-7.4H70.3z"/>
	<path class="st0" d="M71.9,19.3h1v6.6h3.2v0.8h-4.1V19.3z"/>
	<path class="st0" d="M78.1,19.3v7.4h-1v-7.4H78.1z"/>
	<path class="st0" d="M86,23.4c-0.1-1-0.1-2.3-0.1-3.2h0c-0.3,0.9-0.6,1.8-0.9,2.8l-1.3,3.6h-0.7l-1.2-3.5c-0.4-1-0.6-2-0.9-2.9h0
		c0,0.9-0.1,2.2-0.1,3.3l-0.2,3.2h-0.9l0.5-7.4h1.2l1.3,3.6c0.3,0.9,0.6,1.7,0.7,2.5h0c0.2-0.7,0.5-1.6,0.8-2.5l1.3-3.6h1.2l0.5,7.4
		h-0.9L86,23.4z"/>
	<path class="st0" d="M89.6,19.3v7.4h-1v-7.4H89.6z"/>
</g>
</svg>
