<?xml version="1.0" encoding="utf-8"?>
<!-- Generator: Adobe Illustrator 26.5.0, SVG Export Plug-In . SVG Version: 6.00 Build 0)  -->
<svg version="1.1" id="katman_1" xmlns="http://www.w3.org/2000/svg" xmlns:xlink="http://www.w3.org/1999/xlink" x="0px" y="0px"
	 viewBox="0 0 269 56" style="enable-background:new 0 0 269 56;" xml:space="preserve">
<style type="text/css">
	.st0{fill:#4BC0EC;}
	.st1{fill:#FFFFFF;}
	.st2{fill:#EFA100;}
</style>
<g>
	<g>
		<path d="M66.7,9.4h23.1v7.8H71v7.2h18.7v7.6H71V37c0,0.6,0.1,1,0.4,1.4c0.3,0.3,0.8,0.5,1.6,0.5h16.7v7.8H70.9
			c-5.6,0-8.3-2.8-8.3-8.5V13.5C62.5,11.2,64.4,9.4,66.7,9.4z"/>
		<path d="M125.2,9.4l-12.6,18.3l13.4,19h-9.8l-10.9-15.5v15.5h-8.5V9.4h8.5v14.9l10.4-14.9H125.2z"/>
		<path d="M138.1,9.4v27.8c0,0.6,0.1,1,0.4,1.4c0.3,0.3,0.8,0.5,1.6,0.5h6.4c0.8,0,1.3-0.2,1.6-0.5c0.3-0.3,0.4-0.8,0.4-1.4V9.4h8.4
			v28.8c0,5.7-2.8,8.5-8.3,8.5H138c-5.6,0-8.3-2.8-8.3-8.5V9.4H138.1z"/>
		<path d="M172.5,46.6H164V17.9c0-5.7,2.8-8.5,8.3-8.5h10.5c5.6,0,8.3,2.8,8.3,8.5v9c0,5.2-2.3,8-7,8.5l9.4,11.3h-10.6l-9-11.2h-1.4
			V46.6z M174.6,17.1c-0.8,0-1.3,0.2-1.6,0.5c-0.3,0.3-0.4,0.8-0.4,1.4v8.8h8.1c0.8,0,1.3-0.2,1.6-0.5c0.3-0.3,0.4-0.8,0.4-1.4v-7
			c0-0.6-0.1-1-0.4-1.4c-0.3-0.3-0.8-0.5-1.6-0.5H174.6z"/>
		<path d="M206.6,9.4v27.8c0,0.6,0.1,1,0.4,1.4c0.3,0.3,0.8,0.5,1.6,0.5h6.4c0.8,0,1.3-0.2,1.6-0.5c0.3-0.3,0.4-0.8,0.4-1.4V9.4h8.4
			v28.8c0,5.7-2.8,8.5-8.3,8.5h-10.6c-5.6,0-8.3-2.8-8.3-8.5V9.4H206.6z"/>
		<path d="M241,36.7v10h-8.5v-10 M232.5,36.7V13.9c0-1.5,0.3-2.6,0.9-3.4c0.6-0.8,1.8-1.2,3.5-1.2h1.7c1.1,0,1.9,0.2,2.5,0.6
			c0.6,0.4,1.1,0.9,1.6,1.6l6.7,8l6.7-8c0.5-0.6,1-1.1,1.6-1.6c0.6-0.4,1.4-0.6,2.5-0.6h1.7c1.7,0,2.9,0.4,3.5,1.2
			c0.6,0.8,0.9,1.9,0.9,3.4v32.7H258V21l-8.5,9.9L241,21v15.7"/>
	</g>
	<g>
		<path class="st0" d="M42.7,52.8c-0.6,0-1,0.2-1.7,0.2c-1,0-2.1,0-2.9,0c-6.8,0-9.1,0-15.8,0c-2.1,0-3.3,0-5.4,0
			c-1.9,0-3.7-0.2-5.4-0.6c-4.6-1.3-7.3-4.1-8.5-8.9c-0.4-2.2-0.6-4.1-0.6-6.3c0-5.4,0-10.8,0-16.4c0-1.3,0-2.4,0-3.7
			c0.4-5.6,2.9-9.7,7.7-12.5c2.1-1.3,4.6-1.7,6.8-1.7c2.9,0,5.2,0,8.1,0c4.6,0,4.8,0,9.3,0c1.7,0,3.5,0,5.2,0.2
			c1.5,0,2.9,0.4,4.4,0.9c2.9,0.9,4.6,3,5.4,5.8c0.4,1.5,0.6,3,0.8,4.5c0,1.5,0,4.3,0,4.3c0,0.9-0.8,1.7-1,1.9
			c-6.2,5-10.4,8.4-16.6,13.6c-0.8,0.9-1.7,0.9-2.3,0.9c-0.8-0.2-1.5-0.6-2.1-1.1c-1.7-1.7-3.5-3.2-5.4-5c-1.7-1.5-3.3-3-5-4.8
			c-0.2-0.2-0.6-0.6-0.8-0.9c0-0.2,0.2-0.4,0.4-0.6c0.6,0,1,0,1.5,0c4.6,0,9.1,0,13.7,0c0.8,0,1.9,0,2.7,0c2.3,0,4.1-1.5,4.8-3.9
			c0.4-2.2-0.6-4.3-2.5-5.2c-0.8-0.4-1.7-0.6-2.5-0.6c-1.2,0-2.5,0-3.5,0c-3.7,0-3.1,0-6.8,0c-2.1,0-3.5,0-5.6,0
			c-0.8,0-1.9,0.2-2.7,0.4c-2.1,0.4-3.5,1.9-3.9,4.1c-0.2,1.1-0.4,2.2-0.4,3.2c0,5,0,10.2,0,15.1c0,0.9,0,1.7,0.2,2.6
			c0.4,2.2,1.9,3.7,3.9,4.1c0.8,0.2,1.7,0.2,2.5,0.2c5,0,5,0,10.2,0c1.2,0,2.5,0,3.7,0c0.6,0,1.5,0.2,1.9,0.9
			C37.6,47,40,49.6,42.7,52.8C42.5,52.6,42.7,52.6,42.7,52.8z"/>
		<path class="st1" d="M40.5,36.6L40.5,36.6c-1.5-1.7-1.2-4.5,0.6-5.8l5-4.1c1.7-1.5,4.4-1.3,5.6,0.6l0,0c1.5,1.7,1.2,4.5-0.6,5.8
			l-5,4.1C44.4,38.6,41.9,38.4,40.5,36.6z"/>
		<path class="st2" d="M45,27.4c-0.2,0.6-0.8,1.7-1,2.6c-0.8,3.2-0.2,6,1.7,8.4c2.1,2.6,2.9,3.7,5,6.5c1.7,2.2,1.5,5-0.4,6.5
			c-1.9,1.5-4.6,1.5-6.2-0.6c-3.1-3.9-4.8-6-7.9-9.9c-1.5-1.9-1.7-4.5,0-6C39,32.3,42.1,29.7,45,27.4z"/>
	</g>
</g>
</svg>
