<?xml version="1.0" encoding="utf-8"?>
<!-- Generator: Adobe Illustrator 26.5.0, SVG Export Plug-In . SVG Version: 6.00 Build 0)  -->
<svg version="1.1" id="katman_1" xmlns="http://www.w3.org/2000/svg" xmlns:xlink="http://www.w3.org/1999/xlink" x="0px" y="0px"
	 viewBox="0 0 120 74" style="enable-background:new 0 0 120 74;" xml:space="preserve">
<style type="text/css">
	.st0{fill:#4BC0EC;}
	.st1{fill:#3C3C3B;}
	.st2{fill:#EFA100;}
	.st3{fill:#FFFFFF;}
</style>
<g>
	<path class="st0" d="M72.9,44.9c-0.5,0-0.9,0.2-1.4,0.2c-0.9,0-1.8,0-2.5,0c-5.9,0-7.9,0-13.6,0c-1.8,0-2.9,0-4.7,0
		c-1.6,0-3.2-0.2-4.7-0.6c-3.9-1.1-6.3-3.5-7.3-7.7c-0.4-1.9-0.5-3.5-0.5-5.4c0-4.7,0-9.3,0-14.2c0-1.1,0-2.1,0-3.2
		c0.4-4.9,2.5-8.4,6.6-10.8c1.8-1.1,3.9-1.5,5.9-1.5c2.5,0,4.5,0,7,0c3.9,0,4.1,0,8.1,0c1.4,0,3,0,4.5,0.2c1.3,0,2.5,0.4,3.8,0.7
		c2.5,0.7,3.9,2.6,4.7,5c0.4,1.3,0.5,2.6,0.7,3.9c0,1.3,0,3.7,0,3.7c0,0.7-0.7,1.5-0.9,1.7c-5.4,4.3-9,7.3-14.3,11.8
		c-0.7,0.7-1.4,0.7-2,0.7c-0.7-0.2-1.3-0.6-1.8-0.9c-1.4-1.5-3-2.8-4.7-4.3c-1.4-1.3-2.9-2.6-4.3-4.1c-0.2-0.2-0.5-0.6-0.7-0.7
		c0-0.2,0.2-0.4,0.4-0.6c0.5,0,0.9,0,1.3,0c3.9,0,7.9,0,11.8,0c0.7,0,1.6,0,2.3,0c2,0,3.6-1.3,4.1-3.4c0.4-1.9-0.5-3.7-2.2-4.5
		c-0.7-0.4-1.4-0.6-2.2-0.6c-1.1,0-2.2,0-3,0c-3.2,0-2.7,0-5.9,0c-1.8,0-3,0-4.8,0c-0.7,0-1.6,0.2-2.3,0.4c-1.8,0.4-3,1.7-3.4,3.5
		c-0.2,0.9-0.4,1.9-0.4,2.8c0,4.3,0,8.8,0,13.1c0,0.7,0,1.5,0.2,2.2c0.4,1.9,1.6,3.2,3.4,3.5c0.7,0.2,1.4,0.2,2.2,0.2
		c4.3,0,4.3,0,8.8,0c1.1,0,2.2,0,3.2,0c0.5,0,1.3,0.2,1.6,0.7C68.4,39.8,70.5,42.1,72.9,44.9C72.7,44.7,72.9,44.7,72.9,44.9z"/>
	<path class="st1" d="M70.9,30.9L70.9,30.9c-1.3-1.5-1.1-3.9,0.5-5l4.3-3.5c1.4-1.3,3.8-1.1,4.8,0.6l0,0c1.3,1.5,1.1,3.9-0.5,5
		l-4.3,3.5C74.3,32.5,72.2,32.3,70.9,30.9z"/>
	<path class="st2" d="M74.8,22.8c-0.2,0.6-0.7,1.5-0.9,2.2c-0.7,2.8-0.2,5.2,1.4,7.3c1.8,2.2,2.5,3.2,4.3,5.6
		c1.4,1.9,1.3,4.3-0.4,5.6c-1.6,1.3-3.9,1.3-5.4-0.6c-2.7-3.4-4.1-5.2-6.8-8.6c-1.3-1.7-1.4-3.9,0-5.2
		C69.6,27.1,72.3,24.9,74.8,22.8z"/>
</g>
<g>
	<path class="st3" d="M7,49.3h12.5v4.2H9.3v3.9h10.1v4.1H9.3v2.8c0,0.3,0.1,0.6,0.2,0.7c0.2,0.2,0.4,0.3,0.9,0.3h9v4.2H9.2
		c-3,0-4.5-1.5-4.5-4.6V51.6C4.7,50.3,5.7,49.3,7,49.3z"/>
	<path class="st3" d="M38.6,49.3l-6.8,9.9L39,69.5h-5.3l-5.9-8.4v8.4h-4.6V49.3h4.6v8l5.6-8H38.6z"/>
	<path class="st3" d="M45.5,49.3v15c0,0.3,0.1,0.6,0.2,0.7c0.2,0.2,0.4,0.3,0.9,0.3h3.5c0.4,0,0.7-0.1,0.9-0.3
		c0.2-0.2,0.2-0.4,0.2-0.7v-15h4.5v15.5c0,3.1-1.5,4.6-4.5,4.6h-5.7c-3,0-4.5-1.5-4.5-4.6V49.3H45.5z"/>
	<path class="st3" d="M64.1,69.5h-4.6V53.9c0-3.1,1.5-4.6,4.5-4.6h5.7c3,0,4.5,1.5,4.5,4.6v4.9c0,2.8-1.3,4.3-3.8,4.6l5.1,6.1h-5.7
		l-4.8-6.1h-0.8V69.5z M65.2,53.5c-0.4,0-0.7,0.1-0.9,0.3c-0.2,0.2-0.2,0.4-0.2,0.7v4.8h4.4c0.4,0,0.7-0.1,0.9-0.3
		c0.2-0.2,0.2-0.4,0.2-0.7v-3.8c0-0.3-0.1-0.6-0.2-0.7c-0.2-0.2-0.4-0.3-0.9-0.3H65.2z"/>
	<path class="st3" d="M82.5,49.3v15c0,0.3,0.1,0.6,0.2,0.7c0.2,0.2,0.4,0.3,0.9,0.3h3.5c0.4,0,0.7-0.1,0.9-0.3
		c0.2-0.2,0.2-0.4,0.2-0.7v-15h4.5v15.5c0,3.1-1.5,4.6-4.5,4.6h-5.7c-3,0-4.5-1.5-4.5-4.6V49.3H82.5z"/>
	<path class="st3" d="M101.1,64.1v5.4h-4.6v-5.4 M96.5,64.1V51.8c0-0.8,0.2-1.4,0.5-1.8c0.3-0.4,1-0.6,1.9-0.6h0.9
		c0.6,0,1,0.1,1.3,0.3c0.3,0.2,0.6,0.5,0.9,0.8l3.6,4.3l3.6-4.3c0.3-0.3,0.6-0.6,0.9-0.8c0.3-0.2,0.8-0.3,1.3-0.3h0.9
		c0.9,0,1.6,0.2,1.9,0.6c0.3,0.4,0.5,1,0.5,1.8v17.7h-4.6V55.6l-4.6,5.3l-4.6-5.3v8.5"/>
</g>
</svg>
