<?xml version="1.0" encoding="utf-8"?>
<!-- Generator: Adobe Illustrator 26.5.0, SVG Export Plug-In . SVG Version: 6.00 Build 0)  -->
<svg version="1.1" id="katman_1" xmlns="http://www.w3.org/2000/svg" xmlns:xlink="http://www.w3.org/1999/xlink" x="0px" y="0px"
	 viewBox="0 0 67 67" style="enable-background:new 0 0 67 67;" xml:space="preserve">
<style type="text/css">
	.st0{fill:#4BC0EC;}
	.st1{fill:#3C3C3B;}
	.st2{fill:#EFA100;}
</style>
<g>
	<path class="st0" d="M53.6,64.8c-0.8,0.1-1.4,0.2-2.1,0.2c-1.3,0.1-2.6,0.1-3.9,0.1c-8.9,0-11.9,0-20.8,0c-2.6,0-4.4,0-7,0
		c-2.5,0-4.9-0.2-7.2-0.9C6.5,62.7,3,59,1.4,53.1c-0.6-2.6-0.8-5.2-0.8-7.9c0-6.9,0-13.7,0-20.6c0-1.5,0-3.1,0.1-4.6
		c0.5-7.1,3.8-12.3,10-15.8C13.5,2.6,16.6,2,19.8,2c3.9,0,6.8-0.1,10.7-0.1c5.9,0,6.3,0,12.3,0.1c2.3,0,4.5,0.1,6.8,0.2
		c1.9,0.1,3.7,0.5,5.6,1.1c3.7,1.2,6,3.7,7.2,7.3c0.6,1.9,0.8,3.8,1.1,5.8c0.1,1.8,0.1,5.5,0.1,5.5c0,1.2-1,2.1-1.4,2.4
		C53.9,30.6,48.5,35,40.5,41.4c-1.2,1.1-2.1,1.2-3,1.1c-1.1-0.2-1.9-0.7-2.7-1.4c-2.3-2.1-4.6-4.1-7-6.2c-2.3-2-4.4-3.9-6.6-5.9
		c-0.4-0.4-0.7-0.7-1.1-1.2c0.1-0.4,0.2-0.6,0.5-0.9c0.7,0,1.3,0,1.9,0c6,0,12.1,0.1,18.1,0.1c1.2,0,2.4,0,3.6,0c3,0,5.5-2,6.2-5
		c0.6-2.7-0.7-5.5-3.2-6.5c-1.1-0.5-2.3-0.7-3.4-0.7c-1.5,0-3.2,0-4.7,0c-4.9,0-4,0-9,0c-2.7,0-4.6,0-7.3,0.1
		c-1.2,0-2.4,0.2-3.6,0.5c-2.7,0.6-4.5,2.4-5.1,5.1c-0.4,1.4-0.5,2.7-0.5,4.1c0,6.3,0,12.7,0,19c0,1.1,0.1,2.3,0.4,3.3
		c0.6,2.8,2.5,4.5,5.3,5.1c1.1,0.2,2.1,0.4,3.2,0.4c6.6,0,6.6,0,13.4,0c1.7,0,3.2,0,4.9,0.1c0.9,0,1.8,0.4,2.5,1.2
		c3.4,3.7,6.8,7.2,10.2,10.9C53.3,64.5,53.4,64.7,53.6,64.8z"/>
	<path class="st1" d="M50.5,44.4L50.5,44.4c-1.8-2.3-1.5-5.6,0.8-7.4l6.5-5.3c2.3-1.8,5.6-1.5,7.4,0.8l0,0c1.8,2.3,1.5,5.6-0.8,7.4
		l-6.5,5.3C55.7,47,52.3,46.7,50.5,44.4z"/>
	<path class="st2" d="M56.5,32.7c-0.4,0.9-1,2.1-1.3,3.4c-1.1,4-0.3,7.5,2.3,10.7c2.8,3.4,3.7,4.7,6.5,8.1c2.2,2.7,2,6.2-0.5,8.3
		c-2.5,2.1-6,1.8-8.3-0.9c-4.1-4.8-6.3-7.6-10.3-12.4c-2-2.4-2.2-5.7-0.1-7.6C48.7,38.9,52.8,35.7,56.5,32.7z"/>
</g>
</svg>
