<?xml version="1.0" encoding="utf-8"?>
<!-- Generator: Adobe Illustrator 26.5.0, SVG Export Plug-In . SVG Version: 6.00 Build 0)  -->
<svg version="1.1" id="katman_1" xmlns="http://www.w3.org/2000/svg" xmlns:xlink="http://www.w3.org/1999/xlink" x="0px" y="0px"
	 viewBox="0 0 136 92" style="enable-background:new 0 0 136 92;" xml:space="preserve">
<style type="text/css">
	.st0{fill:#FFFFFF;stroke:#FFFFFF;stroke-miterlimit:10;}
	.st1{fill:#5DCFFF;}
	.st2{fill:#FFFFFF;}
	.st3{fill:#EFA100;}
</style>
<g>
	<path class="st0" d="M21.4,67.9h13V70H23.7v4.2h10.4v2.1H23.7v4.2h10.6v2.1h-13L21.4,67.9L21.4,67.9z"/>
	<path class="st0" d="M36.9,67.9h2.4v9.8l9.6-9.8h3l-4.4,4.5L52,82.7h-2.6l-3.7-8.5l-6.4,6.6v1.9h-2.4
		C36.9,82.7,36.9,67.9,36.9,67.9z"/>
	<path class="st0" d="M53.4,76.4v-8.5h2.4v8.7c0,2.3,1.7,4.1,4.1,4.1c2.3,0,4.1-1.8,4.1-4.1v-8.7h2.4v8.5c0,3.9-3,6.5-6.6,6.5
		C56.2,82.9,53.4,80.3,53.4,76.4z"/>
	<path class="st0" d="M69,67.9h8.7c2.6,0,4.3,1.9,4.3,4.2c0,1.8-1.1,3.4-2.7,4l2.7,6.6h-2.5l-2.6-6.3h-5.4v6.3H69V67.9z M77.5,74.2
		c1.3,0,2.1-0.9,2.1-2.1c0-1.3-0.9-2.1-2.1-2.1h-6.1v4.2H77.5z"/>
	<path class="st0" d="M84,76.4v-8.5h2.4v8.7c0,2.3,1.7,4.1,4.1,4.1c2.3,0,4.1-1.8,4.1-4.1v-8.7H97v8.5c0,3.9-3,6.5-6.6,6.5
		S84,80.3,84,76.4z"/>
	<path class="st0" d="M99.6,67.9h1.6l5.9,5.9l5.9-5.9h1.6v14.8h-2.4V71.8l-5.2,5l-5.2-5v10.9h-2.4V67.9H99.6z"/>
</g>
<path class="st1" d="M84.9,58.6c-0.7,0.1-1.2,0.2-1.8,0.2c-1.1,0.1-2.2,0.1-3.3,0.1c-7.5,0-10,0-17.5,0c-2.2,0-3.7,0-5.9,0
	c-2.1,0-4.1-0.2-6.1-0.8c-5.1-1.3-8.1-4.4-9.4-9.3c-0.5-2.2-0.7-4.4-0.7-6.6c0-5.8,0-11.5,0-17.3c0-1.3,0-2.6,0.1-3.9
	c0.4-6,3.2-10.3,8.4-13.3c2.4-1.3,5-1.8,7.7-1.8c3.3,0,5.7-0.1,9-0.1c5,0,5.3,0,10.3,0.1c1.9,0,3.8,0.1,5.7,0.2
	C83,6.2,84.5,6.5,86.1,7c3.1,1,5,3.1,6.1,6.1c0.5,1.6,0.7,3.2,0.9,4.9c0.1,1.5,0.1,4.6,0.1,4.6c0,1-0.8,1.8-1.2,2
	c-7,5.3-11.5,9-18.2,14.4c-1,0.9-1.8,1-2.5,0.9c-0.9-0.2-1.6-0.6-2.3-1.2c-1.9-1.8-3.9-3.4-5.9-5.2c-1.9-1.7-3.7-3.3-5.5-5
	c-0.3-0.3-0.6-0.6-0.9-1c0.1-0.3,0.2-0.5,0.4-0.8c0.6,0,1.1,0,1.6,0c5,0,10.2,0.1,15.2,0.1c1,0,2,0,3,0c2.5,0,4.6-1.7,5.2-4.2
	c0.5-2.3-0.6-4.6-2.7-5.5c-0.9-0.4-1.9-0.6-2.9-0.6c-1.3,0-2.7,0-4,0c-4.1,0-3.4,0-7.6,0c-2.3,0-3.9,0-6.1,0.1c-1,0-2,0.2-3,0.4
	c-2.3,0.5-3.8,2-4.3,4.3c-0.3,1.2-0.4,2.3-0.4,3.4c0,5.3,0,10.7,0,16c0,0.9,0.1,1.9,0.3,2.8c0.5,2.4,2.1,3.8,4.5,4.3
	c0.9,0.2,1.8,0.3,2.7,0.3c5.5,0,5.5,0,11.3,0c1.4,0,2.7,0,4.1,0.1c0.8,0,1.5,0.3,2.1,1c2.9,3.1,5.7,6.1,8.6,9.2
	C84.7,58.4,84.7,58.6,84.9,58.6z"/>
<path class="st2" d="M82.3,41.5L82.3,41.5c-1.5-1.9-1.3-4.7,0.7-6.2l5.5-4.5c1.9-1.5,4.7-1.3,6.2,0.7l0,0c1.5,1.9,1.3,4.7-0.7,6.2
	l-5.5,4.5C86.7,43.7,83.8,43.4,82.3,41.5z"/>
<path class="st3" d="M87.4,31.7c-0.3,0.8-0.8,1.8-1.1,2.9c-0.9,3.4-0.3,6.3,1.9,9c2.4,2.9,3.1,4,5.5,6.8c1.8,2.3,1.7,5.2-0.4,7
	s-5,1.5-7-0.8c-3.4-4-5.3-6.4-8.7-10.4c-1.7-2-1.8-4.8-0.1-6.4C80.8,36.9,84.2,34.2,87.4,31.7z"/>
</svg>
