<?xml version="1.0" encoding="utf-8"?>
<!-- Generator: Adobe Illustrator 26.5.0, SVG Export Plug-In . SVG Version: 6.00 Build 0)  -->
<svg version="1.1" id="katman_1" xmlns="http://www.w3.org/2000/svg" xmlns:xlink="http://www.w3.org/1999/xlink" x="0px" y="0px"
	 viewBox="0 0 1404 479" style="enable-background:new 0 0 1404 479;" xml:space="preserve">
<style type="text/css">
	.st0{fill:#303636;}
</style>
<g>
	<path class="st0" d="M89.7,391.1c-0.4,0-0.7,0.1-1.1,0.2c-0.3-1.9-2-3.4-4-3.4c-0.7,0-1.3,0.2-1.8,0.4c-0.7-1-2-1.7-3.3-1.7
		c-0.4,0-0.7,0-1,0.1v-4.6c0-2.3-1.8-4.1-4.1-4.1c-2.3,0-4.1,1.8-4.1,4.1v10.4c0,0-0.1,0-0.1,0.1l-2.3,1.3c-2.2,1.2-3.1,3.9-2.1,6.2
		l1.7,4c0.1,0.2,0.2,0.4,0.4,0.5l3.9,3.5c0.7,1.2,1.5,2.3,2.6,3.2l0,3.2c0,0.8,0.7,1.5,1.5,1.5h12.5c0.8,0,1.5-0.7,1.5-1.5l0-3.2
		c2.6-2.2,4-5.4,4-8.9v-7.2C93.8,393,91.9,391.1,89.7,391.1z M70,402.5l-1.6-3.7c-0.4-0.8,0-1.8,0.8-2.2l1-0.5v6.3
		c0,0.1,0,0.2,0,0.2L70,402.5z M90.7,402.4c0,2.8-1.3,5.3-3.4,7c-0.4,0.3-0.6,0.7-0.6,1.2l0,2.4h-9.4l0-2.4c0-0.5-0.2-0.9-0.6-1.2
		c-2.2-1.7-3.4-4.2-3.4-7v-20.2c0-0.6,0.5-1,1-1c0.6,0,1,0.5,1,1v14.7c0,0.8,0.7,1.5,1.5,1.5c0.8,0,1.5-0.7,1.5-1.5v-6.2
		c0-0.6,0.5-1,1-1c0.6,0,1,0.5,1,1v6.3c0,0.8,0.7,1.5,1.5,1.5s1.5-0.7,1.5-1.5V392c0-0.6,0.5-1,1-1c0.6,0,1,0.5,1,1v3.3v1.7
		c0,0.8,0.7,1.5,1.5,1.5c0.8,0,1.5-0.7,1.5-1.5v-1.7c0-0.6,0.5-1,1-1s1,0.5,1,1V402.4z"/>
	<circle class="st0" cx="52.6" cy="372.8" r="2.5"/>
	<circle class="st0" cx="63.5" cy="372.8" r="2.5"/>
	<circle class="st0" cx="74.4" cy="372.8" r="2.5"/>
	<circle class="st0" cx="52.6" cy="381.2" r="2.5"/>
	<circle class="st0" cx="63.5" cy="381.2" r="2.5"/>
	<circle class="st0" cx="52.6" cy="389.6" r="2.5"/>
	<circle class="st0" cx="63.5" cy="389.6" r="2.5"/>
</g>
<g>
	<path class="st0" d="M343.6,76.6c-0.4,0-0.7,0.1-1.1,0.2c-0.3-1.9-2-3.4-4-3.4c-0.7,0-1.3,0.2-1.8,0.4c-0.7-1-2-1.7-3.3-1.7
		c-0.4,0-0.7,0-1,0.1v-4.6c0-2.3-1.8-4.1-4.1-4.1s-4.1,1.8-4.1,4.1v10.4c0,0-0.1,0-0.1,0.1l-2.3,1.3c-2.2,1.2-3.1,3.9-2.1,6.2l1.7,4
		c0.1,0.2,0.2,0.4,0.4,0.5l3.9,3.5c0.7,1.2,1.5,2.3,2.6,3.2l0,3.2c0,0.8,0.7,1.5,1.5,1.5h12.5c0.8,0,1.5-0.7,1.5-1.5l0-3.2
		c2.6-2.2,4-5.4,4-8.9v-7.2C347.7,78.5,345.9,76.6,343.6,76.6z M324,88l-1.6-3.7c-0.4-0.8,0-1.8,0.8-2.2l1-0.5v6.3
		c0,0.1,0,0.2,0,0.2L324,88z M344.7,87.9c0,2.8-1.3,5.3-3.4,7c-0.4,0.3-0.6,0.7-0.6,1.2l0,2.4h-9.4l0-2.4c0-0.5-0.2-0.9-0.6-1.2
		c-2.2-1.7-3.4-4.2-3.4-7V67.7c0-0.6,0.5-1,1-1s1,0.5,1,1v14.7c0,0.8,0.7,1.5,1.5,1.5s1.5-0.7,1.5-1.5v-6.2c0-0.6,0.5-1,1-1
		c0.6,0,1,0.5,1,1v6.3c0,0.8,0.7,1.5,1.5,1.5c0.8,0,1.5-0.7,1.5-1.5v-5.1c0-0.6,0.5-1,1-1s1,0.5,1,1v3.3v1.7c0,0.8,0.7,1.5,1.5,1.5
		s1.5-0.7,1.5-1.5v-1.7c0-0.6,0.5-1,1-1s1,0.5,1,1V87.9z"/>
	<circle class="st0" cx="306.6" cy="58.3" r="2.5"/>
	<circle class="st0" cx="317.5" cy="58.3" r="2.5"/>
	<circle class="st0" cx="328.3" cy="58.3" r="2.5"/>
	<circle class="st0" cx="306.6" cy="66.7" r="2.5"/>
	<circle class="st0" cx="317.5" cy="66.7" r="2.5"/>
	<circle class="st0" cx="306.6" cy="75.1" r="2.5"/>
	<circle class="st0" cx="317.5" cy="75.1" r="2.5"/>
</g>
<path class="st0" d="M148.5,260.9c-0.2,0-0.3,0.2-0.3,0.3v3.5c0,0.2,0.2,0.3,0.3,0.3h3.5c0.2,0,0.3-0.2,0.3-0.3v-3.5
	c0-0.2-0.2-0.3-0.3-0.3H148.5z M148.2,285.8v-1c0-0.6,0.5-1,1-1s1,0.5,1,1v1h2.1v-1c0-0.6,0.5-1,1-1c0.6,0,1,0.5,1,1v2.1
	c0,0.6-0.5,1-1,1H145c-0.6,0-1-0.5-1-1v-2.1c0-0.6,0.5-1,1-1s1,0.5,1,1v1H148.2L148.2,285.8z M141.9,271.3h1c0.6,0,1,0.5,1,1
	s-0.5,1-1,1h-4.2c-0.6,0-1-0.5-1-1s0.5-1,1-1h1v-2.1h-3.1c-0.6,0-1-0.5-1-1c0-0.6,0.5-1,1-1h6.2c0.6,0,1,0.5,1,1c0,0.6-0.5,1-1,1h-1
	V271.3z M152.3,273.4h-1c-0.6,0-1-0.5-1-1s0.5-1,1-1h1v-1c0-0.6,0.5-1,1-1c0.6,0,1,0.5,1,1v4.1c0,0.6-0.5,1-1,1c-0.6,0-1-0.5-1-1
	V273.4z M141.9,277.5h-1c-0.6,0-1-0.5-1-1s0.5-1,1-1h2.1c0.6,0,1,0.5,1,1v4.1c0,0.6-0.5,1-1,1h-6.2c-0.6,0-1-0.5-1-1s0.5-1,1-1h5.2
	V277.5L141.9,277.5z M148.5,258.8h3.5c1.3,0,2.4,1.1,2.4,2.4v3.5c0,1.3-1.1,2.4-2.4,2.4h-3.5c-1.3,0-2.4-1.1-2.4-2.4v-3.5
	C146.1,259.9,147.2,258.8,148.5,258.8z M127.7,258.8h3.5c1.3,0,2.4,1.1,2.4,2.4v3.5c0,1.3-1.1,2.4-2.4,2.4h-3.5
	c-1.3,0-2.4-1.1-2.4-2.4v-3.5C125.3,259.9,126.4,258.8,127.7,258.8z M127.7,260.9c-0.2,0-0.3,0.2-0.3,0.3v3.5c0,0.2,0.2,0.3,0.3,0.3
	h3.5c0.2,0,0.3-0.2,0.3-0.3v-3.5c0-0.2-0.2-0.3-0.3-0.3H127.7z M127.7,279.6h3.5c1.3,0,2.4,1.1,2.4,2.4v3.5c0,1.3-1.1,2.4-2.4,2.4
	h-3.5c-1.3,0-2.4-1.1-2.4-2.4V282C125.3,280.7,126.4,279.6,127.7,279.6z M127.7,281.7c-0.2,0-0.3,0.2-0.3,0.3v3.5
	c0,0.2,0.2,0.3,0.3,0.3h3.5c0.2,0,0.3-0.2,0.3-0.3V282c0-0.2-0.2-0.3-0.3-0.3H127.7z M141.9,260.9h-5.2c-0.6,0-1-0.5-1-1s0.5-1,1-1
	h6.2c0.6,0,1,0.5,1,1v4.1c0,0.6-0.5,1-1,1c-0.6,0-1-0.5-1-1V260.9z M136.7,265.1c-0.6,0-1-0.5-1-1s0.5-1,1-1h2.1c0.6,0,1,0.5,1,1
	s-0.5,1-1,1H136.7z M126.4,277.5c-0.6,0-1-0.5-1-1s0.5-1,1-1h4.1c0.6,0,1,0.5,1,1s-0.5,1-1,1H126.4z M134.7,277.5c-0.6,0-1-0.5-1-1
	s0.5-1,1-1h2.1c0.6,0,1,0.5,1,1s-0.5,1-1,1H134.7z M137.8,285.8v1c0,0.6-0.5,1-1,1s-1-0.5-1-1v-2.1c0-0.6,0.5-1,1-1h4.1
	c0.6,0,1,0.5,1,1s-0.5,1-1,1H137.8z M133.6,271.3h1c0.6,0,1,0.5,1,1s-0.5,1-1,1h-2.1c-0.6,0-1-0.5-1-1v-1h-1c-0.6,0-1-0.5-1-1
	s0.5-1,1-1h2.1c0.6,0,1,0.5,1,1V271.3z M125.3,270.2c0-0.6,0.5-1,1-1s1,0.5,1,1v2.1c0,0.6-0.5,1-1,1s-1-0.5-1-1V270.2z M146.1,270.2
	c0-0.6,0.5-1,1-1s1,0.5,1,1v4.1c0,0.6-0.5,1-1,1s-1-0.5-1-1V270.2z M150.2,279.6v-1c0-0.6,0.5-1,1-1h2.1c0.6,0,1,0.5,1,1
	c0,0.6-0.5,1-1,1h-1v1c0,0.6-0.5,1-1,1h-4.1c-0.6,0-1-0.5-1-1v-2.1c0-0.6,0.5-1,1-1s1,0.5,1,1v1H150.2z M121.2,261.9
	c0,0.6-0.5,1-1,1c-0.6,0-1-0.5-1-1v-4.1c0-2.9,2.3-5.2,5.2-5.2h4.2c0.6,0,1,0.5,1,1s-0.5,1-1,1h-4.2c-1.7,0-3.1,1.4-3.1,3.1V261.9z
	 M151.3,254.7c-0.6,0-1-0.5-1-1s0.5-1,1-1h4.2c2.9,0,5.2,2.3,5.2,5.2v4.1c0,0.6-0.5,1-1,1s-1-0.5-1-1v-4.1c0-1.7-1.4-3.1-3.1-3.1
	H151.3z M128.4,292c0.6,0,1,0.5,1,1s-0.5,1-1,1h-4.2c-2.9,0-5.2-2.3-5.2-5.2v-4.2c0-0.6,0.5-1,1-1c0.6,0,1,0.5,1,1v4.2
	c0,1.7,1.4,3.1,3.1,3.1H128.4z M158.5,284.8c0-0.6,0.5-1,1-1s1,0.5,1,1v4.2c0,2.9-2.3,5.2-5.2,5.2h-4.2c-0.6,0-1-0.5-1-1s0.5-1,1-1
	h4.2c1.7,0,3.1-1.4,3.1-3.1V284.8z"/>
<path class="st0" d="M501.8,55.9c-0.1,0-0.3,0.1-0.3,0.3v2.6c0,0.1,0.1,0.3,0.3,0.3h2.6c0.1,0,0.3-0.1,0.3-0.3v-2.6
	c0-0.1-0.1-0.3-0.3-0.3H501.8z M501.6,74.6v-0.8c0-0.4,0.3-0.8,0.8-0.8s0.8,0.3,0.8,0.8v0.8h1.6v-0.8c0-0.4,0.3-0.8,0.8-0.8
	s0.8,0.3,0.8,0.8v1.6c0,0.4-0.3,0.8-0.8,0.8h-6.2c-0.4,0-0.8-0.3-0.8-0.8v-1.6c0-0.4,0.3-0.8,0.8-0.8s0.8,0.3,0.8,0.8v0.8H501.6
	L501.6,74.6z M496.9,63.7h0.8c0.4,0,0.8,0.3,0.8,0.8s-0.3,0.8-0.8,0.8h-3.1c-0.4,0-0.8-0.3-0.8-0.8s0.3-0.8,0.8-0.8h0.8v-1.6H493
	c-0.4,0-0.8-0.3-0.8-0.8s0.3-0.8,0.8-0.8h4.7c0.4,0,0.8,0.3,0.8,0.8s-0.3,0.8-0.8,0.8h-0.8V63.7z M504.7,65.2h-0.8
	c-0.4,0-0.8-0.3-0.8-0.8s0.3-0.8,0.8-0.8h0.8v-0.8c0-0.4,0.3-0.8,0.8-0.8s0.8,0.3,0.8,0.8V66c0,0.4-0.3,0.8-0.8,0.8
	s-0.8-0.3-0.8-0.8V65.2z M496.9,68.3h-0.8c-0.4,0-0.8-0.3-0.8-0.8c0-0.4,0.3-0.8,0.8-0.8h1.6c0.4,0,0.8,0.3,0.8,0.8v3.1
	c0,0.4-0.3,0.8-0.8,0.8H493c-0.4,0-0.8-0.3-0.8-0.8c0-0.4,0.3-0.8,0.8-0.8h3.9V68.3L496.9,68.3z M501.8,54.3h2.6
	c1,0,1.8,0.8,1.8,1.8v2.6c0,1-0.8,1.8-1.8,1.8h-2.6c-1,0-1.8-0.8-1.8-1.8v-2.6C500,55.1,500.8,54.3,501.8,54.3z M486.3,54.3h2.6
	c1,0,1.8,0.8,1.8,1.8v2.6c0,1-0.8,1.8-1.8,1.8h-2.6c-1,0-1.8-0.8-1.8-1.8v-2.6C484.5,55.1,485.3,54.3,486.3,54.3z M486.3,55.9
	c-0.1,0-0.3,0.1-0.3,0.3v2.6c0,0.1,0.1,0.3,0.3,0.3h2.6c0.1,0,0.3-0.1,0.3-0.3v-2.6c0-0.1-0.1-0.3-0.3-0.3H486.3z M486.3,69.9h2.6
	c1,0,1.8,0.8,1.8,1.8v2.6c0,1-0.8,1.8-1.8,1.8h-2.6c-1,0-1.8-0.8-1.8-1.8v-2.6C484.5,70.7,485.3,69.9,486.3,69.9z M486.3,71.4
	c-0.1,0-0.3,0.1-0.3,0.3v2.6c0,0.1,0.1,0.3,0.3,0.3h2.6c0.1,0,0.3-0.1,0.3-0.3v-2.6c0-0.1-0.1-0.3-0.3-0.3H486.3z M496.9,55.9H493
	c-0.4,0-0.8-0.3-0.8-0.8c0-0.4,0.3-0.8,0.8-0.8h4.7c0.4,0,0.8,0.3,0.8,0.8v3.1c0,0.4-0.3,0.8-0.8,0.8s-0.8-0.3-0.8-0.8V55.9z
	 M493,59c-0.4,0-0.8-0.3-0.8-0.8c0-0.4,0.3-0.8,0.8-0.8h1.6c0.4,0,0.8,0.3,0.8,0.8c0,0.4-0.3,0.8-0.8,0.8H493z M485.2,68.3
	c-0.4,0-0.8-0.3-0.8-0.8c0-0.4,0.3-0.8,0.8-0.8h3.1c0.4,0,0.8,0.3,0.8,0.8c0,0.4-0.3,0.8-0.8,0.8H485.2z M491.5,68.3
	c-0.4,0-0.8-0.3-0.8-0.8c0-0.4,0.3-0.8,0.8-0.8h1.6c0.4,0,0.8,0.3,0.8,0.8c0,0.4-0.3,0.8-0.8,0.8H491.5z M493.8,74.6v0.8
	c0,0.4-0.3,0.8-0.8,0.8s-0.8-0.3-0.8-0.8v-1.6c0-0.4,0.3-0.8,0.8-0.8h3.1c0.4,0,0.8,0.3,0.8,0.8s-0.3,0.8-0.8,0.8H493.8z
	 M490.7,63.7h0.8c0.4,0,0.8,0.3,0.8,0.8s-0.3,0.8-0.8,0.8h-1.6c-0.4,0-0.8-0.3-0.8-0.8v-0.8h-0.8c-0.4,0-0.8-0.3-0.8-0.8
	c0-0.4,0.3-0.8,0.8-0.8h1.6c0.4,0,0.8,0.3,0.8,0.8V63.7z M484.5,62.9c0-0.4,0.3-0.8,0.8-0.8s0.8,0.3,0.8,0.8v1.6
	c0,0.4-0.3,0.8-0.8,0.8s-0.8-0.3-0.8-0.8V62.9z M500,62.9c0-0.4,0.3-0.8,0.8-0.8s0.8,0.3,0.8,0.8V66c0,0.4-0.3,0.8-0.8,0.8
	S500,66.4,500,66V62.9z M503.1,69.9v-0.8c0-0.4,0.3-0.8,0.8-0.8h1.6c0.4,0,0.8,0.3,0.8,0.8c0,0.4-0.3,0.8-0.8,0.8h-0.8v0.8
	c0,0.4-0.3,0.8-0.8,0.8h-3.1c-0.4,0-0.8-0.3-0.8-0.8v-1.6c0-0.4,0.3-0.8,0.8-0.8s0.8,0.3,0.8,0.8v0.8H503.1z M481.3,56.7
	c0,0.4-0.3,0.8-0.8,0.8c-0.4,0-0.8-0.3-0.8-0.8v-3.1c0-2.1,1.7-3.9,3.9-3.9h3.1c0.4,0,0.8,0.3,0.8,0.8c0,0.4-0.3,0.8-0.8,0.8h-3.1
	c-1.3,0-2.3,1-2.3,2.3V56.7z M503.9,51.2c-0.4,0-0.8-0.3-0.8-0.8c0-0.4,0.3-0.8,0.8-0.8h3.1c2.1,0,3.9,1.7,3.9,3.9v3.1
	c0,0.4-0.3,0.8-0.8,0.8s-0.8-0.3-0.8-0.8v-3.1c0-1.3-1-2.3-2.3-2.3H503.9z M486.8,79.2c0.4,0,0.8,0.3,0.8,0.8s-0.3,0.8-0.8,0.8h-3.1
	c-2.1,0-3.9-1.7-3.9-3.9v-3.1c0-0.4,0.3-0.8,0.8-0.8c0.4,0,0.8,0.3,0.8,0.8v3.1c0,1.3,1,2.3,2.3,2.3H486.8z M509.4,73.8
	c0-0.4,0.3-0.8,0.8-0.8s0.8,0.3,0.8,0.8v3.1c0,2.1-1.7,3.9-3.9,3.9h-3.1c-0.4,0-0.8-0.3-0.8-0.8s0.3-0.8,0.8-0.8h3.1
	c1.3,0,2.3-1,2.3-2.3V73.8z"/>
<path class="st0" d="M250.4,381.3L250.4,381.3L250.4,381.3l-14.8-8.5l-14.8,8.5h0l0.1,0l-12.2,7v31.2l27,15.6l27-15.6v-31.2
	L250.4,381.3z M233.4,428.8l-10.7-6.2v-10.5l-9.7-5.5v-13.1l20.4,11.8V428.8z M215.1,389.6l10.1-5.8l10.4,6l10.4-6l10.1,5.8
	l-20.5,11.8L215.1,389.6L215.1,389.6z M258.3,406.6l-9.7,5.5v10.4l-10.8,6.2v-23.5l20.4-11.8V406.6z"/>
<g>
	<path class="st0" d="M404.4,195.6c0,0.9,0.7,1.6,1.6,1.6c0.9,0,1.6-0.7,1.6-1.6v-12.8c0-0.7-0.4-1.3-1-1.5
		c-0.6-0.3-1.3-0.1-1.8,0.4l-4.2,4.2c-0.6,0.6-0.6,1.7,0,2.3c0.6,0.6,1.7,0.6,2.3,0l1.4-1.4V195.6z"/>
	<path class="st0" d="M414,167.2l1.4-1.4v8.8c0,0.9,0.7,1.6,1.6,1.6s1.6-0.7,1.6-1.6v-12.8c0-0.7-0.4-1.3-1-1.5
		c-0.6-0.3-1.3-0.1-1.8,0.4l-4.2,4.2c-0.6,0.6-0.6,1.7,0,2.3C412.4,167.8,413.4,167.8,414,167.2z"/>
	<path class="st0" d="M432.7,181.2c-0.6-0.3-1.3-0.1-1.8,0.4l-4.2,4.2c-0.6,0.6-0.6,1.7,0,2.3c0.6,0.6,1.7,0.6,2.3,0l1.4-1.4v8.8
		c0,0.9,0.7,1.6,1.6,1.6s1.6-0.7,1.6-1.6v-12.8C433.7,182.1,433.3,181.5,432.7,181.2z"/>
	<path class="st0" d="M425.6,201.4c-0.6-0.3-1.3-0.1-1.8,0.4l-4.2,4.2c-0.6,0.6-0.6,1.7,0,2.3c0.6,0.6,1.7,0.6,2.3,0l1.4-1.4v4.8
		c0,0.9,0.7,1.6,1.6,1.6s1.6-0.7,1.6-1.6v-8.8C426.6,202.2,426.2,201.7,425.6,201.4z"/>
	<path class="st0" d="M422.8,191.6v-4.8c0-3.1-2.5-5.6-5.6-5.6h-0.1c-3.1,0-5.6,2.5-5.6,5.6v4.8c0,3.1,2.5,5.6,5.6,5.6h0.1
		C420.3,197.2,422.8,194.7,422.8,191.6z M419.5,191.6c0,1.3-1.1,2.4-2.4,2.4h-0.1c-1.3,0-2.4-1.1-2.4-2.4v-4.8
		c0-1.3,1.1-2.4,2.4-2.4h0.1c1.3,0,2.4,1.1,2.4,2.4V191.6z"/>
	<path class="st0" d="M443.4,181.1L443.4,181.1c-3.2,0-5.7,2.5-5.7,5.6v4.8c0,3.1,2.5,5.6,5.6,5.6h0.1c3.1,0,5.6-2.5,5.6-5.6v-4.8
		C449,183.6,446.5,181.1,443.4,181.1z M445.7,191.6c0,1.3-1.1,2.4-2.4,2.4h-0.1c-1.3,0-2.4-1.1-2.4-2.4v-4.8c0-1.3,1.1-2.4,2.4-2.4
		h0.1c1.3,0,2.4,1.1,2.4,2.4V191.6z"/>
	<path class="st0" d="M428.2,160.2L428.2,160.2c-3.2,0-5.7,2.5-5.7,5.6v4.8c0,3.1,2.5,5.6,5.6,5.6h0.1c0.9,0,1.6-0.7,1.6-1.6
		s-0.7-1.6-1.6-1.6h-0.1c-1.3,0-2.4-1.1-2.4-2.4v-4.8c0-1.3,1.1-2.4,2.4-2.4h0.1c1.3,0,2.4,1.1,2.4,2.4c0,0.9,0.7,1.6,1.6,1.6
		s1.6-0.7,1.6-1.6C433.8,162.8,431.3,160.2,428.2,160.2z"/>
	<path class="st0" d="M443.4,160.2L443.4,160.2c-3.2,0-5.7,2.5-5.7,5.6v4.8c0,3.1,2.5,5.6,5.6,5.6h0.1c3.1,0,5.6-2.5,5.6-5.6v-4.8
		C449,162.8,446.5,160.2,443.4,160.2z M445.7,170.7c0,1.3-1.1,2.4-2.4,2.4h-0.1c-1.3,0-2.4-1.1-2.4-2.4v-4.8c0-1.3,1.1-2.4,2.4-2.4
		h0.1c1.3,0,2.4,1.1,2.4,2.4V170.7z"/>
	<path class="st0" d="M409.5,201.3L409.5,201.3c-3.2,0-5.7,2.5-5.7,5.6v4.8c0,3.1,2.5,5.6,5.6,5.6h0.1c3.1,0,5.6-2.5,5.6-5.6v-4.8
		C415.2,203.8,412.6,201.3,409.5,201.3z M411.9,211.7c0,1.3-1.1,2.4-2.4,2.4h-0.1c-1.3,0-2.4-1.1-2.4-2.4v-4.8
		c0-1.3,1.1-2.4,2.4-2.4h0.1c1.3,0,2.4,1.1,2.4,2.4V211.7z"/>
</g>
<g>
	<g>
		<rect x="45.3" y="132.4" class="st0" width="30.9" height="3.8"/>
	</g>
	<g>
		<path class="st0" d="M84.3,161.1c-1.4-1.8-3.5-3.1-6.2-3.9v-26.3c0-3.1-2.5-5.7-5.7-5.7H49.1c-3.1,0-5.7,2.5-5.7,5.7v22.7h-1.6
			c-3.1,0-5.7,2.5-5.7,5.7v0.3c0,1.1,0.3,2.1,0.9,3c-1.4,1-2.3,2.7-2.3,4.5v0.3c0,1.9,0.9,3.5,2.3,4.5c-0.5,0.9-0.9,1.9-0.9,3v0.3
			c0,3.1,2.5,5.7,5.7,5.7h1.6c0.1,2.2,1.4,4.1,3.3,4.9c0.2,2,0.8,5.7,2.8,8.6c0.4,0.5,1,0.8,1.5,0.8c0.4,0,0.7-0.1,1.1-0.3
			c0.9-0.6,1.1-1.8,0.5-2.6c-1.3-1.8-1.8-4.3-2-5.9h15.6c0.1,0.1,0.1,0.2,0.2,0.2c0.6,0.9,1.8,1.1,2.6,0.5c0.9-0.6,1.1-1.8,0.5-2.6
			c-2.2-3.2-1.7-6.8,1.8-10.8c0.6-0.5,2.3-2.2,2.1-4.5c-0.2-1.8-1.3-3.2-3.5-4.4c-0.1,0-0.1-0.1-0.2-0.1c-0.1,0-2.2-0.9-1.8-3
			c0.2-1.3,2.8-1.6,4.5-1.4c4.4,0.3,7.5,1.5,9,3.4c1.1,1.4,1.4,3.1,1.1,5.4c-0.1,0.5-0.2,1-0.2,1.5c-1.1,7-2.4,15.7-9.4,21.6
			c-0.8,0.7-0.9,1.9-0.2,2.7c0.4,0.4,0.9,0.7,1.4,0.7c0.4,0,0.9-0.1,1.2-0.4c8-6.8,9.6-16.7,10.7-23.9c0.1-0.5,0.2-1,0.2-1.5
			C86.7,166.1,86,163.3,84.3,161.1z M40.5,169.1c-1,0-1.9-0.8-1.9-1.9V167c0-1,0.8-1.9,1.9-1.9h1.4h1.4v4h-1.4H40.5L40.5,169.1z
			 M40,159.2c0-1,0.8-1.9,1.9-1.9h1.4v4h-1.4c-1,0-1.9-0.8-1.9-1.9V159.2z M43.3,176.9h-1.4c-1,0-1.9-0.8-1.9-1.9v-0.3
			c0-1,0.8-1.9,1.9-1.9h1.4V176.9z M49.1,182.3c-1,0-1.9-0.8-1.9-1.9v-1.6h17.2c-0.2,1.3-0.1,2.4,0.1,3.4H49.1z M64.1,160.9
			c-0.6,3.9,2.3,6.3,4.1,7c1,0.6,1.4,1.1,1.5,1.4c0,0.4-0.5,1.1-0.8,1.4c-0.1,0.1-0.2,0.2-0.3,0.2c-1.3,1.5-2.3,2.9-2.9,4.3H47.2
			v-44.3c0-1,0.8-1.9,1.9-1.9h23.3c1,0,1.9,0.8,1.9,1.9v25.6c-0.6-0.1-1.2-0.1-1.8-0.2C67.8,155.9,64.6,157.7,64.1,160.9z"/>
		<path class="st0" d="M59.3,140.9h-4.5c-0.5,0-0.9,0.4-0.9,0.9v4.5c0,0.5,0.4,0.9,0.9,0.9h4.5c0.5,0,0.9-0.4,0.9-0.9v-4.5
			C60.3,141.3,59.8,140.9,59.3,140.9z"/>
		<path class="st0" d="M58.1,152.1h-2.4v-2.3c0-0.5-0.4-0.9-0.9-0.9s-0.9,0.4-0.9,0.9v3.2c0,0.5,0.4,0.9,0.9,0.9h3.3
			c0.5,0,0.9-0.4,0.9-0.9C59,152.6,58.6,152.1,58.1,152.1z"/>
		<path class="st0" d="M66.4,140.9h-4.5c-0.5,0-0.9,0.4-0.9,0.9v4.5c0,0.5,0.4,0.9,0.9,0.9h4.5c0.5,0,0.9-0.4,0.9-0.9v-4.5
			C67.3,141.3,66.9,140.9,66.4,140.9z M65.4,145.4h-2.7v-2.7h2.7V145.4z"/>
		<path class="st0" d="M65.4,148.9h-2.7c-0.5,0-0.9,0.4-0.9,0.9v2.7c0,0.5,0.4,0.9,0.9,0.9h2.7c0.5,0,0.9-0.4,0.9-0.9v-2.7
			C66.4,149.4,66,148.9,65.4,148.9z"/>
	</g>
</g>
<g>
	<g>
		<rect x="502.8" y="277.4" class="st0" width="16.5" height="2"/>
	</g>
	<g>
		<path class="st0" d="M523.6,292.7c-0.8-0.9-1.9-1.6-3.3-2.1v-14.1c0-1.7-1.4-3-3-3h-12.5c-1.7,0-3,1.4-3,3v12.1h-0.8
			c-1.7,0-3,1.4-3,3v0.1c0,0.6,0.2,1.1,0.5,1.6c-0.7,0.6-1.2,1.4-1.2,2.4v0.1c0,1,0.5,1.9,1.2,2.4c-0.3,0.5-0.5,1-0.5,1.6v0.1
			c0,1.7,1.4,3,3,3h0.8c0,1.2,0.8,2.2,1.8,2.6c0.1,1.1,0.4,3,1.5,4.6c0.2,0.3,0.5,0.4,0.8,0.4c0.2,0,0.4-0.1,0.6-0.2
			c0.5-0.3,0.6-0.9,0.3-1.4c-0.7-1-1-2.3-1.1-3.2h8.3c0,0,0.1,0.1,0.1,0.1c0.3,0.5,0.9,0.6,1.4,0.3c0.5-0.3,0.6-0.9,0.3-1.4
			c-1.2-1.7-0.9-3.6,1-5.8c0.3-0.3,1.2-1.2,1.1-2.4c-0.1-0.9-0.7-1.7-1.9-2.4c0,0-0.1,0-0.1,0c0,0-1.2-0.5-1-1.6
			c0.1-0.7,1.5-0.8,2.4-0.8c2.3,0.2,4,0.8,4.8,1.8c0.6,0.7,0.8,1.7,0.6,2.9c0,0.3-0.1,0.5-0.1,0.8c-0.6,3.8-1.3,8.4-5,11.6
			c-0.4,0.4-0.5,1-0.1,1.4c0.2,0.2,0.5,0.4,0.8,0.4c0.2,0,0.5-0.1,0.7-0.2c4.3-3.6,5.1-8.9,5.7-12.8c0-0.3,0.1-0.5,0.1-0.8
			C524.9,295.4,524.5,293.9,523.6,292.7z M500.2,297c-0.6,0-1-0.5-1-1v-0.1c0-0.6,0.5-1,1-1h0.8h0.8v2.2h-0.8H500.2L500.2,297z
			 M499.9,291.7c0-0.6,0.5-1,1-1h0.8v2.2h-0.8c-0.6,0-1-0.5-1-1V291.7z M501.7,301.2h-0.8c-0.6,0-1-0.5-1-1V300c0-0.6,0.5-1,1-1h0.8
			V301.2z M504.8,304.1c-0.6,0-1-0.5-1-1v-0.8h9.2c-0.1,0.7,0,1.3,0.1,1.8H504.8z M512.8,292.6c-0.3,2.1,1.3,3.3,2.2,3.7
			c0.5,0.3,0.8,0.6,0.8,0.7c0,0.2-0.3,0.6-0.5,0.7c0,0-0.1,0.1-0.1,0.1c-0.7,0.8-1.2,1.6-1.6,2.3h-9.8v-23.7c0-0.6,0.5-1,1-1h12.5
			c0.6,0,1,0.5,1,1v13.7c-0.3,0-0.6-0.1-0.9-0.1C514.8,289.9,513.1,290.9,512.8,292.6z"/>
		<path class="st0" d="M510.2,281.9h-2.4c-0.3,0-0.5,0.2-0.5,0.5v2.4c0,0.3,0.2,0.5,0.5,0.5h2.4c0.3,0,0.5-0.2,0.5-0.5v-2.4
			C510.7,282.1,510.5,281.9,510.2,281.9z"/>
		<path class="st0" d="M509.6,287.9h-1.3v-1.2c0-0.3-0.2-0.5-0.5-0.5c-0.3,0-0.5,0.2-0.5,0.5v1.7c0,0.3,0.2,0.5,0.5,0.5h1.8
			c0.3,0,0.5-0.2,0.5-0.5C510.1,288.1,509.9,287.9,509.6,287.9z"/>
		<path class="st0" d="M514,281.9h-2.4c-0.3,0-0.5,0.2-0.5,0.5v2.4c0,0.3,0.2,0.5,0.5,0.5h2.4c0.3,0,0.5-0.2,0.5-0.5v-2.4
			C514.5,282.1,514.3,281.9,514,281.9z M513.5,284.3h-1.4v-1.4h1.4V284.3z"/>
		<path class="st0" d="M513.5,286.2h-1.4c-0.3,0-0.5,0.2-0.5,0.5v1.4c0,0.3,0.2,0.5,0.5,0.5h1.4c0.3,0,0.5-0.2,0.5-0.5v-1.4
			C514,286.4,513.8,286.2,513.5,286.2z"/>
	</g>
</g>
<g>
	<g>
		<g>
			<path class="st0" d="M267.5,167.2h-39c-5.3,0-9.5,4.3-9.5,9.5v32.5c0,5.2,4.3,9.5,9.5,9.5h6.5l11.4,9.8c0.9,0.8,2.3,0.8,3.2,0
				l11.4-9.8h6.5c5.2,0,9.5-4.3,9.5-9.5v-32.5C277.1,171.5,272.8,167.2,267.5,167.2z M248,223.4l-5.4-4.7h10.9L248,223.4z
				 M272.1,209.2c0,2.5-2.1,4.6-4.6,4.6c-1.4,0-36.6,0-39,0c-2.5,0-4.6-2.1-4.6-4.6v-32.5c0-2.5,2.1-4.6,4.6-4.6h39
				c2.5,0,4.6,2.1,4.6,4.6V209.2L272.1,209.2z"/>
			<path class="st0" d="M264.4,180H248c-1.4,0-2.5,1.1-2.5,2.5c0,1.4,1.1,2.5,2.5,2.5h16.3c1.4,0,2.5-1.1,2.5-2.5
				C266.9,181.1,265.7,180,264.4,180z"/>
			<path class="st0" d="M231.5,184.9c0.2,0,0.3,0,0.5,0c1.3-0.1,2.2-1.2,2.2-2.5c0-1.2-0.9-2.3-2.2-2.5c-0.2,0-0.3,0-0.5,0
				c-1.3,0.1-2.2,1.2-2.2,2.5C229.2,183.7,230.2,184.8,231.5,184.9z"/>
			<path class="st0" d="M248,201h-16.3c-1.4,0-2.5,1.1-2.5,2.5c0,1.4,1.1,2.5,2.5,2.5H248c1.4,0,2.5-1.1,2.5-2.5
				C250.5,202.1,249.4,201,248,201z"/>
			<path class="st0" d="M239.6,184.9c0.2,0,0.3,0,0.5,0c1.3-0.1,2.2-1.2,2.2-2.5c0-1.2-0.9-2.3-2.2-2.5c-0.2,0-0.3,0-0.5,0
				c-1.3,0.1-2.2,1.2-2.2,2.5C237.4,183.7,238.3,184.8,239.6,184.9z"/>
			<path class="st0" d="M231.5,195.4c0.2,0,0.3,0,0.5,0c1.3-0.1,2.2-1.2,2.2-2.5c0-1.2-0.9-2.3-2.2-2.5c-0.2,0-0.3,0-0.5,0
				c-1.3,0.1-2.2,1.2-2.2,2.5C229.2,194.2,230.2,195.3,231.5,195.4z"/>
			<path class="st0" d="M248.3,195.4c1.3-0.1,2.2-1.2,2.2-2.5c0-1.2-0.9-2.3-2.2-2.5c-0.2,0-0.3,0-0.5,0c-1.3,0.1-2.2,1.2-2.2,2.5
				c0,1.2,0.9,2.3,2.2,2.5C248,195.4,248.1,195.4,248.3,195.4z"/>
			<path class="st0" d="M264.6,190.5c-0.2,0-0.3,0-0.5,0c-1.3,0.1-2.2,1.2-2.2,2.5c0,1.2,0.9,2.3,2.2,2.5c0.2,0,0.3,0,0.5,0
				c1.3-0.1,2.2-1.2,2.2-2.5C266.9,191.7,265.9,190.6,264.6,190.5z"/>
			<path class="st0" d="M264.6,201c-0.2,0-0.3,0-0.5,0c-1.3,0.1-2.2,1.2-2.2,2.5c0,1.2,0.9,2.3,2.2,2.5c0.2,0,0.3,0,0.5,0
				c1.3-0.1,2.2-1.2,2.2-2.5C266.9,202.3,265.9,201.2,264.6,201z"/>
			<path class="st0" d="M256.5,201c-0.2,0-0.3,0-0.5,0c-1.3,0.1-2.2,1.2-2.2,2.5c0,1.2,0.9,2.3,2.2,2.5c0.2,0,0.3,0,0.5,0
				c1.3-0.1,2.2-1.2,2.2-2.5C258.7,202.3,257.8,201.2,256.5,201z"/>
		</g>
	</g>
</g>
<g>
	<g>
		<g>
			<path class="st0" d="M655.8,42.5h-23.9c-3.2,0-5.9,2.9-5.9,6.4v21.8c0,3.5,2.6,6.4,5.9,6.4h4l7,6.6c0.6,0.5,1.4,0.5,2,0l7-6.6h4
				c3.2,0,5.9-2.9,5.9-6.4V48.9C661.6,45.4,659,42.5,655.8,42.5z M643.8,80.2l-3.3-3.1h6.7L643.8,80.2z M658.6,70.7
				c0,1.7-1.3,3.1-2.8,3.1c-0.9,0-22.5,0-23.9,0c-1.6,0-2.8-1.4-2.8-3.1V48.9c0-1.7,1.3-3.1,2.8-3.1h23.9c1.6,0,2.8,1.4,2.8,3.1
				V70.7L658.6,70.7z"/>
			<path class="st0" d="M653.9,51.1h-10c-0.8,0-1.5,0.7-1.5,1.7s0.7,1.7,1.5,1.7h10c0.8,0,1.5-0.7,1.5-1.7
				C655.4,51.8,654.7,51.1,653.9,51.1z"/>
			<path class="st0" d="M633.6,54.4c0.1,0,0.2,0,0.3,0c0.8-0.1,1.4-0.8,1.4-1.6c0-0.8-0.6-1.6-1.4-1.6c-0.1,0-0.2,0-0.3,0
				c-0.8,0.1-1.4,0.8-1.4,1.6C632.3,53.5,632.8,54.3,633.6,54.4z"/>
			<path class="st0" d="M643.8,65.2h-10c-0.8,0-1.5,0.7-1.5,1.7s0.7,1.7,1.5,1.7h10c0.8,0,1.5-0.7,1.5-1.7S644.7,65.2,643.8,65.2z"
				/>
			<path class="st0" d="M638.7,54.4c0.1,0,0.2,0,0.3,0c0.8-0.1,1.4-0.8,1.4-1.6c0-0.8-0.6-1.6-1.4-1.6c-0.1,0-0.2,0-0.3,0
				c-0.8,0.1-1.4,0.8-1.4,1.6C637.3,53.5,637.9,54.3,638.7,54.4z"/>
			<path class="st0" d="M633.6,61.4c0.1,0,0.2,0,0.3,0c0.8-0.1,1.4-0.8,1.4-1.6c0-0.8-0.6-1.6-1.4-1.6c-0.1,0-0.2,0-0.3,0
				c-0.8,0.1-1.4,0.8-1.4,1.6C632.3,60.6,632.8,61.4,633.6,61.4z"/>
			<path class="st0" d="M644,61.4c0.8-0.1,1.4-0.8,1.4-1.6c0-0.8-0.6-1.6-1.4-1.6c-0.1,0-0.2,0-0.3,0c-0.8,0.1-1.4,0.8-1.4,1.6
				c0,0.8,0.6,1.6,1.4,1.6C643.8,61.5,643.9,61.5,644,61.4z"/>
			<path class="st0" d="M654,58.1c-0.1,0-0.2,0-0.3,0c-0.8,0.1-1.4,0.8-1.4,1.6c0,0.8,0.6,1.6,1.4,1.6c0.1,0,0.2,0,0.3,0
				c0.8-0.1,1.4-0.8,1.4-1.6C655.4,59,654.8,58.2,654,58.1z"/>
			<path class="st0" d="M654,65.2c-0.1,0-0.2,0-0.3,0c-0.8,0.1-1.4,0.8-1.4,1.6c0,0.8,0.6,1.6,1.4,1.6c0.1,0,0.2,0,0.3,0
				c0.8-0.1,1.4-0.8,1.4-1.6C655.4,66,654.8,65.3,654,65.2z"/>
			<path class="st0" d="M649,65.2c-0.1,0-0.2,0-0.3,0c-0.8,0.1-1.4,0.8-1.4,1.6c0,0.8,0.6,1.6,1.4,1.6c0.1,0,0.2,0,0.3,0
				c0.8-0.1,1.4-0.8,1.4-1.6C650.4,66,649.8,65.3,649,65.2z"/>
		</g>
	</g>
</g>
<g>
	<g>
		<g>
			<path class="st0" d="M359.8,307.8h-24.9c-4.9,0-8.9,4-8.9,8.9s4,8.9,8.9,8.9h24.9c4.9,0,8.9-4,8.9-8.9S364.7,307.8,359.8,307.8z
				 M359.8,322.1h-24.9c-2.9,0-5.3-2.4-5.3-5.3s2.4-5.3,5.3-5.3h24.9c2.9,0,5.3,2.4,5.3,5.3S362.7,322.1,359.8,322.1z"/>
			<path class="st0" d="M340.2,306.1h14.2c1,0,1.8-0.8,1.8-1.8v-10.7c0-1-0.8-1.8-1.8-1.8v-1.8c0-3.9-3.2-7.1-7.1-7.1
				s-7.1,3.2-7.1,7.1v1.8c-1,0-1.8,0.8-1.8,1.8v10.7C338.5,305.3,339.2,306.1,340.2,306.1z M343.8,290.1c0-2,1.6-3.6,3.6-3.6
				c2,0,3.6,1.6,3.6,3.6v1.8h-7.1L343.8,290.1L343.8,290.1z M352.7,302.5H342v-7.1h10.7V302.5z"/>
			<path class="st0" d="M336.7,313.2c-1,0-1.8,0.8-1.8,1.8v3.6c0,1,0.8,1.8,1.8,1.8c1,0,1.8-0.8,1.8-1.8v-3.6
				C338.5,314,337.7,313.2,336.7,313.2z"/>
			<path class="st0" d="M343.8,313.2c-1,0-1.8,0.8-1.8,1.8v3.6c0,1,0.8,1.8,1.8,1.8s1.8-0.8,1.8-1.8v-3.6
				C345.6,314,344.8,313.2,343.8,313.2z"/>
			<path class="st0" d="M350.9,313.2c-1,0-1.8,0.8-1.8,1.8v3.6c0,1,0.8,1.8,1.8,1.8c1,0,1.8-0.8,1.8-1.8v-3.6
				C352.7,314,351.9,313.2,350.9,313.2z"/>
			<path class="st0" d="M359.8,316.7h-3.6c-1,0-1.8,0.8-1.8,1.8s0.8,1.8,1.8,1.8h3.6c1,0,1.8-0.8,1.8-1.8S360.8,316.7,359.8,316.7z"
				/>
		</g>
	</g>
</g>
<g>
	<g>
		<g>
			<path class="st0" d="M694.3,249.2h-24.9c-4.9,0-8.9,4-8.9,8.9c0,4.9,4,8.9,8.9,8.9h24.9c4.9,0,8.9-4,8.9-8.9
				C703.2,253.2,699.2,249.2,694.3,249.2z M694.3,263.4h-24.9c-2.9,0-5.3-2.4-5.3-5.3s2.4-5.3,5.3-5.3h24.9c2.9,0,5.3,2.4,5.3,5.3
				S697.3,263.4,694.3,263.4z"/>
			<path class="st0" d="M674.8,247.4H689c1,0,1.8-0.8,1.8-1.8V235c0-1-0.8-1.8-1.8-1.8v-1.8c0-3.9-3.2-7.1-7.1-7.1
				c-3.9,0-7.1,3.2-7.1,7.1v1.8c-1,0-1.8,0.8-1.8,1.8v10.7C673,246.7,673.8,247.4,674.8,247.4z M678.3,231.4c0-2,1.6-3.6,3.6-3.6
				s3.6,1.6,3.6,3.6v1.8h-7.1L678.3,231.4L678.3,231.4z M687.2,243.9h-10.7v-7.1h10.7V243.9z"/>
			<path class="st0" d="M671.2,254.6c-1,0-1.8,0.8-1.8,1.8v3.6c0,1,0.8,1.8,1.8,1.8s1.8-0.8,1.8-1.8v-3.6
				C673,255.4,672.2,254.6,671.2,254.6z"/>
			<path class="st0" d="M678.3,254.6c-1,0-1.8,0.8-1.8,1.8v3.6c0,1,0.8,1.8,1.8,1.8s1.8-0.8,1.8-1.8v-3.6
				C680.1,255.4,679.3,254.6,678.3,254.6z"/>
			<path class="st0" d="M685.4,254.6c-1,0-1.8,0.8-1.8,1.8v3.6c0,1,0.8,1.8,1.8,1.8c1,0,1.8-0.8,1.8-1.8v-3.6
				C687.2,255.4,686.4,254.6,685.4,254.6z"/>
			<path class="st0" d="M694.3,258.1h-3.6c-1,0-1.8,0.8-1.8,1.8s0.8,1.8,1.8,1.8h3.6c1,0,1.8-0.8,1.8-1.8
				C696.1,258.9,695.3,258.1,694.3,258.1z"/>
		</g>
	</g>
</g>
<g>
	<path class="st0" d="M460,404c-2.5,0-4.5,2-4.5,4.5c0,0.7,0.2,1.5,0.5,2.1c-0.2,0.4-0.5,0.8-0.8,1.1c-0.3,0.3-0.7,0.7-1.1,0.8
		c-0.5-0.2-1.1-0.4-1.7-0.4c-1.4,0-2.8,0.8-3.5,2c-0.4,0-0.9,0-1.4-0.1c-0.4-0.1-0.8-0.2-1.2-0.4c0-0.2,0-0.4,0-0.7c0-4.4-3.6-8-8-8
		c-4.4,0-8,3.6-8,8c0,3,1.7,5.8,4.5,7.2c-0.1,0.6-0.3,1.3-0.5,2c-0.3,0.7-0.6,1.4-1,2c0,0.1-0.1,0.1-0.1,0.2c-0.1,0-0.2,0-0.3,0
		c-2.8,0-5.1,2.3-5.1,5.1c0,0.2,0,0.3,0,0.5c-0.6,0.3-1.4,0.5-2.2,0.7c-0.8,0.2-1.7,0.2-2.4,0.2c-0.1,0-0.2,0-0.3,0
		c-0.9-1.5-2.5-2.4-4.3-2.4c-0.6,0-1.1,0.1-1.7,0.3c-0.2-0.2-0.4-0.5-0.6-0.8c-0.2-0.3-0.3-0.6-0.4-0.9c1-1,1.6-2.3,1.6-3.7
		c0-1.6-0.7-3-2-4c0-0.5,0.2-1.1,0.4-1.7c0.2-0.6,0.6-1.1,0.9-1.5c0.1,0,0.2,0,0.3,0c2.5,0,4.5-2,4.5-4.5c0-2.5-2-4.5-4.5-4.5
		c-2.5,0-4.5,2-4.5,4.5c0,1.4,0.6,2.7,1.7,3.5c0,0.5-0.2,1.1-0.4,1.7c-0.2,0.5-0.5,1.1-0.9,1.5c-0.2,0-0.5,0-0.7,0
		c-2.3,0-4.3,1.6-4.9,3.8l0,0c-0.5,0.2-1,0.3-1.6,0.4c-0.5,0-1.1,0-1.6-0.1c-0.7-2-2.6-3.4-4.7-3.4c-2.8,0-5,2.2-5,5
		c0,2.8,2.2,5,5,5c2.4,0,4.4-1.7,4.9-4c0.4-0.2,1-0.3,1.6-0.4c0.5,0,1,0,1.5,0.1c0.6,2.2,2.6,3.7,4.9,3.7c0.4,0,0.9-0.1,1.3-0.2
		c0.3,0.2,0.5,0.5,0.7,0.8c0.2,0.3,0.3,0.7,0.4,1c-0.8,0.9-1.3,2.1-1.3,3.3c0,2.8,2.2,5,5,5c2.8,0,5-2.2,5-5c0,0,0.1,0,0.1,0
		c0.6-0.3,1.4-0.5,2.3-0.7c0.8-0.2,1.7-0.2,2.4-0.2c0.2,0,0.3,0,0.4,0c1,1.2,2.4,2,4,2c0.7,0,1.3-0.1,1.9-0.4c0.1,0,0.1,0.1,0.2,0.1
		c0.5,0.3,1.1,0.9,1.6,1.4c0.5,0.6,0.9,1.2,1.2,1.8c0,0,0,0.1,0.1,0.1c-0.7,1-1,2.1-1,3.3c0,3.2,2.6,5.9,5.9,5.9
		c3.3,0,5.9-2.6,5.9-5.9c0-3.2-2.6-5.9-5.9-5.9c-1,0-2,0.3-2.8,0.7c0,0,0,0-0.1,0c-0.5-0.3-1.1-0.9-1.6-1.4
		c-0.5-0.6-0.9-1.2-1.2-1.8c0,0,0,0,0-0.1c0.6-0.9,1-1.9,1-3c0-1.6-0.8-3.2-2.1-4.1c0,0,0-0.1,0-0.1c0.1-0.6,0.3-1.4,0.5-2.1
		c0.3-0.7,0.6-1.4,1-2l0,0c0.3,0,0.7,0.1,1,0.1c2.1,0,4.2-0.8,5.7-2.4c0.7-0.7,1.3-1.6,1.7-2.5c0.4,0,0.9,0,1.4,0.1
		c0.5,0.1,0.9,0.3,1.3,0.5c0.2,2,2,3.6,4,3.6c0.1,0,0.2,0,0.3,0c0.2,0.3,0.4,0.7,0.6,1.2c0.1,0.4,0.2,0.9,0.2,1.4
		c-1,0.8-1.6,1.9-1.6,3.2c0,2.2,1.8,4,4,4c2.2,0,4-1.8,4-4c0-2.2-1.7-3.9-3.9-4c-0.3-0.3-0.5-0.8-0.6-1.2c-0.2-0.5-0.2-1-0.2-1.5
		c0.9-0.8,1.4-1.9,1.4-3.1c0-0.7-0.2-1.3-0.5-1.9c0.2-0.4,0.5-0.8,0.8-1.1c0.3-0.3,0.7-0.6,1.1-0.8c0.7,0.4,1.4,0.5,2.1,0.5
		c2.5,0,4.5-2,4.5-4.5C464.5,406,462.5,404,460,404z M460,410.9c-1.3,0-2.3-1.1-2.3-2.3c0-1.3,1.1-2.3,2.3-2.3c1.3,0,2.3,1,2.3,2.3
		C462.4,409.8,461.3,410.9,460,410.9z M452.5,414.4c1.1,0,1.9,0.9,1.9,1.9c0,1.1-0.9,1.9-1.9,1.9c-1.1,0-1.9-0.9-1.9-1.9
		C450.6,415.3,451.4,414.4,452.5,414.4z M455.9,427.9c-1,0-1.8-0.8-1.8-1.8c0-1,0.8-1.8,1.8-1.8c1,0,1.8,0.8,1.8,1.8
		C457.7,427.1,456.9,427.9,455.9,427.9z M432.9,426.6c1.6,0,2.9,1.3,2.9,2.9c0,1.6-1.3,2.9-2.9,2.9c-1.6,0-2.9-1.3-2.9-2.9
		C430,427.9,431.3,426.6,432.9,426.6z M438.4,419c-3.2,0-5.9-2.6-5.9-5.9c0-3.2,2.6-5.9,5.9-5.9c3.2,0,5.9,2.6,5.9,5.9
		c0,1.6-0.6,3-1.7,4.1C441.4,418.4,440,419,438.4,419z M412.6,420.4c1.6,0,2.9,1.3,2.9,2.9c0,1.6-1.3,2.9-2.9,2.9
		c-1.6,0-2.9-1.3-2.9-2.9C409.6,421.8,410.9,420.4,412.6,420.4z M417.3,409.3c1.3,0,2.3,1.1,2.3,2.3c0,1.3-1.1,2.3-2.4,2.3
		c-1.3,0-2.3-1-2.3-2.3C415,410.3,416,409.3,417.3,409.3z M418.7,436.3c-1.6,0-2.8-1.3-2.8-2.8c0-1.6,1.3-2.9,2.8-2.9
		c1.6,0,2.9,1.3,2.9,2.9C421.6,435.1,420.3,436.3,418.7,436.3z M399.7,426.8c-1.6,0-2.8-1.3-2.8-2.8c0-1.6,1.3-2.8,2.8-2.8
		c1.6,0,2.8,1.3,2.8,2.8C402.5,425.6,401.3,426.8,399.7,426.8z M442.6,444.6c-2.1,0-3.7-1.7-3.7-3.7c0-2.1,1.7-3.7,3.7-3.7
		c2.1,0,3.7,1.7,3.7,3.7C446.4,443,444.7,444.6,442.6,444.6z"/>
</g>
<path class="st0" d="M173.7,64.7c0,0.3,0.2,0.5,0.4,0.5H185c0.2,0,0.4-0.2,0.4-0.5v-2.8c0-0.3-0.2-0.5-0.4-0.5h-10.9
	c-0.2,0-0.4,0.2-0.4,0.5V64.7z M162.2,65l11.3-9.5c0.2-0.2,0.2-0.5,0-0.7l-11.3-9.5c-0.2-0.2-0.5-0.1-0.7,0.1
	c-0.1,0.1-0.1,0.2-0.1,0.3v3.7c0,0.1,0.1,0.3,0.2,0.4l6.5,5.4l-6.5,5.4c-0.1,0.1-0.2,0.2-0.2,0.4v3.7
	C161.4,65.1,161.9,65.3,162.2,65L162.2,65z M195,31.7h-43.2c-1,0-1.9,0.8-1.9,1.9v43.2c0,1,0.8,1.9,1.9,1.9H195c1,0,1.9-0.8,1.9-1.9
	V33.6C196.9,32.6,196.1,31.7,195,31.7z M192.7,74.5h-38.5V35.9h38.5V74.5z"/>
<path class="st0" d="M574.7,189c0,0.2,0.2,0.4,0.4,0.4h10c0.2,0,0.4-0.2,0.4-0.4v-2.6c0-0.2-0.2-0.4-0.4-0.4h-10
	c-0.2,0-0.4,0.2-0.4,0.4V189z M564.2,189.4l10.4-8.7c0.2-0.2,0.2-0.5,0-0.7l-10.4-8.7c-0.2-0.2-0.5-0.1-0.6,0
	c-0.1,0.1-0.1,0.2-0.1,0.3v3.4c0,0.1,0.1,0.2,0.2,0.3l5.9,5l-5.9,5c-0.1,0.1-0.2,0.2-0.2,0.3v3.4
	C563.4,189.4,563.9,189.6,564.2,189.4L564.2,189.4z M594.4,158.7h-39.8c-1,0-1.7,0.8-1.7,1.7v39.8c0,1,0.8,1.7,1.7,1.7h39.8
	c1,0,1.7-0.8,1.7-1.7v-39.8C596.1,159.5,595.3,158.7,594.4,158.7z M592.2,198.1h-35.5v-35.5h35.5V198.1z"/>
<g>
	<path class="st0" d="M639.1,373.3c-0.4,0-0.7,0.1-1.1,0.2c-0.3-1.9-2-3.4-4-3.4c-0.7,0-1.3,0.2-1.8,0.4c-0.7-1-2-1.7-3.3-1.7
		c-0.4,0-0.7,0-1,0.1v-4.6c0-2.3-1.8-4.1-4.1-4.1s-4.1,1.8-4.1,4.1v10.4c0,0-0.1,0-0.1,0.1l-2.3,1.3c-2.2,1.2-3.1,3.9-2.1,6.2l1.7,4
		c0.1,0.2,0.2,0.4,0.4,0.5l3.9,3.5c0.7,1.2,1.5,2.3,2.6,3.2l0,3.2c0,0.8,0.7,1.5,1.5,1.5h12.5c0.8,0,1.5-0.7,1.5-1.5l0-3.2
		c2.6-2.2,4-5.4,4-8.9v-7.2C643.2,375.1,641.3,373.3,639.1,373.3z M619.5,384.7l-1.6-3.7c-0.4-0.8,0-1.8,0.8-2.2l1-0.5v6.3
		c0,0.1,0,0.2,0,0.2L619.5,384.7z M640.1,384.5c0,2.8-1.3,5.3-3.4,7c-0.4,0.3-0.6,0.7-0.6,1.2l0,2.4h-9.4l0-2.4
		c0-0.5-0.2-0.9-0.6-1.2c-2.2-1.7-3.4-4.2-3.4-7v-20.2c0-0.6,0.5-1,1-1s1,0.5,1,1v14.7c0,0.8,0.7,1.5,1.5,1.5s1.5-0.7,1.5-1.5v-6.2
		c0-0.6,0.5-1,1-1s1,0.5,1,1v6.3c0,0.8,0.7,1.5,1.5,1.5c0.8,0,1.5-0.7,1.5-1.5v-5.1c0-0.6,0.5-1,1-1s1,0.5,1,1v3.3v1.7
		c0,0.8,0.7,1.5,1.5,1.5c0.8,0,1.5-0.7,1.5-1.5v-1.7c0-0.6,0.5-1,1-1c0.6,0,1,0.5,1,1V384.5z"/>
	<circle class="st0" cx="602" cy="355" r="2.5"/>
	<circle class="st0" cx="612.9" cy="355" r="2.5"/>
	<circle class="st0" cx="623.8" cy="355" r="2.5"/>
	<circle class="st0" cx="602" cy="363.4" r="2.5"/>
	<circle class="st0" cx="612.9" cy="363.4" r="2.5"/>
	<circle class="st0" cx="602" cy="371.7" r="2.5"/>
	<circle class="st0" cx="612.9" cy="371.7" r="2.5"/>
</g>
<path class="st0" d="M1189.8,47.7c-0.1,0-0.3,0.1-0.3,0.3v2.6c0,0.1,0.1,0.3,0.3,0.3h2.6c0.1,0,0.3-0.1,0.3-0.3v-2.6
	c0-0.1-0.1-0.3-0.3-0.3H1189.8z M1189.6,66.4v-0.8c0-0.4,0.3-0.8,0.8-0.8c0.4,0,0.8,0.3,0.8,0.8v0.8h1.6v-0.8c0-0.4,0.3-0.8,0.8-0.8
	c0.4,0,0.8,0.3,0.8,0.8v1.6c0,0.4-0.3,0.8-0.8,0.8h-6.2c-0.4,0-0.8-0.3-0.8-0.8v-1.6c0-0.4,0.3-0.8,0.8-0.8c0.4,0,0.8,0.3,0.8,0.8
	v0.8H1189.6L1189.6,66.4z M1184.9,55.5h0.8c0.4,0,0.8,0.3,0.8,0.8s-0.3,0.8-0.8,0.8h-3.1c-0.4,0-0.8-0.3-0.8-0.8s0.3-0.8,0.8-0.8
	h0.8v-1.6h-2.3c-0.4,0-0.8-0.3-0.8-0.8c0-0.4,0.3-0.8,0.8-0.8h4.7c0.4,0,0.8,0.3,0.8,0.8c0,0.4-0.3,0.8-0.8,0.8h-0.8V55.5z
	 M1192.7,57h-0.8c-0.4,0-0.8-0.3-0.8-0.8s0.3-0.8,0.8-0.8h0.8v-0.8c0-0.4,0.3-0.8,0.8-0.8c0.4,0,0.8,0.3,0.8,0.8v3.1
	c0,0.4-0.3,0.8-0.8,0.8c-0.4,0-0.8-0.3-0.8-0.8V57z M1184.9,60.1h-0.8c-0.4,0-0.8-0.3-0.8-0.8c0-0.4,0.3-0.8,0.8-0.8h1.6
	c0.4,0,0.8,0.3,0.8,0.8v3.1c0,0.4-0.3,0.8-0.8,0.8h-4.7c-0.4,0-0.8-0.3-0.8-0.8c0-0.4,0.3-0.8,0.8-0.8h3.9V60.1L1184.9,60.1z
	 M1189.8,46.1h2.6c1,0,1.8,0.8,1.8,1.8v2.6c0,1-0.8,1.8-1.8,1.8h-2.6c-1,0-1.8-0.8-1.8-1.8v-2.6C1188,46.9,1188.8,46.1,1189.8,46.1z
	 M1174.3,46.1h2.6c1,0,1.8,0.8,1.8,1.8v2.6c0,1-0.8,1.8-1.8,1.8h-2.6c-1,0-1.8-0.8-1.8-1.8v-2.6
	C1172.5,46.9,1173.3,46.1,1174.3,46.1z M1174.3,47.7c-0.1,0-0.3,0.1-0.3,0.3v2.6c0,0.1,0.1,0.3,0.3,0.3h2.6c0.1,0,0.3-0.1,0.3-0.3
	v-2.6c0-0.1-0.1-0.3-0.3-0.3H1174.3z M1174.3,61.7h2.6c1,0,1.8,0.8,1.8,1.8v2.6c0,1-0.8,1.8-1.8,1.8h-2.6c-1,0-1.8-0.8-1.8-1.8v-2.6
	C1172.5,62.5,1173.3,61.7,1174.3,61.7z M1174.3,63.3c-0.1,0-0.3,0.1-0.3,0.3v2.6c0,0.1,0.1,0.3,0.3,0.3h2.6c0.1,0,0.3-0.1,0.3-0.3
	v-2.6c0-0.1-0.1-0.3-0.3-0.3H1174.3z M1184.9,47.7h-3.9c-0.4,0-0.8-0.3-0.8-0.8c0-0.4,0.3-0.8,0.8-0.8h4.7c0.4,0,0.8,0.3,0.8,0.8V50
	c0,0.4-0.3,0.8-0.8,0.8c-0.4,0-0.8-0.3-0.8-0.8V47.7z M1181,50.8c-0.4,0-0.8-0.3-0.8-0.8c0-0.4,0.3-0.8,0.8-0.8h1.6
	c0.4,0,0.8,0.3,0.8,0.8c0,0.4-0.3,0.8-0.8,0.8H1181z M1173.2,60.1c-0.4,0-0.8-0.3-0.8-0.8c0-0.4,0.3-0.8,0.8-0.8h3.1
	c0.4,0,0.8,0.3,0.8,0.8c0,0.4-0.3,0.8-0.8,0.8H1173.2z M1179.5,60.1c-0.4,0-0.8-0.3-0.8-0.8c0-0.4,0.3-0.8,0.8-0.8h1.6
	c0.4,0,0.8,0.3,0.8,0.8c0,0.4-0.3,0.8-0.8,0.8H1179.5z M1181.8,66.4v0.8c0,0.4-0.3,0.8-0.8,0.8c-0.4,0-0.8-0.3-0.8-0.8v-1.6
	c0-0.4,0.3-0.8,0.8-0.8h3.1c0.4,0,0.8,0.3,0.8,0.8c0,0.4-0.3,0.8-0.8,0.8H1181.8z M1178.7,55.5h0.8c0.4,0,0.8,0.3,0.8,0.8
	s-0.3,0.8-0.8,0.8h-1.6c-0.4,0-0.8-0.3-0.8-0.8v-0.8h-0.8c-0.4,0-0.8-0.3-0.8-0.8c0-0.4,0.3-0.8,0.8-0.8h1.6c0.4,0,0.8,0.3,0.8,0.8
	V55.5z M1172.5,54.7c0-0.4,0.3-0.8,0.8-0.8c0.4,0,0.8,0.3,0.8,0.8v1.6c0,0.4-0.3,0.8-0.8,0.8c-0.4,0-0.8-0.3-0.8-0.8V54.7z
	 M1188,54.7c0-0.4,0.3-0.8,0.8-0.8c0.4,0,0.8,0.3,0.8,0.8v3.1c0,0.4-0.3,0.8-0.8,0.8c-0.4,0-0.8-0.3-0.8-0.8V54.7z M1191.1,61.7
	v-0.8c0-0.4,0.3-0.8,0.8-0.8h1.6c0.4,0,0.8,0.3,0.8,0.8c0,0.4-0.3,0.8-0.8,0.8h-0.8v0.8c0,0.4-0.3,0.8-0.8,0.8h-3.1
	c-0.4,0-0.8-0.3-0.8-0.8v-1.6c0-0.4,0.3-0.8,0.8-0.8c0.4,0,0.8,0.3,0.8,0.8v0.8H1191.1z M1169.4,48.5c0,0.4-0.3,0.8-0.8,0.8
	c-0.4,0-0.8-0.3-0.8-0.8v-3.1c0-2.1,1.7-3.9,3.9-3.9h3.1c0.4,0,0.8,0.3,0.8,0.8c0,0.4-0.3,0.8-0.8,0.8h-3.1c-1.3,0-2.3,1-2.3,2.3
	V48.5z M1191.9,43c-0.4,0-0.8-0.3-0.8-0.8c0-0.4,0.3-0.8,0.8-0.8h3.1c2.1,0,3.9,1.7,3.9,3.9v3.1c0,0.4-0.3,0.8-0.8,0.8
	c-0.4,0-0.8-0.3-0.8-0.8v-3.1c0-1.3-1-2.3-2.3-2.3H1191.9z M1174.8,71c0.4,0,0.8,0.3,0.8,0.8s-0.3,0.8-0.8,0.8h-3.1
	c-2.1,0-3.9-1.7-3.9-3.9v-3.1c0-0.4,0.3-0.8,0.8-0.8c0.4,0,0.8,0.3,0.8,0.8v3.1c0,1.3,1,2.3,2.3,2.3H1174.8z M1197.4,65.6
	c0-0.4,0.3-0.8,0.8-0.8c0.4,0,0.8,0.3,0.8,0.8v3.1c0,2.1-1.7,3.9-3.9,3.9h-3.1c-0.4,0-0.8-0.3-0.8-0.8s0.3-0.8,0.8-0.8h3.1
	c1.3,0,2.3-1,2.3-2.3V65.6z"/>
<path class="st0" d="M805.7,393.8L805.7,393.8L805.7,393.8l-14.8-8.5l-14.8,8.5h0l0.1,0l-12.2,7V432l27,15.6l27-15.6v-31.2
	L805.7,393.8z M788.7,441.3l-10.7-6.2v-10.5l-9.7-5.5V406l20.4,11.8V441.3z M770.4,402.2l10.1-5.8l10.4,6l10.4-6l10.1,5.8L790.9,414
	L770.4,402.2L770.4,402.2z M813.5,419.2l-9.7,5.5v10.4l-10.8,6.2v-23.5l20.4-11.8V419.2z"/>
<g>
	<path class="st0" d="M1113.6,168.2c0,0.8,0.6,1.5,1.3,1.5c0.7,0,1.3-0.6,1.3-1.5v-11.3c0-0.6-0.3-1.1-0.8-1.3
		c-0.5-0.2-1-0.1-1.4,0.3l-3.2,3.7c-0.5,0.6-0.5,1.5,0,2.1c0.5,0.6,1.3,0.6,1.8,0l1-1.2V168.2z"/>
	<path class="st0" d="M1121,143.1l1-1.2v7.8c0,0.8,0.6,1.5,1.3,1.5s1.3-0.6,1.3-1.5v-11.3c0-0.6-0.3-1.1-0.8-1.3
		c-0.5-0.2-1-0.1-1.4,0.3l-3.2,3.7c-0.5,0.6-0.5,1.5,0,2.1C1119.7,143.6,1120.5,143.6,1121,143.1z"/>
	<path class="st0" d="M1135.4,155.5c-0.5-0.2-1-0.1-1.4,0.3l-3.2,3.7c-0.5,0.6-0.5,1.5,0,2.1c0.5,0.6,1.3,0.6,1.8,0l1-1.2v7.8
		c0,0.8,0.6,1.5,1.3,1.5c0.7,0,1.3-0.6,1.3-1.5v-11.3C1136.2,156.2,1135.9,155.7,1135.4,155.5z"/>
	<path class="st0" d="M1129.9,173.3c-0.5-0.2-1-0.1-1.4,0.3l-3.2,3.7c-0.5,0.6-0.5,1.5,0,2.1c0.5,0.6,1.3,0.6,1.8,0l1-1.2v4.3
		c0,0.8,0.6,1.5,1.3,1.5c0.7,0,1.3-0.6,1.3-1.5v-7.8C1130.7,174.1,1130.4,173.6,1129.9,173.3z"/>
	<path class="st0" d="M1127.8,164.6v-4.3c0-2.7-1.9-5-4.3-5h-0.1c-2.4,0-4.3,2.2-4.3,5v4.3c0,2.7,1.9,5,4.3,5h0.1
		C1125.8,169.6,1127.8,167.4,1127.8,164.6z M1125.3,164.6c0,1.1-0.8,2.1-1.8,2.1h-0.1c-1,0-1.8-0.9-1.8-2.1v-4.3
		c0-1.1,0.8-2.1,1.8-2.1h0.1c1,0,1.8,0.9,1.8,2.1V164.6z"/>
	<path class="st0" d="M1143.6,155.4L1143.6,155.4c-2.5,0-4.4,2.2-4.4,5v4.3c0,2.7,1.9,5,4.3,5h0.1c2.4,0,4.3-2.2,4.3-5v-4.3
		C1147.9,157.6,1146,155.4,1143.6,155.4z M1145.4,164.6c0,1.1-0.8,2.1-1.8,2.1h-0.1c-1,0-1.8-0.9-1.8-2.1v-4.3
		c0-1.1,0.8-2.1,1.8-2.1h0.1c1,0,1.8,0.9,1.8,2.1V164.6z"/>
	<path class="st0" d="M1131.9,136.9L1131.9,136.9c-2.5,0-4.4,2.2-4.4,5v4.3c0,2.7,1.9,5,4.3,5h0.1c0.7,0,1.3-0.6,1.3-1.5
		c0-0.8-0.6-1.5-1.3-1.5h-0.1c-1,0-1.8-0.9-1.8-2.1v-4.3c0-1.1,0.8-2.1,1.8-2.1h0.1c1,0,1.8,0.9,1.8,2.1c0,0.8,0.6,1.5,1.3,1.5
		c0.7,0,1.3-0.6,1.3-1.5C1136.3,139.1,1134.3,136.9,1131.9,136.9z"/>
	<path class="st0" d="M1143.6,136.9L1143.6,136.9c-2.5,0-4.4,2.2-4.4,5v4.3c0,2.7,1.9,5,4.3,5h0.1c2.4,0,4.3-2.2,4.3-5v-4.3
		C1147.9,139.1,1146,136.9,1143.6,136.9z M1145.4,146.2c0,1.1-0.8,2.1-1.8,2.1h-0.1c-1,0-1.8-0.9-1.8-2.1v-4.3
		c0-1.1,0.8-2.1,1.8-2.1h0.1c1,0,1.8,0.9,1.8,2.1V146.2z"/>
	<path class="st0" d="M1117.6,173.2L1117.6,173.2c-2.5,0-4.4,2.2-4.4,5v4.3c0,2.7,1.9,5,4.3,5h0.1c2.4,0,4.3-2.2,4.3-5v-4.3
		C1121.9,175.5,1119.9,173.2,1117.6,173.2z M1119.4,182.5c0,1.1-0.8,2.1-1.8,2.1h-0.1c-1,0-1.8-0.9-1.8-2.1v-4.3
		c0-1.1,0.8-2.1,1.8-2.1h0.1c1,0,1.8,0.9,1.8,2.1V182.5z"/>
</g>
<g>
	<g>
		<rect x="775.4" y="94.6" class="st0" width="30.9" height="3.8"/>
	</g>
	<g>
		<path class="st0" d="M814.3,123.2c-1.4-1.8-3.5-3.1-6.2-3.9V93c0-3.1-2.5-5.7-5.7-5.7h-23.3c-3.1,0-5.7,2.5-5.7,5.7v22.7h-1.6
			c-3.1,0-5.7,2.5-5.7,5.7v0.3c0,1.1,0.3,2.1,0.9,3c-1.4,1-2.3,2.7-2.3,4.5v0.3c0,1.9,0.9,3.5,2.3,4.5c-0.5,0.9-0.9,1.9-0.9,3v0.3
			c0,3.1,2.5,5.7,5.7,5.7h1.6c0.1,2.2,1.4,4.1,3.3,4.9c0.2,2,0.8,5.7,2.8,8.6c0.4,0.5,1,0.8,1.5,0.8c0.4,0,0.7-0.1,1.1-0.3
			c0.9-0.6,1.1-1.8,0.5-2.6c-1.3-1.8-1.8-4.3-2-5.9h15.6c0.1,0.1,0.1,0.2,0.2,0.2c0.6,0.9,1.8,1.1,2.6,0.5c0.9-0.6,1.1-1.8,0.5-2.6
			c-2.2-3.2-1.7-6.8,1.8-10.8c0.6-0.5,2.3-2.2,2.1-4.5c-0.2-1.8-1.3-3.2-3.5-4.4c-0.1,0-0.1-0.1-0.2-0.1c-0.1,0-2.2-0.9-1.8-3
			c0.2-1.3,2.8-1.6,4.5-1.4c4.4,0.3,7.5,1.5,9,3.4c1.1,1.4,1.4,3.1,1.1,5.4c-0.1,0.5-0.2,1-0.2,1.5c-1.1,7-2.4,15.7-9.4,21.6
			c-0.8,0.7-0.9,1.9-0.2,2.7c0.4,0.4,0.9,0.7,1.4,0.7c0.4,0,0.9-0.1,1.2-0.4c8-6.8,9.6-16.7,10.7-23.9c0.1-0.5,0.2-1,0.2-1.5
			C816.7,128.3,816.1,125.4,814.3,123.2z M770.5,131.3c-1,0-1.9-0.8-1.9-1.9v-0.3c0-1,0.8-1.9,1.9-1.9h1.4h1.4v4h-1.4H770.5
			L770.5,131.3z M770,121.3c0-1,0.8-1.9,1.9-1.9h1.4v4h-1.4c-1,0-1.9-0.8-1.9-1.9V121.3z M773.3,139.1h-1.4c-1,0-1.9-0.8-1.9-1.9
			v-0.3c0-1,0.8-1.9,1.9-1.9h1.4V139.1z M779.1,144.5c-1,0-1.9-0.8-1.9-1.9v-1.6h17.2c-0.2,1.3-0.1,2.4,0.1,3.4H779.1z M794.1,123.1
			c-0.6,3.9,2.3,6.3,4.1,7c1,0.6,1.4,1.1,1.5,1.4c0,0.4-0.5,1.1-0.8,1.4c-0.1,0.1-0.2,0.2-0.3,0.2c-1.3,1.5-2.3,2.9-2.9,4.3h-18.4
			V93c0-1,0.8-1.9,1.9-1.9h23.3c1,0,1.9,0.8,1.9,1.9v25.6c-0.6-0.1-1.2-0.1-1.8-0.2C797.8,118.1,794.6,119.9,794.1,123.1z"/>
		<path class="st0" d="M789.3,103h-4.5c-0.5,0-0.9,0.4-0.9,0.9v4.5c0,0.5,0.4,0.9,0.9,0.9h4.5c0.5,0,0.9-0.4,0.9-0.9V104
			C790.3,103.5,789.8,103,789.3,103z"/>
		<path class="st0" d="M788.1,114.3h-2.4V112c0-0.5-0.4-0.9-0.9-0.9s-0.9,0.4-0.9,0.9v3.2c0,0.5,0.4,0.9,0.9,0.9h3.3
			c0.5,0,0.9-0.4,0.9-0.9C789,114.7,788.6,114.3,788.1,114.3z"/>
		<path class="st0" d="M796.4,103h-4.5c-0.5,0-0.9,0.4-0.9,0.9v4.5c0,0.5,0.4,0.9,0.9,0.9h4.5c0.5,0,0.9-0.4,0.9-0.9V104
			C797.3,103.5,796.9,103,796.4,103z M795.4,107.6h-2.7v-2.7h2.7V107.6z"/>
		<path class="st0" d="M795.5,111.1h-2.7c-0.5,0-0.9,0.4-0.9,0.9v2.7c0,0.5,0.4,0.9,0.9,0.9h2.7c0.5,0,0.9-0.4,0.9-0.9v-2.7
			C796.4,111.5,796,111.1,795.5,111.1z"/>
	</g>
</g>
<g>
	<g>
		<rect x="1154.3" y="256.9" class="st0" width="16.5" height="2"/>
	</g>
	<g>
		<path class="st0" d="M1175.1,272.2c-0.8-0.9-1.9-1.6-3.3-2.1v-14.1c0-1.7-1.4-3-3-3h-12.5c-1.7,0-3,1.4-3,3v12.1h-0.8
			c-1.7,0-3,1.4-3,3v0.1c0,0.6,0.2,1.1,0.5,1.6c-0.7,0.6-1.2,1.4-1.2,2.4v0.1c0,1,0.5,1.9,1.2,2.4c-0.3,0.5-0.5,1-0.5,1.6v0.1
			c0,1.7,1.4,3,3,3h0.8c0,1.2,0.8,2.2,1.8,2.6c0.1,1.1,0.4,3,1.5,4.6c0.2,0.3,0.5,0.4,0.8,0.4c0.2,0,0.4-0.1,0.6-0.2
			c0.5-0.3,0.6-0.9,0.3-1.4c-0.7-1-1-2.3-1.1-3.2h8.3c0,0,0.1,0.1,0.1,0.1c0.3,0.5,0.9,0.6,1.4,0.3c0.5-0.3,0.6-0.9,0.3-1.4
			c-1.2-1.7-0.9-3.6,1-5.8c0.3-0.3,1.2-1.2,1.1-2.4c-0.1-0.9-0.7-1.7-1.9-2.4c0,0-0.1,0-0.1,0c0,0-1.2-0.5-1-1.6
			c0.1-0.7,1.5-0.8,2.4-0.8c2.3,0.2,4,0.8,4.8,1.8c0.6,0.7,0.8,1.7,0.6,2.9c0,0.3-0.1,0.5-0.1,0.8c-0.6,3.8-1.3,8.4-5,11.6
			c-0.4,0.4-0.5,1-0.1,1.4c0.2,0.2,0.5,0.4,0.8,0.4c0.2,0,0.5-0.1,0.7-0.2c4.3-3.6,5.1-8.9,5.7-12.8c0-0.3,0.1-0.5,0.1-0.8
			C1176.4,274.9,1176.1,273.4,1175.1,272.2z M1151.7,276.5c-0.6,0-1-0.5-1-1v-0.1c0-0.6,0.5-1,1-1h0.8h0.8v2.2h-0.8H1151.7
			L1151.7,276.5z M1151.5,271.2c0-0.6,0.5-1,1-1h0.8v2.2h-0.8c-0.6,0-1-0.5-1-1V271.2z M1153.2,280.7h-0.8c-0.6,0-1-0.5-1-1v-0.1
			c0-0.6,0.5-1,1-1h0.8V280.7z M1156.3,283.6c-0.6,0-1-0.5-1-1v-0.8h9.2c-0.1,0.7,0,1.3,0.1,1.8H1156.3z M1164.3,272.1
			c-0.3,2.1,1.3,3.3,2.2,3.7c0.5,0.3,0.8,0.6,0.8,0.7c0,0.2-0.3,0.6-0.5,0.7c0,0-0.1,0.1-0.1,0.1c-0.7,0.8-1.2,1.6-1.6,2.3h-9.8
			v-23.7c0-0.6,0.5-1,1-1h12.5c0.6,0,1,0.5,1,1v13.7c-0.3,0-0.6-0.1-0.9-0.1C1166.3,269.5,1164.6,270.4,1164.3,272.1z"/>
		<path class="st0" d="M1161.8,261.4h-2.4c-0.3,0-0.5,0.2-0.5,0.5v2.4c0,0.3,0.2,0.5,0.5,0.5h2.4c0.3,0,0.5-0.2,0.5-0.5v-2.4
			C1162.3,261.7,1162.1,261.4,1161.8,261.4z"/>
		<path class="st0" d="M1161.1,267.5h-1.3v-1.2c0-0.3-0.2-0.5-0.5-0.5s-0.5,0.2-0.5,0.5v1.7c0,0.3,0.2,0.5,0.5,0.5h1.8
			c0.3,0,0.5-0.2,0.5-0.5S1161.4,267.5,1161.1,267.5z"/>
		<path class="st0" d="M1165.6,261.4h-2.4c-0.3,0-0.5,0.2-0.5,0.5v2.4c0,0.3,0.2,0.5,0.5,0.5h2.4c0.3,0,0.5-0.2,0.5-0.5v-2.4
			C1166.1,261.7,1165.8,261.4,1165.6,261.4z M1165.1,263.9h-1.4v-1.4h1.4V263.9z"/>
		<path class="st0" d="M1165.1,265.8h-1.4c-0.3,0-0.5,0.2-0.5,0.5v1.4c0,0.3,0.2,0.5,0.5,0.5h1.4c0.3,0,0.5-0.2,0.5-0.5v-1.4
			C1165.6,266,1165.3,265.8,1165.1,265.8z"/>
	</g>
</g>
<g>
	<g>
		<g>
			<path class="st0" d="M1333.1,71h-26.2c-3.5,0-6.4,2.9-6.4,6.4v21.8c0,3.5,2.9,6.4,6.4,6.4h4.3l7.7,6.6c0.6,0.5,1.5,0.5,2.2,0
				l7.7-6.6h4.3c3.5,0,6.4-2.9,6.4-6.4V77.4C1339.5,73.9,1336.6,71,1333.1,71z M1320,108.8l-3.7-3.1h7.3L1320,108.8z M1336.1,99.2
				c0,1.7-1.4,3.1-3.1,3.1c-1,0-24.6,0-26.2,0c-1.7,0-3.1-1.4-3.1-3.1V77.4c0-1.7,1.4-3.1,3.1-3.1h26.2c1.7,0,3.1,1.4,3.1,3.1V99.2
				L1336.1,99.2z"/>
			<path class="st0" d="M1331,79.6h-11c-0.9,0-1.7,0.7-1.7,1.7s0.7,1.7,1.7,1.7h11c0.9,0,1.7-0.7,1.7-1.7
				C1332.6,80.4,1331.9,79.6,1331,79.6z"/>
			<path class="st0" d="M1308.8,82.9c0.1,0,0.2,0,0.3,0c0.9-0.1,1.5-0.8,1.5-1.6c0-0.8-0.6-1.6-1.5-1.6c-0.1,0-0.2,0-0.3,0
				c-0.9,0.1-1.5,0.8-1.5,1.6C1307.4,82.1,1308,82.8,1308.8,82.9z"/>
			<path class="st0" d="M1320,93.8h-11c-0.9,0-1.7,0.7-1.7,1.7s0.7,1.7,1.7,1.7h11c0.9,0,1.7-0.7,1.7-1.7S1320.9,93.8,1320,93.8z"/>
			<path class="st0" d="M1314.3,82.9c0.1,0,0.2,0,0.3,0c0.9-0.1,1.5-0.8,1.5-1.6c0-0.8-0.6-1.6-1.5-1.6c-0.1,0-0.2,0-0.3,0
				c-0.9,0.1-1.5,0.8-1.5,1.6C1312.8,82.1,1313.5,82.8,1314.3,82.9z"/>
			<path class="st0" d="M1308.8,90c0.1,0,0.2,0,0.3,0c0.9-0.1,1.5-0.8,1.5-1.6c0-0.8-0.6-1.6-1.5-1.6c-0.1,0-0.2,0-0.3,0
				c-0.9,0.1-1.5,0.8-1.5,1.6C1307.4,89.2,1308,89.9,1308.8,90z"/>
			<path class="st0" d="M1320.1,90c0.9-0.1,1.5-0.8,1.5-1.6c0-0.8-0.6-1.6-1.5-1.6c-0.1,0-0.2,0-0.3,0c-0.9,0.1-1.5,0.8-1.5,1.6
				c0,0.8,0.6,1.6,1.5,1.6C1319.9,90,1320,90,1320.1,90z"/>
			<path class="st0" d="M1331.1,86.7c-0.1,0-0.2,0-0.3,0c-0.9,0.1-1.5,0.8-1.5,1.6c0,0.8,0.6,1.6,1.5,1.6c0.1,0,0.2,0,0.3,0
				c0.9-0.1,1.5-0.8,1.5-1.6C1332.6,87.5,1332,86.8,1331.1,86.7z"/>
			<path class="st0" d="M1331.1,93.8c-0.1,0-0.2,0-0.3,0c-0.9,0.1-1.5,0.8-1.5,1.6c0,0.8,0.6,1.6,1.5,1.6c0.1,0,0.2,0,0.3,0
				c0.9-0.1,1.5-0.8,1.5-1.6C1332.6,94.6,1332,93.9,1331.1,93.8z"/>
			<path class="st0" d="M1325.7,93.8c-0.1,0-0.2,0-0.3,0c-0.9,0.1-1.5,0.8-1.5,1.6c0,0.8,0.6,1.6,1.5,1.6c0.1,0,0.2,0,0.3,0
				c0.9-0.1,1.5-0.8,1.5-1.6C1327.2,94.6,1326.5,93.9,1325.7,93.8z"/>
		</g>
	</g>
</g>
<g>
	<g>
		<g>
			<path class="st0" d="M989.2,296.7h-20.7c-4.1,0-7.4,3.3-7.4,7.4c0,4.1,3.3,7.4,7.4,7.4h20.7c4.1,0,7.4-3.3,7.4-7.4
				C996.6,300,993.2,296.7,989.2,296.7z M989.2,308.5h-20.7c-2.5,0-4.4-2-4.4-4.4s2-4.4,4.4-4.4h20.7c2.5,0,4.4,2,4.4,4.4
				S991.6,308.5,989.2,308.5z"/>
			<path class="st0" d="M972.9,295.2h11.8c0.8,0,1.5-0.7,1.5-1.5v-8.9c0-0.8-0.7-1.5-1.5-1.5v-1.5c0-3.3-2.7-5.9-5.9-5.9
				s-5.9,2.7-5.9,5.9v1.5c-0.8,0-1.5,0.7-1.5,1.5v8.9C971.4,294.5,972.1,295.2,972.9,295.2z M975.8,281.9c0-1.6,1.3-3,3-3s3,1.3,3,3
				v1.5h-5.9L975.8,281.9L975.8,281.9z M983.2,292.2h-8.9v-5.9h8.9V292.2z"/>
			<path class="st0" d="M969.9,301.1c-0.8,0-1.5,0.7-1.5,1.5v3c0,0.8,0.7,1.5,1.5,1.5c0.8,0,1.5-0.7,1.5-1.5v-3
				C971.4,301.8,970.7,301.1,969.9,301.1z"/>
			<path class="st0" d="M975.8,301.1c-0.8,0-1.5,0.7-1.5,1.5v3c0,0.8,0.7,1.5,1.5,1.5c0.8,0,1.5-0.7,1.5-1.5v-3
				C977.3,301.8,976.7,301.1,975.8,301.1z"/>
			<path class="st0" d="M981.8,301.1c-0.8,0-1.5,0.7-1.5,1.5v3c0,0.8,0.7,1.5,1.5,1.5c0.8,0,1.5-0.7,1.5-1.5v-3
				C983.2,301.8,982.6,301.1,981.8,301.1z"/>
			<path class="st0" d="M989.2,304.1h-3c-0.8,0-1.5,0.7-1.5,1.5c0,0.8,0.7,1.5,1.5,1.5h3c0.8,0,1.5-0.7,1.5-1.5
				C990.6,304.7,990,304.1,989.2,304.1z"/>
		</g>
	</g>
</g>
<g>
	<path class="st0" d="M1010.8,166c-2.3-1.5-5.4-0.9-6.9,1.4c-0.5,0.7-0.7,1.5-0.8,2.3c-0.4,0.2-0.9,0.4-1.4,0.5
		c-0.5,0.1-1.1,0.1-1.6,0.1c-0.3-0.6-0.8-1-1.3-1.4c-1.3-0.9-3-1-4.5-0.3c-0.4-0.2-0.9-0.6-1.2-0.9c-0.3-0.3-0.6-0.7-0.8-1.1
		c0.2-0.2,0.3-0.4,0.4-0.6c2.7-4.1,1.6-9.6-2.4-12.3c-4.1-2.7-9.6-1.6-12.3,2.4c-1.9,2.8-2,6.4-0.3,9.3c-0.4,0.5-1.1,1.1-1.7,1.5
		c-0.7,0.5-1.5,0.9-2.1,1.2c-0.1,0-0.1,0.1-0.2,0.1c-0.1-0.1-0.2-0.1-0.3-0.2c-2.6-1.7-6.1-1-7.8,1.5c-0.1,0.1-0.2,0.3-0.3,0.5
		c-0.7-0.1-1.6-0.4-2.4-0.7c-0.8-0.3-1.7-0.8-2.3-1.3c-0.1-0.1-0.2-0.1-0.3-0.2c0.1-1.9-0.9-3.8-2.5-4.8c-0.5-0.4-1.1-0.6-1.7-0.8
		c-0.1-0.3-0.1-0.7-0.1-1.1c0-0.4,0.1-0.8,0.2-1.1c1.5-0.3,2.9-1.1,3.7-2.4c1-1.5,1.2-3.2,0.7-4.9c0.4-0.5,0.9-0.9,1.4-1.3
		c0.6-0.4,1.2-0.7,1.8-0.9c0.1,0.1,0.2,0.1,0.3,0.2c2.3,1.5,5.4,0.9,6.9-1.4c1.5-2.3,0.9-5.4-1.4-6.9c-2.3-1.5-5.4-0.9-6.9,1.4
		c-0.8,1.3-1.1,2.8-0.6,4.3c-0.4,0.5-0.9,0.9-1.4,1.3c-0.5,0.4-1.1,0.7-1.7,0.8c-0.2-0.2-0.4-0.3-0.6-0.5c-2.1-1.4-5-1.2-6.9,0.5
		l0,0c-0.5-0.1-1.2-0.3-1.7-0.7c-0.5-0.3-1-0.7-1.4-1.1c0.6-2.3-0.3-4.7-2.3-6c-2.5-1.7-6-1-7.7,1.5c-1.7,2.5-1,6,1.5,7.7
		c2.2,1.5,5.1,1.2,6.9-0.7c0.5,0.1,1.1,0.3,1.7,0.6c0.5,0.3,1,0.6,1.3,1c-0.8,2.4,0.1,5,2.2,6.5c0.4,0.3,0.9,0.5,1.3,0.7
		c0.1,0.4,0.1,0.8,0.1,1.2c0,0.4-0.1,0.8-0.3,1.2c-1.3,0.3-2.5,1.1-3.2,2.3c-1.7,2.5-1,6,1.5,7.7c2.5,1.7,6,1,7.7-1.5
		c0,0,0.1,0,0.1,0c0.8,0.1,1.7,0.4,2.5,0.7c0.8,0.3,1.7,0.8,2.3,1.3c0.1,0.1,0.3,0.2,0.4,0.3c0.1,1.7,1,3.3,2.5,4.3
		c0.6,0.4,1.3,0.7,2,0.8c0,0.1,0.1,0.1,0.1,0.2c0.3,0.6,0.5,1.5,0.6,2.3c0.1,0.8,0.1,1.7,0,2.3c0,0,0,0.1,0,0.1
		c-1.2,0.5-2.3,1.3-3,2.4c-2,3-1.2,7,1.8,9c3,2,7,1.2,9-1.8s1.2-7-1.8-9c-0.9-0.6-2-1-3-1.1c0,0,0,0,0-0.1c-0.3-0.6-0.5-1.5-0.6-2.3
		c-0.1-0.8-0.1-1.7,0-2.3c0,0,0,0,0-0.1c1.1-0.4,2.1-1.1,2.7-2.1c1-1.5,1.2-3.4,0.6-5.1c0,0,0.1-0.1,0.1-0.1
		c0.5-0.5,1.1-1.1,1.8-1.6c0.7-0.5,1.5-0.9,2.1-1.2l0,0c0.3,0.3,0.6,0.5,0.9,0.7c2,1.3,4.3,1.8,6.7,1.3c1.1-0.2,2.2-0.7,3.1-1.3
		c0.4,0.2,0.8,0.6,1.2,0.9c0.4,0.4,0.7,0.8,0.9,1.2c-1.1,2-0.4,4.6,1.5,5.8c0.1,0.1,0.2,0.1,0.2,0.1c0,0.5-0.1,1-0.2,1.4
		c-0.1,0.5-0.4,1-0.6,1.4c-1.4,0.1-2.6,0.8-3.4,1.9c-1.3,2-0.8,4.7,1.2,6.1c2,1.3,4.7,0.8,6.1-1.2c1.3-2,0.8-4.7-1.1-6
		c0-0.5,0-1,0.2-1.5c0.2-0.5,0.4-1.1,0.7-1.5c1.3-0.2,2.5-0.9,3.2-2c0.4-0.6,0.7-1.3,0.7-2.1c0.4-0.2,0.9-0.4,1.4-0.5
		c0.5-0.1,1-0.1,1.5-0.1c0.4,0.7,0.9,1.4,1.6,1.8c2.3,1.5,5.4,0.9,6.9-1.4C1013.6,170.6,1013,167.5,1010.8,166z M1006.5,172.3
		c-1.2-0.8-1.5-2.4-0.7-3.6c0.8-1.2,2.4-1.5,3.6-0.7c1.2,0.8,1.5,2.4,0.7,3.6C1009.3,172.7,1007.7,173.1,1006.5,172.3z M997.4,170.9
		c1,0.7,1.2,2,0.6,2.9c-0.7,1-2,1.2-2.9,0.6c-1-0.6-1.2-2-0.6-2.9C995.1,170.5,996.4,170.2,997.4,170.9z M992.2,185.4
		c-0.9-0.6-1.2-1.9-0.5-2.8c0.6-0.9,1.9-1.2,2.8-0.5c0.9,0.6,1.2,1.9,0.5,2.8C994.4,185.7,993.2,186,992.2,185.4z M971.9,170
		c1.5,1,1.9,3,0.9,4.4c-1,1.5-3,1.9-4.5,0.9c-1.5-1-1.9-3-0.9-4.5C968.5,169.4,970.5,169,971.9,170z M981.7,166.4c-3-2-3.8-6-1.8-9
		c2-3,6-3.8,9-1.8c3,2,3.8,6,1.8,9c-1,1.4-2.4,2.4-4.1,2.7C984.8,167.7,983.1,167.3,981.7,166.4z M957.1,151.8c1.5,1,1.9,3,0.9,4.5
		c-1,1.5-3,1.9-4.5,0.9c-1.5-1-1.9-3-0.9-4.5C953.6,151.2,955.6,150.8,957.1,151.8z M968.3,144.5c1.2,0.8,1.5,2.4,0.7,3.6
		c-0.8,1.2-2.4,1.5-3.6,0.7c-1.2-0.8-1.5-2.4-0.7-3.6C965.5,144,967.1,143.7,968.3,144.5z M952.9,170.2c-1.4-1-1.8-2.9-0.9-4.4
		c1-1.4,2.9-1.8,4.4-0.9c1.4,1,1.8,2.9,0.9,4.4C956.4,170.8,954.4,171.2,952.9,170.2z M941.3,149.8c-1.4-1-1.8-2.9-0.9-4.4
		c1-1.4,2.9-1.8,4.3-0.9c1.4,1,1.8,2.9,0.9,4.3C944.7,150.3,942.8,150.7,941.3,149.8z M969.8,192.5c-1.9-1.3-2.4-3.8-1.1-5.7
		c1.3-1.9,3.8-2.4,5.7-1.1c1.9,1.3,2.4,3.8,1.1,5.7S971.7,193.8,969.8,192.5z"/>
</g>
<path class="st0" d="M1296.6,249c0,0.3,0.2,0.5,0.4,0.5h10.9c0.2,0,0.4-0.2,0.4-0.5v-2.8c0-0.3-0.2-0.5-0.4-0.5h-10.9
	c-0.2,0-0.4,0.2-0.4,0.5V249z M1285.2,249.3l11.3-9.5c0.2-0.2,0.2-0.5,0-0.7l-11.3-9.5c-0.2-0.2-0.5-0.1-0.7,0.1
	c-0.1,0.1-0.1,0.2-0.1,0.3v3.7c0,0.1,0.1,0.3,0.2,0.4l6.5,5.4l-6.5,5.4c-0.1,0.1-0.2,0.2-0.2,0.4v3.7
	C1284.4,249.4,1284.9,249.6,1285.2,249.3L1285.2,249.3z M1318,216h-43.2c-1,0-1.9,0.8-1.9,1.9v43.2c0,1,0.8,1.9,1.9,1.9h43.2
	c1,0,1.9-0.8,1.9-1.9v-43.2C1319.9,216.8,1319,216,1318,216z M1315.7,258.8h-38.5v-38.5h38.5V258.8z"/>
<g>
	<g>
		<g>
			<path class="st0" d="M1000.4,50.4H995V34.3c0-3.1-2.5-5.6-5.6-5.6h-40.2c-3.1,0-5.6,2.5-5.6,5.6v23.5c0,3.1,2.5,5.6,5.6,5.6h5.1
				v16.2c0,2.5,2.1,4.6,4.6,4.6h10.2c2.5,0,4.6-2.1,4.6-4.6V63.3h3.7v8.1c0,2.2,1.8,4,4,4h19c2.2,0,4-1.8,4-4v-17
				C1004.5,52.2,1002.7,50.4,1000.4,50.4z M999.3,52.7c0.7,0,1.2,0.6,1.2,1.2c0,0.7-0.6,1.2-1.2,1.2c-0.7,0-1.2-0.6-1.2-1.2
				C998,53.2,998.6,52.7,999.3,52.7z M1001.4,72h-21V57h21V72L1001.4,72z M995.7,52.7c0.7,0,1.2,0.6,1.2,1.2c0,0.7-0.6,1.2-1.2,1.2
				c-0.7,0-1.2-0.6-1.2-1.2C994.5,53.2,995,52.7,995.7,52.7z M988.2,31.5c0.9,0,1.6,0.7,1.6,1.6c0,0.9-0.7,1.6-1.6,1.6
				c-0.9,0-1.6-0.7-1.6-1.6C986.6,32.3,987.3,31.5,988.2,31.5z M983.5,31.5c0.9,0,1.6,0.7,1.6,1.6c0,0.9-0.7,1.6-1.6,1.6
				c-0.9,0-1.6-0.7-1.6-1.6S982.6,31.5,983.5,31.5z M964,54.7c0-0.7,0.6-1.2,1.2-1.2c0.7,0,1.2,0.6,1.2,1.2c0,0.7-0.6,1.2-1.2,1.2
				C964.5,55.9,964,55.4,964,54.7z M967.5,54.7c0-0.7,0.6-1.2,1.2-1.2c0.7,0,1.2,0.6,1.2,1.2c0,0.7-0.6,1.2-1.2,1.2
				C968.1,55.9,967.5,55.4,967.5,54.7z M970.3,80.2h-12.4v-22h12.4L970.3,80.2L970.3,80.2z M973.7,58.6v-3c0-2.5-2.1-4.6-4.6-4.6
				h-10.2c-2.5,0-4.6,2.1-4.6,4.6v3h-6.5v-21h42.9v12.9h-9.4c-2.2,0-4,1.8-4,4v4.1L973.7,58.6L973.7,58.6z"/>
		</g>
	</g>
</g>
<g>
	<g>
		<g>
			<path class="st0" d="M1034.6,401.5h9c2.5,0,4.5-2.3,4.5-5.1s-2-5.1-4.5-5.1h-9c-2.5,0-4.5,2.3-4.5,5.1S1032.1,401.5,1034.6,401.5
				z M1034.6,393.5h9c1.4,0,2.5,1.3,2.5,2.9c0,1.6-1.1,2.9-2.5,2.9h-9c-1.4,0-2.5-1.3-2.5-2.9
				C1032.1,394.8,1033.2,393.5,1034.6,393.5z"/>
			<path class="st0" d="M1064.6,392.4c-0.2-0.8-0.6-1.5-1.3-1.9l-1.9-1.2v-8.5c0-0.6-0.4-1.1-1-1.1h-42.9c-0.6,0-1,0.5-1,1.1v41.4
				c0,0.6,0.4,1.1,1,1.1h42.9c0.6,0,1-0.5,1-1.1v-21.7l2.9-5.7C1064.7,394,1064.8,393.2,1064.6,392.4z M1018.6,381.9h40.9v2.3h-40.9
				V381.9z M1059.5,421h-40.9v-34.6h40.9v1.9c-1,0-2,0.5-2.5,1.6l-7.4,14.6h-22.6c-0.6,0-1,0.5-1,1.1v4.6c0,0.6,0.4,1.1,1,1.1h19.8
				l0.1,6.3c0,0.4,0.2,0.8,0.5,1c0.2,0.1,0.3,0.2,0.5,0.2c0.2,0,0.3,0,0.5-0.1l5.6-3.6c0.1-0.1,0.2-0.2,0.3-0.3c0,0,0-0.1,0.1-0.1
				c0,0,0,0,0,0l5.2-10.3L1059.5,421L1059.5,421z M1049.2,410l5.4-10.8l3.9,2.6l-5.4,10.8L1049.2,410z M1051.4,414.1l-2.6,1.7l0-3.4
				l1.3,0.9L1051.4,414.1z M1048.5,406.8l-1.2,2.3h-19.3v-2.3H1048.5z M1059.5,399.8l-3.9-2.6l1-2l3.9,2.6L1059.5,399.8z
				 M1062.6,393.6l-1.1,2.2l-3.9-2.6l1.1-2.2c0.2-0.4,0.7-0.6,1.1-0.3l2.5,1.7C1062.7,392.7,1062.8,393.2,1062.6,393.6z"/>
			<path class="st0" d="M1035.7,414h-8.4c-0.6,0-1,0.5-1,1.1s0.4,1.1,1,1.1h8.4c0.6,0,1-0.5,1-1.1
				C1036.7,414.5,1036.3,414,1035.7,414z"/>
			<path class="st0" d="M1039.7,414L1039.7,414c-0.7,0-1.1,0.5-1.1,1.1s0.4,1.1,1,1.1h0.1c0.6,0,1-0.5,1-1.1S1040.2,414,1039.7,414z
				"/>
		</g>
	</g>
</g>
<g>
	<g>
		<path class="st0" d="M837.9,287.8h-13.5c0,0,0,0,0,0s0,0,0,0h-14.6l0,0h-13.5v-27h41.6L837.9,287.8L837.9,287.8L837.9,287.8z
			 M840,256.7h-45.8c-1.2,0-2.1,0.9-2.1,2.1v31.1c0,1.2,0.9,2.1,2.1,2.1h12l-6.6,11.6c-0.6,1-0.2,2.3,0.8,2.8c1,0.6,2.3,0.2,2.8-0.8
			L811,292h12.2l7.8,13.6c0.6,1,1.8,1.3,2.8,0.8c1-0.6,1.3-1.8,0.8-2.8l-6.6-11.5h12c1.2,0,2.1-0.9,2.1-2.1v-31.1
			C842.1,257.6,841.2,256.7,840,256.7z"/>
		<path class="st0" d="M800.5,284c0.8,0.7,2.4,0.3,2.9-0.4l6.7-8.6l10.2,7c0.9,0.6,2.1,0.4,2.8-0.4l11-14c0.7-0.9,0.6-2.2-0.4-2.9
			c-0.9-0.7-2.2-0.6-2.9,0.4l-9.8,12.5l-10.2-7c-0.9-0.6-2.1-0.4-2.8,0.4l-7.9,10.1C799.4,282,799.6,283.3,800.5,284L800.5,284z"/>
	</g>
</g>
<g>
	<path class="st0" d="M1252.8,392.4c-3.6,3.6-3.6,9.5,0,13.1c1.8,1.8,4.2,2.7,6.5,2.7c2.4,0,4.7-0.9,6.5-2.7c3.6-3.6,3.6-9.5,0-13.1
		C1262.2,388.8,1256.4,388.8,1252.8,392.4z M1266.2,403v-8.2C1267.7,397.3,1267.7,400.5,1266.2,403z M1265,393.3v11.3
		c0,0,0,0-0.1,0.1c-3.1,3.1-8.2,3.1-11.4,0c-0.5-0.5-0.9-1-1.2-1.5h0.7c0.3,0,0.6-0.3,0.6-0.6s-0.3-0.6-0.6-0.6h-1.3
		c-0.5-1.2-0.6-2.4-0.5-3.7h4.7c0.3,0,0.6-0.3,0.6-0.6s-0.3-0.6-0.6-0.6h-4.5c0.3-1.3,1-2.6,2-3.7h7.6c0.3,0,0.6-0.3,0.6-0.6
		s-0.3-0.6-0.6-0.6h-6.2c1.3-0.9,2.9-1.3,4.5-1.3C1261.3,390.9,1263.4,391.7,1265,393.3C1265,393.2,1265,393.3,1265,393.3z"/>
	<path class="st0" d="M1277.4,414l-8.6-8.6c1.3-1.9,2-4.1,2-6.5c0-3.1-1.2-6-3.4-8.1c-0.9-0.9-1.9-1.6-3-2.2v-5.3
		c0-0.3-0.3-0.6-0.6-0.6h-26c-0.2,0-0.3,0.1-0.4,0.2l-6,6c-0.1,0.1-0.2,0.3-0.2,0.4v38.9c0,0.3,0.3,0.6,0.6,0.6h32
		c0.3,0,0.6-0.3,0.6-0.6v-19c0.5-0.2,0.9-0.5,1.3-0.8l8.6,8.6c0.4,0.4,1,0.6,1.5,0.6c0.5,0,1.1-0.2,1.5-0.6c0.4-0.4,0.6-0.9,0.6-1.5
		C1278,414.9,1277.8,414.4,1277.4,414z M1269.6,398.9c0,2.8-1.1,5.4-3,7.3c-4,4-10.6,4-14.6,0c-2-2-3-4.5-3-7.3c0-2.8,1.1-5.4,3-7.3
		c2-2,4.7-3,7.3-3c2.6,0,5.3,1,7.3,3C1268.6,393.6,1269.6,396.2,1269.6,398.9z M1237.3,384.7v4h-4L1237.3,384.7z M1263.3,427.6
		h-30.8v-37.7h5.4c0.3,0,0.6-0.3,0.6-0.6v-5.4h24.8v4.2c-4.1-1.5-8.9-0.6-12.1,2.7c-0.7,0.7-1.3,1.5-1.8,2.4h-5.6
		c-0.3,0-0.6,0.3-0.6,0.6s0.3,0.6,0.6,0.6h5c-0.3,0.8-0.6,1.6-0.7,2.4h-10.9c-0.3,0-0.6,0.3-0.6,0.6s0.3,0.6,0.6,0.6h10.8
		c0,0.3,0,0.6,0,0.9c0,0.5,0,1,0.1,1.5h-5.5c-0.3,0-0.6,0.3-0.6,0.6c0,0.3,0.3,0.6,0.6,0.6h5.8c0.2,0.8,0.5,1.7,0.9,2.4h-11.9
		c-0.3,0-0.6,0.3-0.6,0.6s0.3,0.6,0.6,0.6h12.6c0.4,0.7,0.9,1.3,1.5,1.9c0.2,0.2,0.4,0.4,0.6,0.6h-2c-0.3,0-0.6,0.3-0.6,0.6
		c0,0.3,0.3,0.6,0.6,0.6h3.7c1.8,1.1,3.9,1.6,5.9,1.6c1.3,0,2.7-0.2,4-0.7V427.6z M1267.4,407.1c0.2-0.2,0.4-0.5,0.6-0.7l6.1,6.1
		l-1.3,1.3l-6.1-6.1C1267,407.5,1267.2,407.3,1267.4,407.1z M1276.5,416.2c-0.4,0.4-1,0.4-1.3,0l-1.6-1.6l1.3-1.3l1.6,1.6
		c0.2,0.2,0.3,0.4,0.3,0.7C1276.8,415.8,1276.7,416,1276.5,416.2z"/>
	<path class="st0" d="M1237.1,394.4h4.7c0.3,0,0.6-0.3,0.6-0.6s-0.3-0.6-0.6-0.6h-4.7c-0.3,0-0.6,0.3-0.6,0.6
		S1236.7,394.4,1237.1,394.4z"/>
	<path class="st0" d="M1237.1,401.6h3.3c0.3,0,0.6-0.3,0.6-0.6s-0.3-0.6-0.6-0.6h-3.3c-0.3,0-0.6,0.3-0.6,0.6
		S1236.7,401.6,1237.1,401.6z"/>
	<path class="st0" d="M1237.1,408.8h10.9c0.3,0,0.6-0.3,0.6-0.6c0-0.3-0.3-0.6-0.6-0.6h-10.9c-0.3,0-0.6,0.3-0.6,0.6
		C1236.5,408.5,1236.7,408.8,1237.1,408.8z"/>
	<path class="st0" d="M1258.7,411.2h-17.2c-0.3,0-0.6,0.3-0.6,0.6s0.3,0.6,0.6,0.6h17.2c0.3,0,0.6-0.3,0.6-0.6
		S1259,411.2,1258.7,411.2z"/>
	<path class="st0" d="M1237.1,412.4h2.6c0.3,0,0.6-0.3,0.6-0.6s-0.3-0.6-0.6-0.6h-2.6c-0.3,0-0.6,0.3-0.6,0.6
		S1236.7,412.4,1237.1,412.4z"/>
	<path class="st0" d="M1258.7,418.4h-11.2c-0.3,0-0.6,0.3-0.6,0.6s0.3,0.6,0.6,0.6h11.2c0.3,0,0.6-0.3,0.6-0.6
		S1259,418.4,1258.7,418.4z"/>
	<path class="st0" d="M1237.1,419.6h8.6c0.3,0,0.6-0.3,0.6-0.6s-0.3-0.6-0.6-0.6h-8.6c-0.3,0-0.6,0.3-0.6,0.6
		S1236.7,419.6,1237.1,419.6z"/>
	<path class="st0" d="M1258.7,422.1h-6.3c-0.3,0-0.6,0.3-0.6,0.6s0.3,0.6,0.6,0.6h6.3c0.3,0,0.6-0.3,0.6-0.6
		S1259,422.1,1258.7,422.1z"/>
	<path class="st0" d="M1250.6,422.1H1240c-0.3,0-0.6,0.3-0.6,0.6s0.3,0.6,0.6,0.6h10.6c0.3,0,0.6-0.3,0.6-0.6
		S1250.9,422.1,1250.6,422.1z"/>
	<path class="st0" d="M1238.2,422.1h-1.2c-0.3,0-0.6,0.3-0.6,0.6s0.3,0.6,0.6,0.6h1.2c0.3,0,0.6-0.3,0.6-0.6
		S1238.6,422.1,1238.2,422.1z"/>
	<path class="st0" d="M1258.7,414.8h-3.6c-0.3,0-0.6,0.3-0.6,0.6c0,0.3,0.3,0.6,0.6,0.6h3.6c0.3,0,0.6-0.3,0.6-0.6
		C1259.3,415.1,1259,414.8,1258.7,414.8z"/>
	<path class="st0" d="M1237.1,416h16c0.3,0,0.6-0.3,0.6-0.6c0-0.3-0.3-0.6-0.6-0.6h-16c-0.3,0-0.6,0.3-0.6,0.6
		C1236.5,415.8,1236.7,416,1237.1,416z"/>
	<path class="st0" d="M1261,397.1h-2.1c-0.3,0-0.6,0.3-0.6,0.6s0.3,0.6,0.6,0.6h2.1c0.3,0,0.6-0.3,0.6-0.6S1261.3,397.1,1261,397.1z
		"/>
	<path class="st0" d="M1261,401.9h-5.4c-0.3,0-0.6,0.3-0.6,0.6s0.3,0.6,0.6,0.6h5.4c0.3,0,0.6-0.3,0.6-0.6S1261.3,401.9,1261,401.9z
		"/>
</g>
</svg>
