<?xml version="1.0" encoding="utf-8"?>
<!-- Generator: Adobe Illustrator 25.2.3, SVG Export Plug-In . SVG Version: 6.00 Build 0)  -->
<svg version="1.1" id="katman_1" xmlns="http://www.w3.org/2000/svg" xmlns:xlink="http://www.w3.org/1999/xlink" x="0px" y="0px"
	 viewBox="0 0 98 67" style="enable-background:new 0 0 98 67;" xml:space="preserve">
<style type="text/css">
	.st0{fill:#49C1ED;}
	.st1{fill:#F0A100;}
</style>
<g>
	<path class="st0" d="M57.1,53.1c-0.7,0.1-1.2,0.2-1.8,0.2c-1.1,0.1-2.2,0.1-3.3,0.1c-7.5,0-14.9,0-22.4,0c-2.2,0-4.5,0-6.7,0
		c-2.1,0-4.1-0.2-6.1-0.8c-5-1.3-8-4.4-9.3-9.4c-0.5-2.2-0.7-4.4-0.7-6.7c0-5.8,0-11.6,0-17.4c0-1.3,0-2.6,0.1-3.9
		c0.4-6,3.2-10.4,8.4-13.3c2.4-1.3,5-1.8,7.7-1.8c3.3,0,6.5-0.1,9.8-0.1C37.8,0,42.9,0,48,0.1c1.9,0,3.8,0.1,5.7,0.2
		c1.6,0.1,3.1,0.4,4.7,0.9c3.1,1,5.1,3.1,6.1,6.2c0.5,1.6,0.7,3.2,0.9,4.9c0.1,1.5,0.1,3,0.2,4.6c0,0.4-0.1,0.7-0.4,0.9
		C58.3,23.1,51.6,28.6,44.9,34c-0.4,0.3-0.8,0.4-1.3,0.3c-0.9-0.2-1.6-0.6-2.3-1.2c-1.9-1.8-3.9-3.5-5.9-5.2c-1.9-1.7-3.7-3.3-5.6-5
		c-0.3-0.3-0.6-0.6-0.9-1c0.1-0.3,0.2-0.5,0.4-0.8c0.6,0,1.1,0,1.6,0c5.1,0,10.2,0.1,15.3,0.1c1,0,2,0,3,0c2.5,0,4.6-1.7,5.2-4.2
		c0.5-2.3-0.6-4.6-2.7-5.5c-0.9-0.4-1.9-0.6-2.9-0.6c-1.3,0-2.7,0-4,0c-4.1,0-8.2,0-12.4,0c-2.3,0-4.7,0-7,0.1c-1,0-2,0.2-3,0.4
		c-2.3,0.5-3.8,2-4.3,4.3c-0.3,1.2-0.4,2.3-0.4,3.5c0,5.3,0,10.7,0,16c0,0.9,0.1,1.9,0.3,2.8c0.5,2.4,2.1,3.8,4.5,4.3
		c0.9,0.2,1.8,0.3,2.7,0.3c5.6,0,11.2,0,16.9,0c1.4,0,2.7,0,4.1,0.1c0.8,0,1.5,0.3,2.1,1c2.9,3.1,5.7,6.1,8.6,9.2
		C56.9,52.9,57,53,57.1,53.1z"/>
	<path class="st1" d="M91.2,66.9c-0.3,0-0.5,0-0.7,0c-3.8,0-7.6,0-11.4,0c-0.9,0-1.9,0-2.8,0c-0.4,0-0.7-0.1-1-0.4
		c-0.2-0.1-0.3-0.3-0.5-0.4C65.7,56.7,56.5,47.4,47.4,38c-0.2-0.2-0.3-0.4-0.6-0.6c0.1-0.1,0.3-0.2,0.4-0.3
		c8.5-7.2,17-14.4,25.5-21.7c0.2-0.1,0.3-0.3,0.5-0.4c0.8-0.7,1.8-1.1,2.9-1.1c3.9,0,7.7,0,11.6,0c0.4,0,0.9,0,1.3,0
		c0.4,0,0.7,0.1,0.8,0.5c0,0.1,0.1,0.2,0.2,0.4c-9.3,8-18.7,15.9-28,24C71.7,48.2,81.4,57.5,91.2,66.9z"/>
</g>
</svg>
