<?xml version="1.0" encoding="utf-8"?>
<!-- Generator: Adobe Illustrator 25.2.3, SVG Export Plug-In . SVG Version: 6.00 Build 0)  -->
<svg version="1.1" id="katman_1" xmlns="http://www.w3.org/2000/svg" xmlns:xlink="http://www.w3.org/1999/xlink" x="0px" y="0px"
	 viewBox="0 0 44 30" style="enable-background:new 0 0 44 30;" xml:space="preserve">
<style type="text/css">
	.st0{fill:#49C1ED;}
	.st1{fill:#F0A100;}
</style>
<g>
	<path class="st0" d="M25.6,23.8c-0.3,0-0.5,0.1-0.8,0.1c-0.5,0-1,0.1-1.5,0.1c-3.3,0-6.7,0-10,0c-1,0-2,0-3,0
		c-0.9,0-1.8-0.1-2.7-0.3c-2.2-0.6-3.6-2-4.2-4.2c-0.2-1-0.3-2-0.3-3c0-2.6,0-5.2,0-7.8c0-0.6,0-1.2,0-1.8c0.2-2.7,1.4-4.6,3.8-5.9
		C8,0.3,9.1,0.1,10.3,0.1C11.8,0,13.3,0,14.7,0c2.3,0,4.6,0,6.8,0c0.9,0,1.7,0,2.6,0.1c0.7,0,1.4,0.2,2.1,0.4
		c1.4,0.4,2.3,1.4,2.7,2.8c0.2,0.7,0.3,1.4,0.4,2.2c0,0.7,0,1.4,0.1,2c0,0.2,0,0.3-0.2,0.4c-3,2.4-6,4.9-9.1,7.3
		c-0.2,0.1-0.4,0.2-0.6,0.1c-0.4-0.1-0.7-0.3-1-0.5c-0.9-0.8-1.8-1.6-2.6-2.3c-0.8-0.7-1.7-1.5-2.5-2.2c-0.1-0.1-0.3-0.3-0.4-0.4
		c0.1-0.1,0.1-0.2,0.2-0.4c0.3,0,0.5,0,0.7,0c2.3,0,4.6,0,6.8,0c0.4,0,0.9,0,1.3,0c1.1,0,2.1-0.8,2.3-1.9c0.2-1-0.3-2-1.2-2.5
		c-0.4-0.2-0.8-0.3-1.3-0.3c-0.6,0-1.2,0-1.8,0c-1.8,0-3.7,0-5.5,0c-1.1,0-2.1,0-3.2,0c-0.5,0-0.9,0.1-1.3,0.2C9,5.3,8.4,6,8.1,7
		C8,7.5,8,8.1,8,8.6c0,2.4,0,4.8,0,7.2C8,16.2,8,16.6,8.1,17c0.2,1.1,0.9,1.7,2,1.9c0.4,0.1,0.8,0.1,1.2,0.1c2.5,0,5,0,7.6,0
		c0.6,0,1.2,0,1.8,0c0.4,0,0.7,0.2,1,0.4c1.3,1.4,2.6,2.7,3.8,4.1C25.5,23.7,25.6,23.7,25.6,23.8z"/>
	<path class="st1" d="M40.9,30c-0.1,0-0.2,0-0.3,0c-1.7,0-3.4,0-5.1,0c-0.4,0-0.8,0-1.2,0c-0.2,0-0.3-0.1-0.5-0.2
		c-0.1-0.1-0.1-0.1-0.2-0.2c-4.1-4.2-8.2-8.4-12.3-12.6c-0.1-0.1-0.2-0.2-0.2-0.3c0.1-0.1,0.1-0.1,0.2-0.1c3.8-3.2,7.6-6.5,11.4-9.7
		c0.1-0.1,0.1-0.1,0.2-0.2c0.4-0.3,0.8-0.5,1.3-0.5c1.7,0,3.5,0,5.2,0c0.2,0,0.4,0,0.6,0c0.2,0,0.3,0,0.4,0.2c0,0.1,0,0.1,0.1,0.2
		c-4.2,3.6-8.4,7.1-12.6,10.7C32.2,21.6,36.5,25.8,40.9,30z"/>
</g>
</svg>
