<?xml version="1.0" encoding="utf-8"?>
<!-- Generator: Adobe Illustrator 25.2.3, SVG Export Plug-In . SVG Version: 6.00 Build 0)  -->
<svg version="1.1" id="katman_1" xmlns="http://www.w3.org/2000/svg" xmlns:xlink="http://www.w3.org/1999/xlink" x="0px" y="0px"
	 viewBox="0 0 136 92" style="enable-background:new 0 0 136 92;" xml:space="preserve">
<style type="text/css">
	.st0{fill:#00D2FF;}
	.st1{fill:#EFA000;}
	.st2{fill:#FFFFFF;stroke:#FFFFFF;stroke-miterlimit:10;}
</style>
<g>
	<path class="st0" d="M75.1,48.8c-0.6,0.1-1.1,0.1-1.6,0.2c-1,0.1-1.9,0.1-2.9,0.1c-6.6,0-13.1,0-19.7,0c-2,0-3.9,0-5.9,0
		c-1.8,0-3.6-0.2-5.4-0.7c-4.4-1.1-7.1-3.9-8.2-8.3c-0.5-1.9-0.6-3.9-0.6-5.9c0-5.1,0-10.2,0-15.4c0-1.2,0-2.3,0.1-3.5
		c0.3-5.3,2.8-9.1,7.4-11.7c2.1-1.2,4.4-1.6,6.8-1.6C48,2.1,50.8,2,53.7,2c4.5,0,9,0,13.5,0.1c1.7,0,3.3,0.1,5,0.2
		c1.4,0.1,2.8,0.3,4.1,0.8c2.7,0.9,4.5,2.7,5.4,5.5c0.4,1.4,0.7,2.8,0.8,4.3c0.1,1.3,0.1,2.7,0.2,4c0,0.3-0.1,0.6-0.4,0.8
		c-5.9,4.8-11.9,9.6-17.8,14.4c-0.4,0.3-0.7,0.4-1.1,0.3c-0.8-0.1-1.4-0.5-2-1.1c-1.7-1.6-3.4-3.1-5.2-4.6c-1.6-1.5-3.3-2.9-4.9-4.4
		c-0.3-0.3-0.5-0.6-0.8-0.9c0.1-0.2,0.2-0.5,0.3-0.7c0.5,0,1,0,1.4,0c4.5,0,9,0,13.5,0.1c0.9,0,1.7,0,2.6,0c2.2,0,4.1-1.5,4.6-3.7
		c0.5-2-0.5-4-2.4-4.8c-0.8-0.4-1.7-0.5-2.5-0.6c-1.2,0-2.3,0-3.5,0c-3.6,0-7.3,0-10.9,0c-2.1,0-4.1,0-6.2,0.1
		c-0.9,0-1.8,0.1-2.6,0.3c-2.1,0.4-3.3,1.8-3.8,3.8c-0.2,1-0.3,2.1-0.3,3.1c0,4.7,0,9.4,0,14.1c0,0.8,0.1,1.7,0.3,2.5
		c0.5,2.1,1.8,3.4,3.9,3.8c0.8,0.2,1.6,0.2,2.4,0.2c5,0,9.9,0,14.9,0c1.2,0,2.4,0,3.6,0.1c0.7,0,1.3,0.3,1.9,0.9
		c2.5,2.7,5,5.4,7.6,8.1C75,48.6,75,48.6,75.1,48.8z"/>
	<path class="st1" d="M105.2,61c-0.3,0-0.4,0-0.6,0c-3.4,0-6.7,0-10.1,0c-0.8,0-1.6,0-2.5,0c-0.4,0-0.7-0.1-0.9-0.3
		c-0.1-0.1-0.3-0.2-0.4-0.4C82.7,52,74.6,43.7,66.6,35.4c-0.2-0.2-0.3-0.3-0.5-0.5c0.1-0.1,0.2-0.2,0.3-0.3
		c7.5-6.4,15-12.7,22.5-19.1c0.1-0.1,0.3-0.2,0.4-0.4c0.7-0.6,1.6-1,2.5-0.9c3.4,0,6.8,0,10.2,0c0.4,0,0.8,0,1.2,0
		c0.4,0,0.6,0.1,0.7,0.5c0,0.1,0.1,0.2,0.2,0.4c-8.2,7-16.4,14-24.7,21.1C88,44.4,96.5,52.6,105.2,61z"/>
</g>
<g>
	<path class="st2" d="M21.4,67.9h13V70H23.7v4.2h10.4v2.1H23.7v4.2h10.6v2.1h-13V67.9z"/>
	<path class="st2" d="M36.9,67.9h2.4v9.8l9.6-9.8h3l-4.4,4.5L52,82.7h-2.6l-3.7-8.5l-6.4,6.6v1.9h-2.4V67.9z"/>
	<path class="st2" d="M53.4,76.4v-8.5h2.4v8.7c0,2.3,1.7,4.1,4.1,4.1c2.3,0,4.1-1.8,4.1-4.1v-8.7h2.4v8.5c0,3.9-3,6.5-6.6,6.5
		C56.2,82.9,53.4,80.3,53.4,76.4z"/>
	<path class="st2" d="M69,67.9h8.7c2.6,0,4.3,1.9,4.3,4.2c0,1.8-1.1,3.4-2.7,4l2.7,6.6h-2.5l-2.6-6.3h-5.4v6.3H69V67.9z M77.5,74.2
		c1.3,0,2.1-0.9,2.1-2.1c0-1.3-0.9-2.1-2.1-2.1h-6.1v4.2H77.5z"/>
	<path class="st2" d="M84,76.4v-8.5h2.4v8.7c0,2.3,1.7,4.1,4.1,4.1c2.3,0,4.1-1.8,4.1-4.1v-8.7H97v8.5c0,3.9-3,6.5-6.6,6.5
		C86.8,82.9,84,80.3,84,76.4z"/>
	<path class="st2" d="M99.6,67.9h1.6l5.9,5.9l5.9-5.9h1.6v14.8h-2.4V71.8l-5.2,5l-5.2-5v10.9h-2.4V67.9z"/>
</g>
</svg>
