<?xml version="1.0" encoding="utf-8"?>
<!-- Generator: Adobe Illustrator 25.2.3, SVG Export Plug-In . SVG Version: 6.00 Build 0)  -->
<svg version="1.1" id="katman_1" xmlns="http://www.w3.org/2000/svg" xmlns:xlink="http://www.w3.org/1999/xlink" x="0px" y="0px"
	 viewBox="0 0 164 26" style="enable-background:new 0 0 164 26;" xml:space="preserve">
<style type="text/css">
	.st0{stroke:#000000;stroke-miterlimit:10;}
	.st1{fill:#00D2FF;}
	.st2{fill:#EFA000;}
</style>
<g>
	<path class="st0" d="M39.8,3.3h13.4v2.2h-11v4.4h10.8V12H42.3v4.4h11v2.2H39.8V3.3z"/>
	<path class="st0" d="M55.8,3.3h2.5v10.2l10-10.2h3.1l-4.5,4.7l4.6,10.6h-2.7l-3.8-8.7l-6.6,6.8v1.9h-2.5V3.3z"/>
	<path class="st0" d="M72.9,12.1V3.3h2.5v9c0,2.4,1.8,4.2,4.2,4.2c2.4,0,4.2-1.8,4.2-4.2v-9h2.5v8.8c0,4-3.1,6.7-6.8,6.7
		C75.8,18.7,72.9,16.1,72.9,12.1z"/>
	<path class="st0" d="M89,3.3h9c2.6,0,4.4,2,4.4,4.4c0,1.8-1.1,3.5-2.8,4.1l2.8,6.8h-2.6L97.1,12h-5.6v6.6H89V3.3z M97.8,9.8
		c1.3,0,2.2-0.9,2.2-2.2c0-1.3-0.9-2.2-2.2-2.2h-6.3v4.4H97.8z"/>
	<path class="st0" d="M104.6,12.1V3.3h2.5v9c0,2.4,1.8,4.2,4.2,4.2c2.4,0,4.2-1.8,4.2-4.2v-9h2.5v8.8c0,4-3.1,6.7-6.8,6.7
		C107.5,18.7,104.6,16.1,104.6,12.1z"/>
	<path class="st0" d="M120.7,3.3h1.7l6.1,6.1l6.1-6.1h1.6v15.3h-2.4V7.3l-5.3,5.1l-5.3-5.1v11.3h-2.4V3.3z"/>
</g>
<g>
	<path class="st1" d="M18.4,18.9c-0.2,0-0.4,0-0.5,0.1c-0.3,0-0.7,0-1,0c-2.2,0-4.5,0-6.7,0c-0.7,0-1.3,0-2,0
		c-0.6,0-1.2-0.1-1.8-0.2c-1.5-0.4-2.4-1.3-2.8-2.8c-0.2-0.7-0.2-1.3-0.2-2c0-1.8,0-3.5,0-5.3c0-0.4,0-0.8,0-1.2
		c0.1-1.8,1-3.1,2.5-4C6.6,3.1,7.3,3,8.2,2.9c1,0,2,0,2.9,0c1.5,0,3.1,0,4.6,0c0.6,0,1.1,0,1.7,0.1c0.5,0,0.9,0.1,1.4,0.3
		c0.9,0.3,1.5,0.9,1.8,1.9c0.1,0.5,0.2,1,0.3,1.5c0,0.5,0,0.9,0.1,1.4c0,0.1,0,0.2-0.1,0.3c-2,1.6-4.1,3.3-6.1,4.9
		c-0.1,0.1-0.2,0.1-0.4,0.1c-0.3,0-0.5-0.2-0.7-0.4c-0.6-0.5-1.2-1.1-1.8-1.6c-0.6-0.5-1.1-1-1.7-1.5C10.1,9.7,10,9.6,9.9,9.5
		C10,9.4,10,9.4,10,9.3c0.2,0,0.3,0,0.5,0c1.5,0,3.1,0,4.6,0c0.3,0,0.6,0,0.9,0c0.8,0,1.4-0.5,1.6-1.3c0.2-0.7-0.2-1.4-0.8-1.7
		c-0.3-0.1-0.6-0.2-0.9-0.2c-0.4,0-0.8,0-1.2,0c-1.2,0-2.5,0-3.7,0c-0.7,0-1.4,0-2.1,0C8.6,6.2,8.3,6.3,8,6.3
		C7.3,6.5,6.8,6.9,6.7,7.6C6.6,8,6.6,8.3,6.6,8.7c0,1.6,0,3.2,0,4.8c0,0.3,0,0.6,0.1,0.9c0.2,0.7,0.6,1.1,1.3,1.3
		c0.3,0.1,0.5,0.1,0.8,0.1c1.7,0,3.4,0,5.1,0c0.4,0,0.8,0,1.2,0c0.3,0,0.5,0.1,0.6,0.3C16.6,17,17.5,17.9,18.4,18.9
		C18.4,18.8,18.4,18.9,18.4,18.9z"/>
	<path class="st2" d="M28.7,23.1c-0.1,0-0.2,0-0.2,0c-1.1,0-2.3,0-3.4,0c-0.3,0-0.6,0-0.8,0c-0.1,0-0.2,0-0.3-0.1
		c0,0-0.1-0.1-0.1-0.1c-2.8-2.8-5.5-5.7-8.3-8.5c-0.1-0.1-0.1-0.1-0.2-0.2c0,0,0.1-0.1,0.1-0.1c2.6-2.2,5.1-4.4,7.7-6.5
		c0,0,0.1-0.1,0.1-0.1c0.3-0.2,0.5-0.3,0.9-0.3c1.2,0,2.3,0,3.5,0c0.1,0,0.3,0,0.4,0c0.1,0,0.2,0,0.2,0.2c0,0,0,0.1,0.1,0.1
		c-2.8,2.4-5.6,4.8-8.4,7.2C22.8,17.4,25.8,20.2,28.7,23.1z"/>
</g>
</svg>
