<?xml version="1.0" encoding="utf-8"?>
<!-- Generator: Adobe Illustrator 25.2.3, SVG Export Plug-In . SVG Version: 6.00 Build 0)  -->
<svg version="1.1" id="katman_1" xmlns="http://www.w3.org/2000/svg" xmlns:xlink="http://www.w3.org/1999/xlink" x="0px" y="0px"
	 viewBox="0 0 269 56" style="enable-background:new 0 0 269 56;" xml:space="preserve">
<style type="text/css">
	.st0{stroke:#000000;stroke-miterlimit:10;}
	.st1{fill:#00D2FF;}
	.st2{fill:#EFA000;}
</style>
<g>
	<path class="st0" d="M78.3,10.3h25.1v4.1H83v8.2h20.2v4.1H83v8.2h20.5v4.1H78.3V10.3z"/>
	<path class="st0" d="M108.3,10.3h4.6v19l18.6-19h5.7l-8.5,8.7l8.6,19.8h-5.1l-7.1-16.3l-12.3,12.7v3.6h-4.6V10.3z"/>
	<path class="st0" d="M140.2,26.8V10.3h4.6v16.9c0,4.5,3.4,7.9,7.9,7.9c4.5,0,7.8-3.5,7.8-7.9V10.3h4.6v16.5
		c0,7.5-5.8,12.5-12.7,12.5C145.6,39.3,140.2,34.3,140.2,26.8z"/>
	<path class="st0" d="M170.2,10.3H187c4.9,0,8.2,3.7,8.2,8.2c0,3.4-2,6.5-5.3,7.7l5.3,12.7h-4.8l-5.1-12.2h-10.5v12.2h-4.6V10.3z
		 M186.6,22.6c2.4,0,4.1-1.6,4.1-4.1c0-2.4-1.6-4.1-4.1-4.1h-11.7v8.2H186.6z"/>
	<path class="st0" d="M199.3,26.8V10.3h4.6v16.9c0,4.5,3.4,7.9,7.9,7.9c4.5,0,7.8-3.5,7.8-7.9V10.3h4.6v16.5
		c0,7.5-5.8,12.5-12.7,12.5C204.7,39.3,199.3,34.3,199.3,26.8z"/>
	<path class="st0" d="M229.3,10.3h3.1l11.4,11.4l11.4-11.4h3.1v28.5h-4.5v-21l-10,9.6l-10-9.6v21h-4.5V10.3z"/>
</g>
<g>
	<path class="st1" d="M40.8,41.8c-0.5,0.1-0.9,0.1-1.3,0.1C38.7,42,38,42,37.2,42c-5.3,0-10.5,0-15.8,0c-1.6,0-3.2,0-4.7,0
		c-1.4,0-2.9-0.2-4.3-0.5c-3.5-0.9-5.7-3.1-6.5-6.6c-0.4-1.5-0.5-3.1-0.5-4.7c0-4.1,0-8.2,0-12.3c0-0.9,0-1.8,0.1-2.8
		c0.3-4.2,2.3-7.3,5.9-9.3c1.7-0.9,3.5-1.3,5.4-1.3c2.3,0,4.6-0.1,6.9-0.1c3.6,0,7.2,0,10.8,0.1c1.3,0,2.7,0.1,4,0.2
		c1.1,0.1,2.2,0.3,3.3,0.6C43.9,6,45.3,7.4,46,9.6c0.3,1.1,0.5,2.3,0.6,3.4c0.1,1.1,0.1,2.1,0.1,3.2c0,0.3-0.1,0.5-0.3,0.6
		c-4.8,3.8-9.5,7.7-14.2,11.5c-0.3,0.2-0.6,0.3-0.9,0.2c-0.6-0.1-1.1-0.4-1.6-0.8c-1.4-1.3-2.8-2.5-4.1-3.7
		c-1.3-1.2-2.6-2.3-3.9-3.5c-0.2-0.2-0.4-0.5-0.7-0.7c0.1-0.2,0.2-0.4,0.3-0.6c0.4,0,0.8,0,1.1,0c3.6,0,7.2,0,10.8,0.1
		c0.7,0,1.4,0,2.1,0c1.8,0,3.3-1.2,3.7-2.9c0.4-1.6-0.4-3.2-1.9-3.9c-0.6-0.3-1.3-0.4-2-0.4c-0.9,0-1.9,0-2.8,0c-2.9,0-5.8,0-8.7,0
		c-1.7,0-3.3,0-5,0c-0.7,0-1.4,0.1-2.1,0.3c-1.6,0.4-2.6,1.4-3,3c-0.2,0.8-0.3,1.6-0.3,2.5c0,3.7,0,7.5,0,11.2c0,0.7,0.1,1.3,0.2,2
		c0.4,1.7,1.5,2.7,3.1,3c0.6,0.1,1.3,0.2,1.9,0.2c4,0,7.9,0,11.9,0c1,0,1.9,0,2.9,0.1c0.6,0,1.1,0.2,1.5,0.7c2,2.2,4,4.3,6,6.4
		C40.7,41.6,40.7,41.7,40.8,41.8z"/>
	<path class="st2" d="M64.8,51.5c-0.2,0-0.4,0-0.5,0c-2.7,0-5.4,0-8,0c-0.7,0-1.3,0-2,0c-0.3,0-0.5-0.1-0.7-0.3
		c-0.1-0.1-0.2-0.2-0.3-0.3C46.8,44.4,40.4,37.8,34,31.1c-0.1-0.1-0.2-0.3-0.4-0.4c0.1-0.1,0.2-0.1,0.3-0.2c6-5.1,12-10.2,18-15.3
		c0.1-0.1,0.2-0.2,0.3-0.3c0.6-0.5,1.2-0.8,2-0.8c2.7,0,5.4,0,8.2,0c0.3,0,0.6,0,0.9,0c0.3,0,0.5,0.1,0.6,0.4c0,0.1,0.1,0.2,0.1,0.3
		c-6.6,5.6-13.1,11.2-19.7,16.9C51.1,38.3,57.9,44.9,64.8,51.5z"/>
</g>
</svg>
