<?xml version="1.0" encoding="utf-8"?>
<!-- Generator: Adobe Illustrator 25.2.3, SVG Export Plug-In . SVG Version: 6.00 Build 0)  -->
<svg version="1.1" id="katman_1" xmlns="http://www.w3.org/2000/svg" xmlns:xlink="http://www.w3.org/1999/xlink" x="0px" y="0px"
	 viewBox="0 0 269 56" style="enable-background:new 0 0 269 56;" xml:space="preserve">
<style type="text/css">
	.st0{stroke:#000000;stroke-miterlimit:10;}
	.st1{fill:#00D2FF;}
	.st2{fill:#EFA000;}
</style>
<g>
	<path class="st0" d="M80.2,10.7h25.1v4.1H84.9V23H105V27H84.9v8.2h20.5v4.1H80.2V10.7z"/>
	<path class="st0" d="M110.2,10.7h4.6v19l18.6-19h5.7l-8.5,8.7l8.6,19.8h-5.1L127.1,23l-12.3,12.7v3.6h-4.6V10.7z"/>
	<path class="st0" d="M142.1,27.2V10.7h4.6v16.9c0,4.5,3.4,7.9,7.9,7.9c4.5,0,7.8-3.5,7.8-7.9V10.7h4.6v16.5
		c0,7.5-5.8,12.5-12.7,12.5C147.5,39.7,142.1,34.7,142.1,27.2z"/>
	<path class="st0" d="M172.2,10.7h16.8c4.9,0,8.2,3.7,8.2,8.2c0,3.4-2,6.5-5.3,7.7l5.3,12.7h-4.8L187.3,27h-10.5v12.2h-4.6V10.7z
		 M188.5,23c2.4,0,4.1-1.6,4.1-4.1c0-2.4-1.6-4.1-4.1-4.1h-11.7V23H188.5z"/>
	<path class="st0" d="M201.2,27.2V10.7h4.6v16.9c0,4.5,3.4,7.9,7.9,7.9c4.5,0,7.8-3.5,7.8-7.9V10.7h4.6v16.5
		c0,7.5-5.8,12.5-12.7,12.5C206.6,39.7,201.2,34.7,201.2,27.2z"/>
	<path class="st0" d="M231.2,10.7h3.1l11.4,11.4l11.4-11.4h3.1v28.5h-4.5v-21l-10,9.6l-10-9.6v21h-4.5V10.7z"/>
</g>
<g>
	<path class="st1" d="M42.7,42.2c-0.5,0.1-0.9,0.1-1.3,0.1c-0.8,0-1.5,0.1-2.3,0.1c-5.3,0-10.5,0-15.8,0c-1.6,0-3.2,0-4.7,0
		c-1.4,0-2.9-0.2-4.3-0.5c-3.5-0.9-5.7-3.1-6.5-6.6c-0.4-1.5-0.5-3.1-0.5-4.7c0-4.1,0-8.2,0-12.3c0-0.9,0-1.8,0.1-2.8
		c0.3-4.2,2.3-7.3,5.9-9.3c1.7-0.9,3.5-1.3,5.4-1.3c2.3,0,4.6-0.1,6.9-0.1c3.6,0,7.2,0,10.8,0.1c1.3,0,2.7,0.1,4,0.2
		c1.1,0.1,2.2,0.3,3.3,0.6c2.2,0.7,3.6,2.2,4.3,4.4c0.3,1.1,0.5,2.3,0.6,3.4c0.1,1.1,0.1,2.1,0.1,3.2c0,0.3-0.1,0.5-0.3,0.6
		c-4.8,3.8-9.5,7.7-14.2,11.5c-0.3,0.2-0.6,0.3-0.9,0.2c-0.6-0.1-1.1-0.4-1.6-0.8c-1.4-1.3-2.8-2.5-4.1-3.7
		c-1.3-1.2-2.6-2.3-3.9-3.5c-0.2-0.2-0.4-0.5-0.7-0.7c0.1-0.2,0.2-0.4,0.3-0.6c0.4,0,0.8,0,1.1,0c3.6,0,7.2,0,10.8,0.1
		c0.7,0,1.4,0,2.1,0c1.8,0,3.3-1.2,3.7-2.9c0.4-1.6-0.4-3.2-1.9-3.9c-0.6-0.3-1.3-0.4-2-0.4c-0.9,0-1.9,0-2.8,0c-2.9,0-5.8,0-8.7,0
		c-1.7,0-3.3,0-5,0c-0.7,0-1.4,0.1-2.1,0.3c-1.6,0.4-2.6,1.4-3,3c-0.2,0.8-0.3,1.6-0.3,2.5c0,3.7,0,7.5,0,11.2c0,0.7,0.1,1.3,0.2,2
		c0.4,1.7,1.5,2.7,3.1,3c0.6,0.1,1.3,0.2,1.9,0.2c4,0,7.9,0,11.9,0c1,0,1.9,0,2.9,0.1c0.6,0,1.1,0.2,1.5,0.7c2,2.2,4,4.3,6,6.4
		C42.6,42,42.6,42.1,42.7,42.2z"/>
	<path class="st2" d="M66.7,51.9c-0.2,0-0.4,0-0.5,0c-2.7,0-5.4,0-8,0c-0.7,0-1.3,0-2,0c-0.3,0-0.5-0.1-0.7-0.3
		c-0.1-0.1-0.2-0.2-0.3-0.3c-6.4-6.6-12.9-13.2-19.3-19.8c-0.1-0.1-0.2-0.3-0.4-0.4c0.1-0.1,0.2-0.1,0.3-0.2c6-5.1,12-10.2,18-15.3
		c0.1-0.1,0.2-0.2,0.3-0.3c0.6-0.5,1.2-0.8,2-0.8c2.7,0,5.4,0,8.2,0c0.3,0,0.6,0,0.9,0c0.3,0,0.5,0.1,0.6,0.4c0,0.1,0.1,0.2,0.1,0.3
		c-6.6,5.6-13.1,11.2-19.7,16.9C53,38.7,59.8,45.3,66.7,51.9z"/>
</g>
</svg>
