<?xml version="1.0" encoding="utf-8"?>
<!-- Generator: Adobe Illustrator 26.5.0, SVG Export Plug-In . SVG Version: 6.00 Build 0)  -->
<svg version="1.1" id="katman_1" xmlns="http://www.w3.org/2000/svg" xmlns:xlink="http://www.w3.org/1999/xlink" x="0px" y="0px"
	 viewBox="0 0 56 40" style="enable-background:new 0 0 56 40;" xml:space="preserve">
<style type="text/css">
	.st0{fill:#4BC0EC;}
	.st1{fill:#FFFFFF;}
	.st2{fill:#EFA100;}
</style>
<g>
	<path class="st0" d="M40,39.7c-0.5,0-0.8,0.2-1.3,0.2c-0.8,0-1.6,0-2.3,0c-5.4,0-7.2,0-12.5,0c-1.6,0-2.6,0-4.3,0
		c-1.5,0-3-0.2-4.3-0.5c-3.6-1-5.7-3.3-6.7-7c-0.3-1.7-0.5-3.3-0.5-5c0-4.3,0-8.6,0-13c0-1,0-1.9,0-2.9c0.3-4.4,2.3-7.7,6.1-9.9
		c1.6-1,3.6-1.4,5.4-1.4c2.3,0,4.1,0,6.4,0c3.6,0,3.8,0,7.4,0c1.3,0,2.8,0,4.1,0.2c1.1,0,2.3,0.3,3.4,0.7c2.3,0.7,3.6,2.4,4.3,4.6
		c0.3,1.2,0.5,2.4,0.7,3.6c0,1.2,0,3.4,0,3.4c0,0.7-0.7,1.4-0.8,1.5C40.2,18.1,36.9,20.9,32,25c-0.7,0.7-1.3,0.7-1.8,0.7
		c-0.7-0.2-1.1-0.5-1.6-0.9c-1.3-1.4-2.8-2.6-4.3-3.9c-1.3-1.2-2.6-2.4-3.9-3.8c-0.2-0.2-0.5-0.5-0.7-0.7c0-0.2,0.2-0.3,0.3-0.5
		c0.5,0,0.8,0,1.1,0c3.6,0,7.2,0,10.8,0c0.7,0,1.5,0,2.1,0c1.8,0,3.3-1.2,3.8-3.1c0.3-1.7-0.5-3.4-2-4.1c-0.7-0.3-1.3-0.5-2-0.5
		c-1,0-2,0-2.8,0c-3,0-2.5,0-5.4,0c-1.6,0-2.8,0-4.4,0c-0.7,0-1.5,0.2-2.1,0.3c-1.6,0.3-2.8,1.5-3.1,3.3c-0.2,0.9-0.3,1.7-0.3,2.6
		c0,3.9,0,8,0,12c0,0.7,0,1.4,0.2,2.1c0.3,1.7,1.5,2.9,3.1,3.3c0.7,0.2,1.3,0.2,2,0.2c3.9,0,3.9,0,8,0c1,0,2,0,3,0
		c0.5,0,1.1,0.2,1.5,0.7C35.9,35.1,37.9,37.1,40,39.7C39.9,39.5,40,39.5,40,39.7z"/>
	<path class="st1" d="M38.2,26.8L38.2,26.8c-1.1-1.4-1-3.6,0.5-4.6l3.9-3.3c1.3-1.2,3.4-1,4.4,0.5l0,0c1.1,1.4,1,3.6-0.5,4.6
		l-3.9,3.3C41.3,28.4,39.4,28.2,38.2,26.8z"/>
	<path class="st2" d="M41.8,19.5c-0.2,0.5-0.7,1.4-0.8,2.1c-0.7,2.6-0.2,4.8,1.3,6.7c1.6,2.1,2.3,2.9,3.9,5.1
		c1.3,1.7,1.1,3.9-0.3,5.1S42.3,39.7,41,38c-2.5-3.1-3.8-4.8-6.2-7.9c-1.1-1.5-1.3-3.6,0-4.8C37.1,23.4,39.5,21.4,41.8,19.5z"/>
</g>
</svg>
